%TF.GenerationSoftware,KiCad,Pcbnew,7.0.1*%
%TF.CreationDate,2023-04-13T23:32:15-05:00*%
%TF.ProjectId,hw4.2,6877342e-322e-46b6-9963-61645f706362,rev?*%
%TF.SameCoordinates,Original*%
%TF.FileFunction,Copper,L1,Top*%
%TF.FilePolarity,Positive*%
%FSLAX46Y46*%
G04 Gerber Fmt 4.6, Leading zero omitted, Abs format (unit mm)*
G04 Created by KiCad (PCBNEW 7.0.1) date 2023-04-13 23:32:15*
%MOMM*%
%LPD*%
G01*
G04 APERTURE LIST*
%TA.AperFunction,ComponentPad*%
%ADD10C,1.600000*%
%TD*%
%TA.AperFunction,ComponentPad*%
%ADD11O,1.600000X1.600000*%
%TD*%
%TA.AperFunction,ComponentPad*%
%ADD12R,1.700000X1.700000*%
%TD*%
%TA.AperFunction,ComponentPad*%
%ADD13O,1.700000X1.700000*%
%TD*%
%TA.AperFunction,ComponentPad*%
%ADD14C,1.700000*%
%TD*%
%TA.AperFunction,ComponentPad*%
%ADD15C,1.800000*%
%TD*%
%TA.AperFunction,ComponentPad*%
%ADD16R,1.800000X1.800000*%
%TD*%
%TA.AperFunction,ComponentPad*%
%ADD17R,1.050000X1.500000*%
%TD*%
%TA.AperFunction,ComponentPad*%
%ADD18O,1.050000X1.500000*%
%TD*%
%TA.AperFunction,ComponentPad*%
%ADD19R,1.600000X1.600000*%
%TD*%
%TA.AperFunction,ViaPad*%
%ADD20C,0.800000*%
%TD*%
%TA.AperFunction,Conductor*%
%ADD21C,0.250000*%
%TD*%
%TA.AperFunction,Profile*%
%ADD22C,0.100000*%
%TD*%
G04 APERTURE END LIST*
D10*
%TO.P,R4,1*%
%TO.N,+3.3V*%
X147320000Y-91440000D03*
D11*
%TO.P,R4,2*%
%TO.N,/MCLR*%
X154940000Y-91440000D03*
%TD*%
D12*
%TO.P,J1,1,Pin_1*%
%TO.N,Net-(J1-Pin_1)*%
X139700000Y-71120000D03*
D13*
%TO.P,J1,2,Pin_2*%
%TO.N,GND1*%
X142240000Y-71120000D03*
%TD*%
D11*
%TO.P,R5,2*%
%TO.N,/USER*%
X154940000Y-86360000D03*
D10*
%TO.P,R5,1*%
%TO.N,+3.3V*%
X147320000Y-86360000D03*
%TD*%
D12*
%TO.P,J2,1,Pin_1*%
%TO.N,unconnected-(J2-Pin_1-Pad1)*%
X149860000Y-71120000D03*
D13*
%TO.P,J2,2,Pin_2*%
%TO.N,/U1TX*%
X152400000Y-71120000D03*
%TO.P,J2,3,Pin_3*%
%TO.N,/U1RX*%
X154940000Y-71120000D03*
%TO.P,J2,4,Pin_4*%
%TO.N,+5V*%
X157480000Y-71120000D03*
%TO.P,J2,5,Pin_5*%
%TO.N,unconnected-(J2-Pin_5-Pad5)*%
X160020000Y-71120000D03*
%TO.P,J2,6,Pin_6*%
%TO.N,GND1*%
X162560000Y-71120000D03*
%TD*%
D14*
%TO.P,SW4,1,A*%
%TO.N,+5V*%
X170260000Y-71120000D03*
%TO.P,SW4,2,B*%
%TO.N,/Vin*%
X172760000Y-71120000D03*
%TO.P,SW4,3,C*%
%TO.N,Net-(J1-Pin_1)*%
X175260000Y-71120000D03*
%TD*%
D11*
%TO.P,R2,2*%
%TO.N,/GREEN*%
X154940000Y-101600000D03*
D10*
%TO.P,R2,1*%
%TO.N,Net-(D2-K)*%
X147320000Y-101600000D03*
%TD*%
D15*
%TO.P,D2,2,A*%
%TO.N,+3.3V*%
X177800000Y-101600000D03*
D16*
%TO.P,D2,1,K*%
%TO.N,Net-(D2-K)*%
X177800000Y-104140000D03*
%TD*%
D10*
%TO.P,C4,1*%
%TO.N,+3.3V*%
X180340000Y-76200000D03*
%TO.P,C4,2*%
%TO.N,GND1*%
X182840000Y-76200000D03*
%TD*%
%TO.P,C6,1*%
%TO.N,+3.3V*%
X154980000Y-106720000D03*
%TO.P,C6,2*%
%TO.N,GND1*%
X154980000Y-109220000D03*
%TD*%
D17*
%TO.P,U2,1,VO*%
%TO.N,+3.3V*%
X182920000Y-71120000D03*
D18*
%TO.P,U2,2,GND*%
%TO.N,GND1*%
X184190000Y-71120000D03*
%TO.P,U2,3,VI*%
%TO.N,/Vin*%
X185460000Y-71120000D03*
%TD*%
D10*
%TO.P,C5,1*%
%TO.N,Net-(U1-VCAP)*%
X175260000Y-96520000D03*
%TO.P,C5,2*%
%TO.N,GND1*%
X180260000Y-96520000D03*
%TD*%
%TO.P,C2,2*%
%TO.N,GND1*%
X154940000Y-81280000D03*
%TO.P,C2,1*%
%TO.N,+3.3V*%
X149940000Y-81280000D03*
%TD*%
D16*
%TO.P,D1,1,K*%
%TO.N,Net-(D1-K)*%
X175260000Y-81280000D03*
D15*
%TO.P,D1,2,A*%
%TO.N,+3.3V*%
X175260000Y-78740000D03*
%TD*%
D11*
%TO.P,R3,2*%
%TO.N,/YELLOW*%
X154940000Y-96520000D03*
D10*
%TO.P,R3,1*%
%TO.N,Net-(D3-K)*%
X147320000Y-96520000D03*
%TD*%
D12*
%TO.P,J4,1,Pin_1*%
%TO.N,/B15*%
X185420000Y-81280000D03*
D13*
%TO.P,J4,2,Pin_2*%
%TO.N,/B14*%
X185420000Y-83820000D03*
%TO.P,J4,3,Pin_3*%
%TO.N,/B13*%
X185420000Y-86360000D03*
%TO.P,J4,4,Pin_4*%
%TO.N,/B12*%
X185420000Y-88900000D03*
%TO.P,J4,5,Pin_5*%
%TO.N,/B11*%
X185420000Y-91440000D03*
%TO.P,J4,6,Pin_6*%
%TO.N,/B10*%
X185420000Y-93980000D03*
%TO.P,J4,7,Pin_7*%
%TO.N,/B9*%
X185420000Y-96520000D03*
%TO.P,J4,8,Pin_8*%
%TO.N,/B8*%
X185420000Y-99060000D03*
%TO.P,J4,9,Pin_9*%
%TO.N,/B7*%
X185420000Y-101600000D03*
%TO.P,J4,10,Pin_10*%
%TO.N,/Vin*%
X185420000Y-104140000D03*
%TO.P,J4,11,Pin_11*%
%TO.N,+3.3V*%
X185420000Y-106680000D03*
%TO.P,J4,12,Pin_12*%
%TO.N,GND1*%
X185420000Y-109220000D03*
%TD*%
D12*
%TO.P,J3,1,Pin_1*%
%TO.N,/A0*%
X139700000Y-76200000D03*
D13*
%TO.P,J3,2,Pin_2*%
%TO.N,/A1*%
X139700000Y-78740000D03*
%TO.P,J3,3,Pin_3*%
%TO.N,/B0*%
X139700000Y-81280000D03*
%TO.P,J3,4,Pin_4*%
%TO.N,/B1*%
X139700000Y-83820000D03*
%TO.P,J3,5,Pin_5*%
%TO.N,/B2*%
X139700000Y-86360000D03*
%TO.P,J3,6,Pin_6*%
%TO.N,/A3*%
X139700000Y-88900000D03*
%TO.P,J3,7,Pin_7*%
%TO.N,/GREEN*%
X139700000Y-91440000D03*
%TO.P,J3,8,Pin_8*%
%TO.N,/YELLOW*%
X139700000Y-93980000D03*
%TO.P,J3,9,Pin_9*%
%TO.N,/B6*%
X139700000Y-96520000D03*
%TO.P,J3,10,Pin_10*%
%TO.N,/Vin*%
X139700000Y-99060000D03*
%TO.P,J3,11,Pin_11*%
%TO.N,+3.3V*%
X139700000Y-101600000D03*
%TO.P,J3,12,Pin_12*%
%TO.N,GND1*%
X139700000Y-104140000D03*
%TD*%
D10*
%TO.P,R1,1*%
%TO.N,Net-(D1-K)*%
X180340000Y-85090000D03*
D11*
%TO.P,R1,2*%
%TO.N,GND1*%
X180340000Y-92710000D03*
%TD*%
D15*
%TO.P,D3,2,A*%
%TO.N,+3.3V*%
X177800000Y-106680000D03*
D16*
%TO.P,D3,1,K*%
%TO.N,Net-(D3-K)*%
X177800000Y-109220000D03*
%TD*%
D10*
%TO.P,C3,1*%
%TO.N,/Vin*%
X172800000Y-86440000D03*
%TO.P,C3,2*%
%TO.N,GND1*%
X172800000Y-91440000D03*
%TD*%
D12*
%TO.P,SW2,1,1*%
%TO.N,GND1*%
X144780000Y-106680000D03*
D13*
%TO.P,SW2,2,2*%
%TO.N,/USER*%
X144780000Y-111760000D03*
%TD*%
D12*
%TO.P,SW1,1,1*%
%TO.N,GND1*%
X149860000Y-106680000D03*
D13*
%TO.P,SW1,2,2*%
%TO.N,/MCLR*%
X149860000Y-111760000D03*
%TD*%
D10*
%TO.P,C1,2*%
%TO.N,GND1*%
X154940000Y-76200000D03*
%TO.P,C1,1*%
%TO.N,+3.3V*%
X149940000Y-76200000D03*
%TD*%
D19*
%TO.P,U1,1,~{MCLR}*%
%TO.N,/MCLR*%
X160020000Y-76200000D03*
D11*
%TO.P,U1,2,A0*%
%TO.N,/A0*%
X160020000Y-78740000D03*
%TO.P,U1,3,A1*%
%TO.N,/A1*%
X160020000Y-81280000D03*
%TO.P,U1,4,B0*%
%TO.N,/B0*%
X160020000Y-83820000D03*
%TO.P,U1,5,B1*%
%TO.N,/B1*%
X160020000Y-86360000D03*
%TO.P,U1,6,B2*%
%TO.N,/B2*%
X160020000Y-88900000D03*
%TO.P,U1,7,B3*%
%TO.N,/U1TX*%
X160020000Y-91440000D03*
%TO.P,U1,8,VSS*%
%TO.N,GND1*%
X160020000Y-93980000D03*
%TO.P,U1,9,A2*%
%TO.N,/U1RX*%
X160020000Y-96520000D03*
%TO.P,U1,10,A3*%
%TO.N,/A3*%
X160020000Y-99060000D03*
%TO.P,U1,11,B4*%
%TO.N,/GREEN*%
X160020000Y-101600000D03*
%TO.P,U1,12,A4*%
%TO.N,/USER*%
X160020000Y-104140000D03*
%TO.P,U1,13,VDD*%
%TO.N,+3.3V*%
X160020000Y-106680000D03*
%TO.P,U1,14,B5*%
%TO.N,/YELLOW*%
X160020000Y-109220000D03*
%TO.P,U1,15,B6*%
%TO.N,/B6*%
X167640000Y-109220000D03*
%TO.P,U1,16,B7*%
%TO.N,/B7*%
X167640000Y-106680000D03*
%TO.P,U1,17,B8*%
%TO.N,/B8*%
X167640000Y-104140000D03*
%TO.P,U1,18,B9*%
%TO.N,/B9*%
X167640000Y-101600000D03*
%TO.P,U1,19,VSS*%
%TO.N,GND1*%
X167640000Y-99060000D03*
%TO.P,U1,20,VCAP*%
%TO.N,Net-(U1-VCAP)*%
X167640000Y-96520000D03*
%TO.P,U1,21,B10*%
%TO.N,/B10*%
X167640000Y-93980000D03*
%TO.P,U1,22,B11*%
%TO.N,/B11*%
X167640000Y-91440000D03*
%TO.P,U1,23,B12*%
%TO.N,/B12*%
X167640000Y-88900000D03*
%TO.P,U1,24,B13*%
%TO.N,/B13*%
X167640000Y-86360000D03*
%TO.P,U1,25,B14*%
%TO.N,/B14*%
X167640000Y-83820000D03*
%TO.P,U1,26,B15*%
%TO.N,/B15*%
X167640000Y-81280000D03*
%TO.P,U1,27,AVSS*%
%TO.N,GND1*%
X167640000Y-78740000D03*
%TO.P,U1,28,AVDD*%
%TO.N,+3.3V*%
X167640000Y-76200000D03*
%TD*%
D20*
%TO.N,/Vin*%
X170180000Y-75475500D03*
%TO.N,+3.3V*%
X170180000Y-106680000D03*
X173232300Y-102112300D03*
X180340000Y-71120000D03*
X180340000Y-74384500D03*
%TO.N,/Vin*%
X172720000Y-104140000D03*
X170180000Y-86360000D03*
X175260000Y-86360000D03*
X182880000Y-104140000D03*
%TO.N,/GREEN*%
X141515500Y-99060000D03*
X142240000Y-93980000D03*
%TO.N,/U1TX*%
X152400000Y-73660000D03*
X158479503Y-91440000D03*
%TO.N,/U1RX*%
X154940000Y-73660000D03*
X157992299Y-96007701D03*
%TO.N,/USER*%
X145292300Y-104652300D03*
%TO.N,Net-(D2-K)*%
X175260000Y-104140000D03*
X141149503Y-104140000D03*
%TO.N,Net-(D3-K)*%
X146229500Y-96520000D03*
X172720000Y-109220000D03*
%TO.N,Net-(D1-K)*%
X177800000Y-81280000D03*
X177800000Y-84544500D03*
%TO.N,/USER*%
X147320000Y-87759503D03*
X147320000Y-111760000D03*
%TO.N,/MCLR*%
X152400000Y-111760000D03*
%TO.N,/B6*%
X141727700Y-97032300D03*
X142240000Y-112935000D03*
%TO.N,/YELLOW*%
X156967700Y-97032300D03*
X157480000Y-109220000D03*
%TO.N,+3.3V*%
X147320000Y-81280000D03*
X147320000Y-76200000D03*
X144780000Y-86360000D03*
X144780000Y-101600000D03*
X144780000Y-91440000D03*
%TO.N,/MCLR*%
X157480000Y-91440000D03*
X157480000Y-76200000D03*
%TD*%
D21*
%TO.N,/Vin*%
X170180000Y-73700000D02*
X170180000Y-75475500D01*
X172760000Y-71120000D02*
X170180000Y-73700000D01*
X185420000Y-73660000D02*
X175300000Y-73660000D01*
X175300000Y-73660000D02*
X172760000Y-71120000D01*
X185460000Y-73620000D02*
X185420000Y-73660000D01*
X185460000Y-71120000D02*
X185460000Y-73620000D01*
%TO.N,+3.3V*%
X161435000Y-108095000D02*
X160020000Y-106680000D01*
X168765000Y-108095000D02*
X161435000Y-108095000D01*
X170180000Y-106680000D02*
X168765000Y-108095000D01*
X173744600Y-101600000D02*
X173232300Y-102112300D01*
X177800000Y-101600000D02*
X173744600Y-101600000D01*
X151065000Y-77325000D02*
X166515000Y-77325000D01*
X149940000Y-76200000D02*
X151065000Y-77325000D01*
X180340000Y-71120000D02*
X182920000Y-71120000D01*
X180340000Y-76200000D02*
X180340000Y-74384500D01*
X166515000Y-77325000D02*
X167640000Y-76200000D01*
X166515000Y-100185000D02*
X166515000Y-77325000D01*
X160020000Y-106680000D02*
X166515000Y-100185000D01*
%TO.N,Net-(J1-Pin_1)*%
X141325000Y-69495000D02*
X139700000Y-71120000D01*
X173635000Y-69495000D02*
X141325000Y-69495000D01*
X175260000Y-71120000D02*
X173635000Y-69495000D01*
%TO.N,+3.3V*%
X167640000Y-76200000D02*
X175260000Y-76200000D01*
%TO.N,/Vin*%
X170260000Y-86440000D02*
X172800000Y-86440000D01*
X170180000Y-86360000D02*
X170260000Y-86440000D01*
X172720000Y-114300000D02*
X171995000Y-113575000D01*
X171995000Y-113575000D02*
X171995000Y-104865000D01*
X171265000Y-115755000D02*
X172720000Y-114300000D01*
X171995000Y-104865000D02*
X172720000Y-104140000D01*
X137845000Y-115755000D02*
X171265000Y-115755000D01*
X137845000Y-99060000D02*
X137845000Y-115755000D01*
X139700000Y-99060000D02*
X137845000Y-99060000D01*
X172880000Y-86360000D02*
X172800000Y-86440000D01*
X175260000Y-86360000D02*
X172880000Y-86360000D01*
X185420000Y-104140000D02*
X182880000Y-104140000D01*
%TO.N,/B13*%
X168845000Y-87565000D02*
X167640000Y-86360000D01*
X184215000Y-87565000D02*
X168845000Y-87565000D01*
X185420000Y-86360000D02*
X184215000Y-87565000D01*
%TO.N,/B11*%
X168765000Y-92565000D02*
X167640000Y-91440000D01*
X173265991Y-92565000D02*
X168765000Y-92565000D01*
X174390991Y-91440000D02*
X173265991Y-92565000D01*
X185420000Y-91440000D02*
X174390991Y-91440000D01*
%TO.N,/B12*%
X185420000Y-88900000D02*
X167640000Y-88900000D01*
%TO.N,/B7*%
X173945000Y-100375000D02*
X167640000Y-106680000D01*
X184195000Y-100375000D02*
X173945000Y-100375000D01*
X185420000Y-101600000D02*
X184195000Y-100375000D01*
%TO.N,/B8*%
X172720000Y-99060000D02*
X167640000Y-104140000D01*
X185420000Y-99060000D02*
X172720000Y-99060000D01*
%TO.N,/B9*%
X171545000Y-97695000D02*
X167640000Y-101600000D01*
X184245000Y-97695000D02*
X171545000Y-97695000D01*
X185420000Y-96520000D02*
X184245000Y-97695000D01*
%TO.N,/B10*%
X185420000Y-93980000D02*
X167640000Y-93980000D01*
%TO.N,/GREEN*%
X154940000Y-99060000D02*
X154940000Y-101600000D01*
X141515500Y-99060000D02*
X154940000Y-99060000D01*
X139700000Y-91440000D02*
X142240000Y-93980000D01*
%TO.N,/U1TX*%
X152400000Y-73660000D02*
X152400000Y-71120000D01*
X160020000Y-91440000D02*
X158479503Y-91440000D01*
%TO.N,/U1RX*%
X154940000Y-73660000D02*
X154940000Y-71120000D01*
X158504598Y-96520000D02*
X157992299Y-96007701D01*
X160020000Y-96520000D02*
X158504598Y-96520000D01*
%TO.N,/USER*%
X145804600Y-104140000D02*
X145292300Y-104652300D01*
X160020000Y-104140000D02*
X145804600Y-104140000D01*
%TO.N,+3.3V*%
X159980000Y-106720000D02*
X160020000Y-106680000D01*
X154980000Y-106720000D02*
X159980000Y-106720000D01*
%TO.N,Net-(D2-K)*%
X175260000Y-104140000D02*
X177800000Y-104140000D01*
X144780000Y-104140000D02*
X141149503Y-104140000D01*
X147320000Y-101600000D02*
X144780000Y-104140000D01*
%TO.N,Net-(D3-K)*%
X146229500Y-96520000D02*
X147320000Y-96520000D01*
X177800000Y-109220000D02*
X172720000Y-109220000D01*
%TO.N,+3.3V*%
X179025000Y-105455000D02*
X177800000Y-106680000D01*
X179025000Y-102825000D02*
X179025000Y-105455000D01*
X177800000Y-101600000D02*
X179025000Y-102825000D01*
X177800000Y-106680000D02*
X185420000Y-106680000D01*
%TO.N,Net-(U1-VCAP)*%
X175260000Y-96520000D02*
X167640000Y-96520000D01*
%TO.N,+3.3V*%
X175260000Y-78740000D02*
X175260000Y-76200000D01*
X175260000Y-76200000D02*
X180340000Y-76200000D01*
%TO.N,Net-(D1-K)*%
X177800000Y-81280000D02*
X175260000Y-81280000D01*
X178345500Y-85090000D02*
X177800000Y-84544500D01*
X180340000Y-85090000D02*
X178345500Y-85090000D01*
%TO.N,+5V*%
X169085000Y-69945000D02*
X158655000Y-69945000D01*
X170260000Y-71120000D02*
X169085000Y-69945000D01*
X158655000Y-69945000D02*
X157480000Y-71120000D01*
%TO.N,/B14*%
X185420000Y-83820000D02*
X167640000Y-83820000D01*
%TO.N,/B15*%
X168865000Y-82505000D02*
X167640000Y-81280000D01*
X184195000Y-82505000D02*
X168865000Y-82505000D01*
X185420000Y-81280000D02*
X184195000Y-82505000D01*
%TO.N,/USER*%
X154940000Y-88450000D02*
X154940000Y-86360000D01*
X147320000Y-88450000D02*
X154940000Y-88450000D01*
X147320000Y-87759503D02*
X147320000Y-88450000D01*
X144780000Y-111760000D02*
X147320000Y-111760000D01*
%TO.N,/MCLR*%
X149860000Y-111760000D02*
X152400000Y-111760000D01*
%TO.N,/GREEN*%
X160020000Y-101600000D02*
X154940000Y-101600000D01*
%TO.N,/B6*%
X141215400Y-96520000D02*
X141727700Y-97032300D01*
X139700000Y-96520000D02*
X141215400Y-96520000D01*
X142240000Y-112935000D02*
X163925000Y-112935000D01*
X163925000Y-112935000D02*
X167640000Y-109220000D01*
%TO.N,/YELLOW*%
X143365000Y-97645000D02*
X139700000Y-93980000D01*
X156355000Y-97645000D02*
X143365000Y-97645000D01*
X156967700Y-97032300D02*
X156355000Y-97645000D01*
X156455400Y-96520000D02*
X156967700Y-97032300D01*
X154940000Y-96520000D02*
X156455400Y-96520000D01*
X157480000Y-109220000D02*
X160020000Y-109220000D01*
%TO.N,+3.3V*%
X149940000Y-81280000D02*
X147320000Y-81280000D01*
X149940000Y-76200000D02*
X147320000Y-76200000D01*
X147320000Y-86360000D02*
X144780000Y-86360000D01*
X144780000Y-101600000D02*
X139700000Y-101600000D01*
X147320000Y-91440000D02*
X144780000Y-91440000D01*
%TO.N,/MCLR*%
X157480000Y-91440000D02*
X154940000Y-91440000D01*
X160020000Y-76200000D02*
X157480000Y-76200000D01*
%TO.N,/A3*%
X156355000Y-95395000D02*
X160020000Y-99060000D01*
X146195000Y-95395000D02*
X156355000Y-95395000D01*
X139700000Y-88900000D02*
X146195000Y-95395000D01*
%TO.N,/B2*%
X142240000Y-88900000D02*
X139700000Y-86360000D01*
X160020000Y-88900000D02*
X142240000Y-88900000D01*
%TO.N,/B1*%
X157930000Y-84270000D02*
X140150000Y-84270000D01*
X140150000Y-84270000D02*
X139700000Y-83820000D01*
X160020000Y-86360000D02*
X157930000Y-84270000D01*
%TO.N,/B0*%
X160020000Y-83820000D02*
X142240000Y-83820000D01*
X142240000Y-83820000D02*
X139700000Y-81280000D01*
%TO.N,/A1*%
X140150000Y-79190000D02*
X139700000Y-78740000D01*
X157930000Y-79190000D02*
X140150000Y-79190000D01*
X160020000Y-81280000D02*
X157930000Y-79190000D01*
%TO.N,/A0*%
X142240000Y-78740000D02*
X139700000Y-76200000D01*
X160020000Y-78740000D02*
X142240000Y-78740000D01*
%TD*%
D22*
X137560000Y-66040000D02*
X187560000Y-66040000D01*
X187560000Y-116040000D01*
X137560000Y-116040000D01*
X137560000Y-66040000D01*
M02*
