%TF.GenerationSoftware,KiCad,Pcbnew,7.0.1*%
%TF.CreationDate,2023-04-13T23:32:15-05:00*%
%TF.ProjectId,hw4.2,6877342e-322e-46b6-9963-61645f706362,rev?*%
%TF.SameCoordinates,Original*%
%TF.FileFunction,Legend,Top*%
%TF.FilePolarity,Positive*%
%FSLAX46Y46*%
G04 Gerber Fmt 4.6, Leading zero omitted, Abs format (unit mm)*
G04 Created by KiCad (PCBNEW 7.0.1) date 2023-04-13 23:32:15*
%MOMM*%
%LPD*%
G01*
G04 APERTURE LIST*
%ADD10C,0.150000*%
%ADD11C,0.100000*%
%ADD12C,0.120000*%
%ADD13C,0.400000*%
%TA.AperFunction,Profile*%
%ADD14C,0.100000*%
%TD*%
G04 APERTURE END LIST*
D10*
%TO.C,R4*%
X150963333Y-89532619D02*
X150630000Y-89056428D01*
X150391905Y-89532619D02*
X150391905Y-88532619D01*
X150391905Y-88532619D02*
X150772857Y-88532619D01*
X150772857Y-88532619D02*
X150868095Y-88580238D01*
X150868095Y-88580238D02*
X150915714Y-88627857D01*
X150915714Y-88627857D02*
X150963333Y-88723095D01*
X150963333Y-88723095D02*
X150963333Y-88865952D01*
X150963333Y-88865952D02*
X150915714Y-88961190D01*
X150915714Y-88961190D02*
X150868095Y-89008809D01*
X150868095Y-89008809D02*
X150772857Y-89056428D01*
X150772857Y-89056428D02*
X150391905Y-89056428D01*
X151820476Y-88865952D02*
X151820476Y-89532619D01*
X151582381Y-88485000D02*
X151344286Y-89199285D01*
X151344286Y-89199285D02*
X151963333Y-89199285D01*
%TO.C,J1*%
X76312619Y17136666D02*
X77026904Y17136666D01*
X77026904Y17136666D02*
X77169761Y17089047D01*
X77169761Y17089047D02*
X77265000Y16993809D01*
X77265000Y16993809D02*
X77312619Y16850952D01*
X77312619Y16850952D02*
X77312619Y16755714D01*
X77312619Y18136666D02*
X77312619Y17565238D01*
X77312619Y17850952D02*
X76312619Y17850952D01*
X76312619Y17850952D02*
X76455476Y17755714D01*
X76455476Y17755714D02*
X76550714Y17660476D01*
X76550714Y17660476D02*
X76598333Y17565238D01*
%TO.C,R5*%
X150963333Y-84452619D02*
X150630000Y-83976428D01*
X150391905Y-84452619D02*
X150391905Y-83452619D01*
X150391905Y-83452619D02*
X150772857Y-83452619D01*
X150772857Y-83452619D02*
X150868095Y-83500238D01*
X150868095Y-83500238D02*
X150915714Y-83547857D01*
X150915714Y-83547857D02*
X150963333Y-83643095D01*
X150963333Y-83643095D02*
X150963333Y-83785952D01*
X150963333Y-83785952D02*
X150915714Y-83881190D01*
X150915714Y-83881190D02*
X150868095Y-83928809D01*
X150868095Y-83928809D02*
X150772857Y-83976428D01*
X150772857Y-83976428D02*
X150391905Y-83976428D01*
X151868095Y-83452619D02*
X151391905Y-83452619D01*
X151391905Y-83452619D02*
X151344286Y-83928809D01*
X151344286Y-83928809D02*
X151391905Y-83881190D01*
X151391905Y-83881190D02*
X151487143Y-83833571D01*
X151487143Y-83833571D02*
X151725238Y-83833571D01*
X151725238Y-83833571D02*
X151820476Y-83881190D01*
X151820476Y-83881190D02*
X151868095Y-83928809D01*
X151868095Y-83928809D02*
X151915714Y-84024047D01*
X151915714Y-84024047D02*
X151915714Y-84262142D01*
X151915714Y-84262142D02*
X151868095Y-84357380D01*
X151868095Y-84357380D02*
X151820476Y-84405000D01*
X151820476Y-84405000D02*
X151725238Y-84452619D01*
X151725238Y-84452619D02*
X151487143Y-84452619D01*
X151487143Y-84452619D02*
X151391905Y-84405000D01*
X151391905Y-84405000D02*
X151344286Y-84357380D01*
%TO.C,J2*%
X146552619Y-71453333D02*
X147266904Y-71453333D01*
X147266904Y-71453333D02*
X147409761Y-71500952D01*
X147409761Y-71500952D02*
X147505000Y-71596190D01*
X147505000Y-71596190D02*
X147552619Y-71739047D01*
X147552619Y-71739047D02*
X147552619Y-71834285D01*
X146647857Y-71024761D02*
X146600238Y-70977142D01*
X146600238Y-70977142D02*
X146552619Y-70881904D01*
X146552619Y-70881904D02*
X146552619Y-70643809D01*
X146552619Y-70643809D02*
X146600238Y-70548571D01*
X146600238Y-70548571D02*
X146647857Y-70500952D01*
X146647857Y-70500952D02*
X146743095Y-70453333D01*
X146743095Y-70453333D02*
X146838333Y-70453333D01*
X146838333Y-70453333D02*
X146981190Y-70500952D01*
X146981190Y-70500952D02*
X147552619Y-71072380D01*
X147552619Y-71072380D02*
X147552619Y-70453333D01*
D11*
%TO.C,SW4*%
X163766667Y-68995000D02*
X163909524Y-69042619D01*
X163909524Y-69042619D02*
X164147619Y-69042619D01*
X164147619Y-69042619D02*
X164242857Y-68995000D01*
X164242857Y-68995000D02*
X164290476Y-68947380D01*
X164290476Y-68947380D02*
X164338095Y-68852142D01*
X164338095Y-68852142D02*
X164338095Y-68756904D01*
X164338095Y-68756904D02*
X164290476Y-68661666D01*
X164290476Y-68661666D02*
X164242857Y-68614047D01*
X164242857Y-68614047D02*
X164147619Y-68566428D01*
X164147619Y-68566428D02*
X163957143Y-68518809D01*
X163957143Y-68518809D02*
X163861905Y-68471190D01*
X163861905Y-68471190D02*
X163814286Y-68423571D01*
X163814286Y-68423571D02*
X163766667Y-68328333D01*
X163766667Y-68328333D02*
X163766667Y-68233095D01*
X163766667Y-68233095D02*
X163814286Y-68137857D01*
X163814286Y-68137857D02*
X163861905Y-68090238D01*
X163861905Y-68090238D02*
X163957143Y-68042619D01*
X163957143Y-68042619D02*
X164195238Y-68042619D01*
X164195238Y-68042619D02*
X164338095Y-68090238D01*
X164671429Y-68042619D02*
X164909524Y-69042619D01*
X164909524Y-69042619D02*
X165100000Y-68328333D01*
X165100000Y-68328333D02*
X165290476Y-69042619D01*
X165290476Y-69042619D02*
X165528572Y-68042619D01*
X166338095Y-68375952D02*
X166338095Y-69042619D01*
X166100000Y-67995000D02*
X165861905Y-68709285D01*
X165861905Y-68709285D02*
X166480952Y-68709285D01*
D10*
%TO.C,R2*%
X150963333Y-99692619D02*
X150630000Y-99216428D01*
X150391905Y-99692619D02*
X150391905Y-98692619D01*
X150391905Y-98692619D02*
X150772857Y-98692619D01*
X150772857Y-98692619D02*
X150868095Y-98740238D01*
X150868095Y-98740238D02*
X150915714Y-98787857D01*
X150915714Y-98787857D02*
X150963333Y-98883095D01*
X150963333Y-98883095D02*
X150963333Y-99025952D01*
X150963333Y-99025952D02*
X150915714Y-99121190D01*
X150915714Y-99121190D02*
X150868095Y-99168809D01*
X150868095Y-99168809D02*
X150772857Y-99216428D01*
X150772857Y-99216428D02*
X150391905Y-99216428D01*
X151344286Y-98787857D02*
X151391905Y-98740238D01*
X151391905Y-98740238D02*
X151487143Y-98692619D01*
X151487143Y-98692619D02*
X151725238Y-98692619D01*
X151725238Y-98692619D02*
X151820476Y-98740238D01*
X151820476Y-98740238D02*
X151868095Y-98787857D01*
X151868095Y-98787857D02*
X151915714Y-98883095D01*
X151915714Y-98883095D02*
X151915714Y-98978333D01*
X151915714Y-98978333D02*
X151868095Y-99121190D01*
X151868095Y-99121190D02*
X151296667Y-99692619D01*
X151296667Y-99692619D02*
X151915714Y-99692619D01*
%TO.C,D2*%
X175302619Y-103608094D02*
X174302619Y-103608094D01*
X174302619Y-103608094D02*
X174302619Y-103369999D01*
X174302619Y-103369999D02*
X174350238Y-103227142D01*
X174350238Y-103227142D02*
X174445476Y-103131904D01*
X174445476Y-103131904D02*
X174540714Y-103084285D01*
X174540714Y-103084285D02*
X174731190Y-103036666D01*
X174731190Y-103036666D02*
X174874047Y-103036666D01*
X174874047Y-103036666D02*
X175064523Y-103084285D01*
X175064523Y-103084285D02*
X175159761Y-103131904D01*
X175159761Y-103131904D02*
X175255000Y-103227142D01*
X175255000Y-103227142D02*
X175302619Y-103369999D01*
X175302619Y-103369999D02*
X175302619Y-103608094D01*
X174397857Y-102655713D02*
X174350238Y-102608094D01*
X174350238Y-102608094D02*
X174302619Y-102512856D01*
X174302619Y-102512856D02*
X174302619Y-102274761D01*
X174302619Y-102274761D02*
X174350238Y-102179523D01*
X174350238Y-102179523D02*
X174397857Y-102131904D01*
X174397857Y-102131904D02*
X174493095Y-102084285D01*
X174493095Y-102084285D02*
X174588333Y-102084285D01*
X174588333Y-102084285D02*
X174731190Y-102131904D01*
X174731190Y-102131904D02*
X175302619Y-102703332D01*
X175302619Y-102703332D02*
X175302619Y-102084285D01*
%TO.C,C4*%
X181423333Y-74267380D02*
X181375714Y-74315000D01*
X181375714Y-74315000D02*
X181232857Y-74362619D01*
X181232857Y-74362619D02*
X181137619Y-74362619D01*
X181137619Y-74362619D02*
X180994762Y-74315000D01*
X180994762Y-74315000D02*
X180899524Y-74219761D01*
X180899524Y-74219761D02*
X180851905Y-74124523D01*
X180851905Y-74124523D02*
X180804286Y-73934047D01*
X180804286Y-73934047D02*
X180804286Y-73791190D01*
X180804286Y-73791190D02*
X180851905Y-73600714D01*
X180851905Y-73600714D02*
X180899524Y-73505476D01*
X180899524Y-73505476D02*
X180994762Y-73410238D01*
X180994762Y-73410238D02*
X181137619Y-73362619D01*
X181137619Y-73362619D02*
X181232857Y-73362619D01*
X181232857Y-73362619D02*
X181375714Y-73410238D01*
X181375714Y-73410238D02*
X181423333Y-73457857D01*
X182280476Y-73695952D02*
X182280476Y-74362619D01*
X182042381Y-73315000D02*
X181804286Y-74029285D01*
X181804286Y-74029285D02*
X182423333Y-74029285D01*
%TO.C,C6*%
X157647380Y-108136666D02*
X157695000Y-108184285D01*
X157695000Y-108184285D02*
X157742619Y-108327142D01*
X157742619Y-108327142D02*
X157742619Y-108422380D01*
X157742619Y-108422380D02*
X157695000Y-108565237D01*
X157695000Y-108565237D02*
X157599761Y-108660475D01*
X157599761Y-108660475D02*
X157504523Y-108708094D01*
X157504523Y-108708094D02*
X157314047Y-108755713D01*
X157314047Y-108755713D02*
X157171190Y-108755713D01*
X157171190Y-108755713D02*
X156980714Y-108708094D01*
X156980714Y-108708094D02*
X156885476Y-108660475D01*
X156885476Y-108660475D02*
X156790238Y-108565237D01*
X156790238Y-108565237D02*
X156742619Y-108422380D01*
X156742619Y-108422380D02*
X156742619Y-108327142D01*
X156742619Y-108327142D02*
X156790238Y-108184285D01*
X156790238Y-108184285D02*
X156837857Y-108136666D01*
X156742619Y-107279523D02*
X156742619Y-107469999D01*
X156742619Y-107469999D02*
X156790238Y-107565237D01*
X156790238Y-107565237D02*
X156837857Y-107612856D01*
X156837857Y-107612856D02*
X156980714Y-107708094D01*
X156980714Y-107708094D02*
X157171190Y-107755713D01*
X157171190Y-107755713D02*
X157552142Y-107755713D01*
X157552142Y-107755713D02*
X157647380Y-107708094D01*
X157647380Y-107708094D02*
X157695000Y-107660475D01*
X157695000Y-107660475D02*
X157742619Y-107565237D01*
X157742619Y-107565237D02*
X157742619Y-107374761D01*
X157742619Y-107374761D02*
X157695000Y-107279523D01*
X157695000Y-107279523D02*
X157647380Y-107231904D01*
X157647380Y-107231904D02*
X157552142Y-107184285D01*
X157552142Y-107184285D02*
X157314047Y-107184285D01*
X157314047Y-107184285D02*
X157218809Y-107231904D01*
X157218809Y-107231904D02*
X157171190Y-107279523D01*
X157171190Y-107279523D02*
X157123571Y-107374761D01*
X157123571Y-107374761D02*
X157123571Y-107565237D01*
X157123571Y-107565237D02*
X157171190Y-107660475D01*
X157171190Y-107660475D02*
X157218809Y-107708094D01*
X157218809Y-107708094D02*
X157314047Y-107755713D01*
%TO.C,U2*%
X183348095Y-67022619D02*
X183348095Y-67832142D01*
X183348095Y-67832142D02*
X183395714Y-67927380D01*
X183395714Y-67927380D02*
X183443333Y-67975000D01*
X183443333Y-67975000D02*
X183538571Y-68022619D01*
X183538571Y-68022619D02*
X183729047Y-68022619D01*
X183729047Y-68022619D02*
X183824285Y-67975000D01*
X183824285Y-67975000D02*
X183871904Y-67927380D01*
X183871904Y-67927380D02*
X183919523Y-67832142D01*
X183919523Y-67832142D02*
X183919523Y-67022619D01*
X184348095Y-67117857D02*
X184395714Y-67070238D01*
X184395714Y-67070238D02*
X184490952Y-67022619D01*
X184490952Y-67022619D02*
X184729047Y-67022619D01*
X184729047Y-67022619D02*
X184824285Y-67070238D01*
X184824285Y-67070238D02*
X184871904Y-67117857D01*
X184871904Y-67117857D02*
X184919523Y-67213095D01*
X184919523Y-67213095D02*
X184919523Y-67308333D01*
X184919523Y-67308333D02*
X184871904Y-67451190D01*
X184871904Y-67451190D02*
X184300476Y-68022619D01*
X184300476Y-68022619D02*
X184919523Y-68022619D01*
%TO.C,C5*%
X177593333Y-94037380D02*
X177545714Y-94085000D01*
X177545714Y-94085000D02*
X177402857Y-94132619D01*
X177402857Y-94132619D02*
X177307619Y-94132619D01*
X177307619Y-94132619D02*
X177164762Y-94085000D01*
X177164762Y-94085000D02*
X177069524Y-93989761D01*
X177069524Y-93989761D02*
X177021905Y-93894523D01*
X177021905Y-93894523D02*
X176974286Y-93704047D01*
X176974286Y-93704047D02*
X176974286Y-93561190D01*
X176974286Y-93561190D02*
X177021905Y-93370714D01*
X177021905Y-93370714D02*
X177069524Y-93275476D01*
X177069524Y-93275476D02*
X177164762Y-93180238D01*
X177164762Y-93180238D02*
X177307619Y-93132619D01*
X177307619Y-93132619D02*
X177402857Y-93132619D01*
X177402857Y-93132619D02*
X177545714Y-93180238D01*
X177545714Y-93180238D02*
X177593333Y-93227857D01*
X178498095Y-93132619D02*
X178021905Y-93132619D01*
X178021905Y-93132619D02*
X177974286Y-93608809D01*
X177974286Y-93608809D02*
X178021905Y-93561190D01*
X178021905Y-93561190D02*
X178117143Y-93513571D01*
X178117143Y-93513571D02*
X178355238Y-93513571D01*
X178355238Y-93513571D02*
X178450476Y-93561190D01*
X178450476Y-93561190D02*
X178498095Y-93608809D01*
X178498095Y-93608809D02*
X178545714Y-93704047D01*
X178545714Y-93704047D02*
X178545714Y-93942142D01*
X178545714Y-93942142D02*
X178498095Y-94037380D01*
X178498095Y-94037380D02*
X178450476Y-94085000D01*
X178450476Y-94085000D02*
X178355238Y-94132619D01*
X178355238Y-94132619D02*
X178117143Y-94132619D01*
X178117143Y-94132619D02*
X178021905Y-94085000D01*
X178021905Y-94085000D02*
X177974286Y-94037380D01*
%TO.C,C2*%
X147153333Y-79107380D02*
X147105714Y-79155000D01*
X147105714Y-79155000D02*
X146962857Y-79202619D01*
X146962857Y-79202619D02*
X146867619Y-79202619D01*
X146867619Y-79202619D02*
X146724762Y-79155000D01*
X146724762Y-79155000D02*
X146629524Y-79059761D01*
X146629524Y-79059761D02*
X146581905Y-78964523D01*
X146581905Y-78964523D02*
X146534286Y-78774047D01*
X146534286Y-78774047D02*
X146534286Y-78631190D01*
X146534286Y-78631190D02*
X146581905Y-78440714D01*
X146581905Y-78440714D02*
X146629524Y-78345476D01*
X146629524Y-78345476D02*
X146724762Y-78250238D01*
X146724762Y-78250238D02*
X146867619Y-78202619D01*
X146867619Y-78202619D02*
X146962857Y-78202619D01*
X146962857Y-78202619D02*
X147105714Y-78250238D01*
X147105714Y-78250238D02*
X147153333Y-78297857D01*
X147534286Y-78297857D02*
X147581905Y-78250238D01*
X147581905Y-78250238D02*
X147677143Y-78202619D01*
X147677143Y-78202619D02*
X147915238Y-78202619D01*
X147915238Y-78202619D02*
X148010476Y-78250238D01*
X148010476Y-78250238D02*
X148058095Y-78297857D01*
X148058095Y-78297857D02*
X148105714Y-78393095D01*
X148105714Y-78393095D02*
X148105714Y-78488333D01*
X148105714Y-78488333D02*
X148058095Y-78631190D01*
X148058095Y-78631190D02*
X147486667Y-79202619D01*
X147486667Y-79202619D02*
X148105714Y-79202619D01*
%TO.C,D1*%
X172762619Y-80748094D02*
X171762619Y-80748094D01*
X171762619Y-80748094D02*
X171762619Y-80509999D01*
X171762619Y-80509999D02*
X171810238Y-80367142D01*
X171810238Y-80367142D02*
X171905476Y-80271904D01*
X171905476Y-80271904D02*
X172000714Y-80224285D01*
X172000714Y-80224285D02*
X172191190Y-80176666D01*
X172191190Y-80176666D02*
X172334047Y-80176666D01*
X172334047Y-80176666D02*
X172524523Y-80224285D01*
X172524523Y-80224285D02*
X172619761Y-80271904D01*
X172619761Y-80271904D02*
X172715000Y-80367142D01*
X172715000Y-80367142D02*
X172762619Y-80509999D01*
X172762619Y-80509999D02*
X172762619Y-80748094D01*
X172762619Y-79224285D02*
X172762619Y-79795713D01*
X172762619Y-79509999D02*
X171762619Y-79509999D01*
X171762619Y-79509999D02*
X171905476Y-79605237D01*
X171905476Y-79605237D02*
X172000714Y-79700475D01*
X172000714Y-79700475D02*
X172048333Y-79795713D01*
%TO.C,R3*%
X150963333Y-94612619D02*
X150630000Y-94136428D01*
X150391905Y-94612619D02*
X150391905Y-93612619D01*
X150391905Y-93612619D02*
X150772857Y-93612619D01*
X150772857Y-93612619D02*
X150868095Y-93660238D01*
X150868095Y-93660238D02*
X150915714Y-93707857D01*
X150915714Y-93707857D02*
X150963333Y-93803095D01*
X150963333Y-93803095D02*
X150963333Y-93945952D01*
X150963333Y-93945952D02*
X150915714Y-94041190D01*
X150915714Y-94041190D02*
X150868095Y-94088809D01*
X150868095Y-94088809D02*
X150772857Y-94136428D01*
X150772857Y-94136428D02*
X150391905Y-94136428D01*
X151296667Y-93612619D02*
X151915714Y-93612619D01*
X151915714Y-93612619D02*
X151582381Y-93993571D01*
X151582381Y-93993571D02*
X151725238Y-93993571D01*
X151725238Y-93993571D02*
X151820476Y-94041190D01*
X151820476Y-94041190D02*
X151868095Y-94088809D01*
X151868095Y-94088809D02*
X151915714Y-94184047D01*
X151915714Y-94184047D02*
X151915714Y-94422142D01*
X151915714Y-94422142D02*
X151868095Y-94517380D01*
X151868095Y-94517380D02*
X151820476Y-94565000D01*
X151820476Y-94565000D02*
X151725238Y-94612619D01*
X151725238Y-94612619D02*
X151439524Y-94612619D01*
X151439524Y-94612619D02*
X151344286Y-94565000D01*
X151344286Y-94565000D02*
X151296667Y-94517380D01*
%TO.C,J4*%
X185086666Y-77972619D02*
X185086666Y-78686904D01*
X185086666Y-78686904D02*
X185039047Y-78829761D01*
X185039047Y-78829761D02*
X184943809Y-78925000D01*
X184943809Y-78925000D02*
X184800952Y-78972619D01*
X184800952Y-78972619D02*
X184705714Y-78972619D01*
X185991428Y-78305952D02*
X185991428Y-78972619D01*
X185753333Y-77925000D02*
X185515238Y-78639285D01*
X185515238Y-78639285D02*
X186134285Y-78639285D01*
%TO.C,J3*%
X139366666Y-72892619D02*
X139366666Y-73606904D01*
X139366666Y-73606904D02*
X139319047Y-73749761D01*
X139319047Y-73749761D02*
X139223809Y-73845000D01*
X139223809Y-73845000D02*
X139080952Y-73892619D01*
X139080952Y-73892619D02*
X138985714Y-73892619D01*
X139747619Y-72892619D02*
X140366666Y-72892619D01*
X140366666Y-72892619D02*
X140033333Y-73273571D01*
X140033333Y-73273571D02*
X140176190Y-73273571D01*
X140176190Y-73273571D02*
X140271428Y-73321190D01*
X140271428Y-73321190D02*
X140319047Y-73368809D01*
X140319047Y-73368809D02*
X140366666Y-73464047D01*
X140366666Y-73464047D02*
X140366666Y-73702142D01*
X140366666Y-73702142D02*
X140319047Y-73797380D01*
X140319047Y-73797380D02*
X140271428Y-73845000D01*
X140271428Y-73845000D02*
X140176190Y-73892619D01*
X140176190Y-73892619D02*
X139890476Y-73892619D01*
X139890476Y-73892619D02*
X139795238Y-73845000D01*
X139795238Y-73845000D02*
X139747619Y-73797380D01*
%TO.C,R1*%
X183172619Y-89066666D02*
X182696428Y-89399999D01*
X183172619Y-89638094D02*
X182172619Y-89638094D01*
X182172619Y-89638094D02*
X182172619Y-89257142D01*
X182172619Y-89257142D02*
X182220238Y-89161904D01*
X182220238Y-89161904D02*
X182267857Y-89114285D01*
X182267857Y-89114285D02*
X182363095Y-89066666D01*
X182363095Y-89066666D02*
X182505952Y-89066666D01*
X182505952Y-89066666D02*
X182601190Y-89114285D01*
X182601190Y-89114285D02*
X182648809Y-89161904D01*
X182648809Y-89161904D02*
X182696428Y-89257142D01*
X182696428Y-89257142D02*
X182696428Y-89638094D01*
X183172619Y-88114285D02*
X183172619Y-88685713D01*
X183172619Y-88399999D02*
X182172619Y-88399999D01*
X182172619Y-88399999D02*
X182315476Y-88495237D01*
X182315476Y-88495237D02*
X182410714Y-88590475D01*
X182410714Y-88590475D02*
X182458333Y-88685713D01*
%TO.C,D3*%
X175302619Y-108688094D02*
X174302619Y-108688094D01*
X174302619Y-108688094D02*
X174302619Y-108449999D01*
X174302619Y-108449999D02*
X174350238Y-108307142D01*
X174350238Y-108307142D02*
X174445476Y-108211904D01*
X174445476Y-108211904D02*
X174540714Y-108164285D01*
X174540714Y-108164285D02*
X174731190Y-108116666D01*
X174731190Y-108116666D02*
X174874047Y-108116666D01*
X174874047Y-108116666D02*
X175064523Y-108164285D01*
X175064523Y-108164285D02*
X175159761Y-108211904D01*
X175159761Y-108211904D02*
X175255000Y-108307142D01*
X175255000Y-108307142D02*
X175302619Y-108449999D01*
X175302619Y-108449999D02*
X175302619Y-108688094D01*
X174302619Y-107783332D02*
X174302619Y-107164285D01*
X174302619Y-107164285D02*
X174683571Y-107497618D01*
X174683571Y-107497618D02*
X174683571Y-107354761D01*
X174683571Y-107354761D02*
X174731190Y-107259523D01*
X174731190Y-107259523D02*
X174778809Y-107211904D01*
X174778809Y-107211904D02*
X174874047Y-107164285D01*
X174874047Y-107164285D02*
X175112142Y-107164285D01*
X175112142Y-107164285D02*
X175207380Y-107211904D01*
X175207380Y-107211904D02*
X175255000Y-107259523D01*
X175255000Y-107259523D02*
X175302619Y-107354761D01*
X175302619Y-107354761D02*
X175302619Y-107640475D01*
X175302619Y-107640475D02*
X175255000Y-107735713D01*
X175255000Y-107735713D02*
X175207380Y-107783332D01*
%TO.C,C3*%
X176017380Y-89106666D02*
X176065000Y-89154285D01*
X176065000Y-89154285D02*
X176112619Y-89297142D01*
X176112619Y-89297142D02*
X176112619Y-89392380D01*
X176112619Y-89392380D02*
X176065000Y-89535237D01*
X176065000Y-89535237D02*
X175969761Y-89630475D01*
X175969761Y-89630475D02*
X175874523Y-89678094D01*
X175874523Y-89678094D02*
X175684047Y-89725713D01*
X175684047Y-89725713D02*
X175541190Y-89725713D01*
X175541190Y-89725713D02*
X175350714Y-89678094D01*
X175350714Y-89678094D02*
X175255476Y-89630475D01*
X175255476Y-89630475D02*
X175160238Y-89535237D01*
X175160238Y-89535237D02*
X175112619Y-89392380D01*
X175112619Y-89392380D02*
X175112619Y-89297142D01*
X175112619Y-89297142D02*
X175160238Y-89154285D01*
X175160238Y-89154285D02*
X175207857Y-89106666D01*
X175112619Y-88773332D02*
X175112619Y-88154285D01*
X175112619Y-88154285D02*
X175493571Y-88487618D01*
X175493571Y-88487618D02*
X175493571Y-88344761D01*
X175493571Y-88344761D02*
X175541190Y-88249523D01*
X175541190Y-88249523D02*
X175588809Y-88201904D01*
X175588809Y-88201904D02*
X175684047Y-88154285D01*
X175684047Y-88154285D02*
X175922142Y-88154285D01*
X175922142Y-88154285D02*
X176017380Y-88201904D01*
X176017380Y-88201904D02*
X176065000Y-88249523D01*
X176065000Y-88249523D02*
X176112619Y-88344761D01*
X176112619Y-88344761D02*
X176112619Y-88630475D01*
X176112619Y-88630475D02*
X176065000Y-88725713D01*
X176065000Y-88725713D02*
X176017380Y-88773332D01*
%TO.C,SW2*%
X143446667Y-104325000D02*
X143589524Y-104372619D01*
X143589524Y-104372619D02*
X143827619Y-104372619D01*
X143827619Y-104372619D02*
X143922857Y-104325000D01*
X143922857Y-104325000D02*
X143970476Y-104277380D01*
X143970476Y-104277380D02*
X144018095Y-104182142D01*
X144018095Y-104182142D02*
X144018095Y-104086904D01*
X144018095Y-104086904D02*
X143970476Y-103991666D01*
X143970476Y-103991666D02*
X143922857Y-103944047D01*
X143922857Y-103944047D02*
X143827619Y-103896428D01*
X143827619Y-103896428D02*
X143637143Y-103848809D01*
X143637143Y-103848809D02*
X143541905Y-103801190D01*
X143541905Y-103801190D02*
X143494286Y-103753571D01*
X143494286Y-103753571D02*
X143446667Y-103658333D01*
X143446667Y-103658333D02*
X143446667Y-103563095D01*
X143446667Y-103563095D02*
X143494286Y-103467857D01*
X143494286Y-103467857D02*
X143541905Y-103420238D01*
X143541905Y-103420238D02*
X143637143Y-103372619D01*
X143637143Y-103372619D02*
X143875238Y-103372619D01*
X143875238Y-103372619D02*
X144018095Y-103420238D01*
X144351429Y-103372619D02*
X144589524Y-104372619D01*
X144589524Y-104372619D02*
X144780000Y-103658333D01*
X144780000Y-103658333D02*
X144970476Y-104372619D01*
X144970476Y-104372619D02*
X145208572Y-103372619D01*
X145541905Y-103467857D02*
X145589524Y-103420238D01*
X145589524Y-103420238D02*
X145684762Y-103372619D01*
X145684762Y-103372619D02*
X145922857Y-103372619D01*
X145922857Y-103372619D02*
X146018095Y-103420238D01*
X146018095Y-103420238D02*
X146065714Y-103467857D01*
X146065714Y-103467857D02*
X146113333Y-103563095D01*
X146113333Y-103563095D02*
X146113333Y-103658333D01*
X146113333Y-103658333D02*
X146065714Y-103801190D01*
X146065714Y-103801190D02*
X145494286Y-104372619D01*
X145494286Y-104372619D02*
X146113333Y-104372619D01*
%TO.C,SW1*%
X148526667Y-104325000D02*
X148669524Y-104372619D01*
X148669524Y-104372619D02*
X148907619Y-104372619D01*
X148907619Y-104372619D02*
X149002857Y-104325000D01*
X149002857Y-104325000D02*
X149050476Y-104277380D01*
X149050476Y-104277380D02*
X149098095Y-104182142D01*
X149098095Y-104182142D02*
X149098095Y-104086904D01*
X149098095Y-104086904D02*
X149050476Y-103991666D01*
X149050476Y-103991666D02*
X149002857Y-103944047D01*
X149002857Y-103944047D02*
X148907619Y-103896428D01*
X148907619Y-103896428D02*
X148717143Y-103848809D01*
X148717143Y-103848809D02*
X148621905Y-103801190D01*
X148621905Y-103801190D02*
X148574286Y-103753571D01*
X148574286Y-103753571D02*
X148526667Y-103658333D01*
X148526667Y-103658333D02*
X148526667Y-103563095D01*
X148526667Y-103563095D02*
X148574286Y-103467857D01*
X148574286Y-103467857D02*
X148621905Y-103420238D01*
X148621905Y-103420238D02*
X148717143Y-103372619D01*
X148717143Y-103372619D02*
X148955238Y-103372619D01*
X148955238Y-103372619D02*
X149098095Y-103420238D01*
X149431429Y-103372619D02*
X149669524Y-104372619D01*
X149669524Y-104372619D02*
X149860000Y-103658333D01*
X149860000Y-103658333D02*
X150050476Y-104372619D01*
X150050476Y-104372619D02*
X150288572Y-103372619D01*
X151193333Y-104372619D02*
X150621905Y-104372619D01*
X150907619Y-104372619D02*
X150907619Y-103372619D01*
X150907619Y-103372619D02*
X150812381Y-103515476D01*
X150812381Y-103515476D02*
X150717143Y-103610714D01*
X150717143Y-103610714D02*
X150621905Y-103658333D01*
%TO.C,C1*%
X152273333Y-73717380D02*
X152225714Y-73765000D01*
X152225714Y-73765000D02*
X152082857Y-73812619D01*
X152082857Y-73812619D02*
X151987619Y-73812619D01*
X151987619Y-73812619D02*
X151844762Y-73765000D01*
X151844762Y-73765000D02*
X151749524Y-73669761D01*
X151749524Y-73669761D02*
X151701905Y-73574523D01*
X151701905Y-73574523D02*
X151654286Y-73384047D01*
X151654286Y-73384047D02*
X151654286Y-73241190D01*
X151654286Y-73241190D02*
X151701905Y-73050714D01*
X151701905Y-73050714D02*
X151749524Y-72955476D01*
X151749524Y-72955476D02*
X151844762Y-72860238D01*
X151844762Y-72860238D02*
X151987619Y-72812619D01*
X151987619Y-72812619D02*
X152082857Y-72812619D01*
X152082857Y-72812619D02*
X152225714Y-72860238D01*
X152225714Y-72860238D02*
X152273333Y-72907857D01*
X153225714Y-73812619D02*
X152654286Y-73812619D01*
X152940000Y-73812619D02*
X152940000Y-72812619D01*
X152940000Y-72812619D02*
X152844762Y-72955476D01*
X152844762Y-72955476D02*
X152749524Y-73050714D01*
X152749524Y-73050714D02*
X152654286Y-73098333D01*
%TO.C,U1*%
X164338095Y-73122619D02*
X164338095Y-73932142D01*
X164338095Y-73932142D02*
X164385714Y-74027380D01*
X164385714Y-74027380D02*
X164433333Y-74075000D01*
X164433333Y-74075000D02*
X164528571Y-74122619D01*
X164528571Y-74122619D02*
X164719047Y-74122619D01*
X164719047Y-74122619D02*
X164814285Y-74075000D01*
X164814285Y-74075000D02*
X164861904Y-74027380D01*
X164861904Y-74027380D02*
X164909523Y-73932142D01*
X164909523Y-73932142D02*
X164909523Y-73122619D01*
X165909523Y-74122619D02*
X165338095Y-74122619D01*
X165623809Y-74122619D02*
X165623809Y-73122619D01*
X165623809Y-73122619D02*
X165528571Y-73265476D01*
X165528571Y-73265476D02*
X165433333Y-73360714D01*
X165433333Y-73360714D02*
X165338095Y-73408333D01*
D12*
%TO.C,R4*%
X147860000Y-90070000D02*
X154400000Y-90070000D01*
X147860000Y-90400000D02*
X147860000Y-90070000D01*
X147860000Y-92480000D02*
X147860000Y-92810000D01*
X147860000Y-92810000D02*
X154400000Y-92810000D01*
X154400000Y-90070000D02*
X154400000Y-90400000D01*
X154400000Y-92810000D02*
X154400000Y-92480000D01*
%TO.C,J1*%
X140970000Y-72450000D02*
X143570000Y-72450000D01*
X140970000Y-72450000D02*
X140970000Y-69790000D01*
X143570000Y-72450000D02*
X143570000Y-69790000D01*
X138370000Y-71120000D02*
X138370000Y-69790000D01*
X138370000Y-69790000D02*
X139700000Y-69790000D01*
X140970000Y-69790000D02*
X143570000Y-69790000D01*
%TO.C,R5*%
X154400000Y-87730000D02*
X154400000Y-87400000D01*
X154400000Y-84990000D02*
X154400000Y-85320000D01*
X147860000Y-87730000D02*
X154400000Y-87730000D01*
X147860000Y-87400000D02*
X147860000Y-87730000D01*
X147860000Y-85320000D02*
X147860000Y-84990000D01*
X147860000Y-84990000D02*
X154400000Y-84990000D01*
%TO.C,J2*%
X151130000Y-72450000D02*
X163890000Y-72450000D01*
X151130000Y-72450000D02*
X151130000Y-69790000D01*
X163890000Y-72450000D02*
X163890000Y-69790000D01*
X148530000Y-71120000D02*
X148530000Y-69790000D01*
X148530000Y-69790000D02*
X149860000Y-69790000D01*
X151130000Y-69790000D02*
X163890000Y-69790000D01*
D13*
%TO.C,SW4*%
X166760000Y-69120000D02*
X178760000Y-69120000D01*
X178760000Y-69120000D02*
X178760000Y-73120000D01*
X178760000Y-73120000D02*
X166760000Y-73120000D01*
X166760000Y-73120000D02*
X166760000Y-69120000D01*
D12*
%TO.C,R2*%
X154400000Y-102970000D02*
X154400000Y-102640000D01*
X154400000Y-100230000D02*
X154400000Y-100560000D01*
X147860000Y-102970000D02*
X154400000Y-102970000D01*
X147860000Y-102640000D02*
X147860000Y-102970000D01*
X147860000Y-100560000D02*
X147860000Y-100230000D01*
X147860000Y-100230000D02*
X154400000Y-100230000D01*
%TO.C,D2*%
X179035515Y-104429999D02*
G75*
G03*
X178878608Y-101197666I-1235515J1559999D01*
G01*
X178879999Y-103910960D02*
G75*
G03*
X178879836Y-101828871I-1079999J1040960D01*
G01*
X176720164Y-101828871D02*
G75*
G03*
X176720001Y-103910960I1079836J-1041129D01*
G01*
X176721392Y-101197666D02*
G75*
G03*
X176564485Y-104429999I1078608J-1672334D01*
G01*
X178880000Y-104430000D02*
X179036000Y-104430000D01*
X176564000Y-104430000D02*
X176720000Y-104430000D01*
%TO.C,C4*%
X179770000Y-75030000D02*
X179770000Y-75275000D01*
X179770000Y-75030000D02*
X183410000Y-75030000D01*
X179770000Y-77125000D02*
X179770000Y-77370000D01*
X179770000Y-77370000D02*
X183410000Y-77370000D01*
X183410000Y-75030000D02*
X183410000Y-75275000D01*
X183410000Y-77125000D02*
X183410000Y-77370000D01*
%TO.C,C6*%
X156150000Y-106150000D02*
X155905000Y-106150000D01*
X156150000Y-106150000D02*
X156150000Y-109790000D01*
X154055000Y-106150000D02*
X153810000Y-106150000D01*
X153810000Y-106150000D02*
X153810000Y-109790000D01*
X156150000Y-109790000D02*
X155905000Y-109790000D01*
X154055000Y-109790000D02*
X153810000Y-109790000D01*
%TO.C,U2*%
X182170000Y-72820000D02*
X186020000Y-72820000D01*
X186058611Y-72810122D02*
G75*
G03*
X182170000Y-72820000I-1948611J1690122D01*
G01*
%TO.C,C5*%
X175090000Y-94799000D02*
X175090000Y-95465000D01*
X175090000Y-94799000D02*
X180430000Y-94799000D01*
X175090000Y-97575000D02*
X175090000Y-98241000D01*
X175090000Y-98241000D02*
X180430000Y-98241000D01*
X180430000Y-94799000D02*
X180430000Y-95465000D01*
X180430000Y-97575000D02*
X180430000Y-98241000D01*
%TO.C,C2*%
X155110000Y-82335000D02*
X155110000Y-83001000D01*
X155110000Y-79559000D02*
X155110000Y-80225000D01*
X149770000Y-83001000D02*
X155110000Y-83001000D01*
X149770000Y-82335000D02*
X149770000Y-83001000D01*
X149770000Y-79559000D02*
X155110000Y-79559000D01*
X149770000Y-79559000D02*
X149770000Y-80225000D01*
%TO.C,D1*%
X174024000Y-81570000D02*
X174180000Y-81570000D01*
X176340000Y-81570000D02*
X176496000Y-81570000D01*
X174181392Y-78337666D02*
G75*
G03*
X174024485Y-81569999I1078608J-1672334D01*
G01*
X174180164Y-78968871D02*
G75*
G03*
X174180001Y-81050960I1079836J-1041129D01*
G01*
X176339999Y-81050960D02*
G75*
G03*
X176339836Y-78968871I-1079999J1040960D01*
G01*
X176495515Y-81569999D02*
G75*
G03*
X176338608Y-78337666I-1235515J1559999D01*
G01*
%TO.C,R3*%
X154400000Y-97890000D02*
X154400000Y-97560000D01*
X154400000Y-95150000D02*
X154400000Y-95480000D01*
X147860000Y-97890000D02*
X154400000Y-97890000D01*
X147860000Y-97560000D02*
X147860000Y-97890000D01*
X147860000Y-95480000D02*
X147860000Y-95150000D01*
X147860000Y-95150000D02*
X154400000Y-95150000D01*
%TO.C,J4*%
X184090000Y-82550000D02*
X184090000Y-110550000D01*
X184090000Y-82550000D02*
X186750000Y-82550000D01*
X184090000Y-110550000D02*
X186750000Y-110550000D01*
X185420000Y-79950000D02*
X186750000Y-79950000D01*
X186750000Y-79950000D02*
X186750000Y-81280000D01*
X186750000Y-82550000D02*
X186750000Y-110550000D01*
%TO.C,J3*%
X138370000Y-77470000D02*
X138370000Y-105470000D01*
X138370000Y-77470000D02*
X141030000Y-77470000D01*
X138370000Y-105470000D02*
X141030000Y-105470000D01*
X139700000Y-74870000D02*
X141030000Y-74870000D01*
X141030000Y-74870000D02*
X141030000Y-76200000D01*
X141030000Y-77470000D02*
X141030000Y-105470000D01*
%TO.C,R1*%
X181710000Y-85630000D02*
X181710000Y-92170000D01*
X181380000Y-85630000D02*
X181710000Y-85630000D01*
X179300000Y-85630000D02*
X178970000Y-85630000D01*
X178970000Y-85630000D02*
X178970000Y-92170000D01*
X181710000Y-92170000D02*
X181380000Y-92170000D01*
X178970000Y-92170000D02*
X179300000Y-92170000D01*
%TO.C,D3*%
X179035515Y-109509999D02*
G75*
G03*
X178878608Y-106277666I-1235515J1559999D01*
G01*
X178879999Y-108990960D02*
G75*
G03*
X178879836Y-106908871I-1079999J1040960D01*
G01*
X176720164Y-106908871D02*
G75*
G03*
X176720001Y-108990960I1079836J-1041129D01*
G01*
X176721392Y-106277666D02*
G75*
G03*
X176564485Y-109509999I1078608J-1672334D01*
G01*
X178880000Y-109510000D02*
X179036000Y-109510000D01*
X176564000Y-109510000D02*
X176720000Y-109510000D01*
%TO.C,C3*%
X174521000Y-86270000D02*
X173855000Y-86270000D01*
X174521000Y-86270000D02*
X174521000Y-91610000D01*
X171745000Y-86270000D02*
X171079000Y-86270000D01*
X171079000Y-86270000D02*
X171079000Y-91610000D01*
X174521000Y-91610000D02*
X173855000Y-91610000D01*
X171745000Y-91610000D02*
X171079000Y-91610000D01*
%TO.C,SW2*%
X142780000Y-108680000D02*
X142780000Y-112680000D01*
X142780000Y-108680000D02*
X146780000Y-108680000D01*
X142780000Y-112680000D02*
X146780000Y-112680000D01*
X144780000Y-105350000D02*
X146110000Y-105350000D01*
X146110000Y-105350000D02*
X146110000Y-106680000D01*
X146780000Y-108680000D02*
X146780000Y-112680000D01*
%TO.C,SW1*%
X147860000Y-108680000D02*
X147860000Y-112680000D01*
X147860000Y-108680000D02*
X151860000Y-108680000D01*
X147860000Y-112680000D02*
X151860000Y-112680000D01*
X149860000Y-105350000D02*
X151190000Y-105350000D01*
X151190000Y-105350000D02*
X151190000Y-106680000D01*
X151860000Y-108680000D02*
X151860000Y-112680000D01*
%TO.C,C1*%
X155110000Y-77255000D02*
X155110000Y-77921000D01*
X155110000Y-74479000D02*
X155110000Y-75145000D01*
X149770000Y-77921000D02*
X155110000Y-77921000D01*
X149770000Y-77255000D02*
X149770000Y-77921000D01*
X149770000Y-74479000D02*
X155110000Y-74479000D01*
X149770000Y-74479000D02*
X149770000Y-75145000D01*
%TO.C,U1*%
X158690000Y-74810000D02*
X158690000Y-110610000D01*
X158690000Y-110610000D02*
X168970000Y-110610000D01*
X161180000Y-74870000D02*
X161180000Y-110550000D01*
X161180000Y-110550000D02*
X166480000Y-110550000D01*
X162830000Y-74870000D02*
X161180000Y-74870000D01*
X166480000Y-74870000D02*
X164830000Y-74870000D01*
X166480000Y-110550000D02*
X166480000Y-74870000D01*
X168970000Y-74810000D02*
X158690000Y-74810000D01*
X168970000Y-110610000D02*
X168970000Y-74810000D01*
X162830000Y-74870000D02*
G75*
G03*
X164830000Y-74870000I1000000J0D01*
G01*
%TD*%
D14*
X137560000Y-66040000D02*
X187560000Y-66040000D01*
X187560000Y-116040000D01*
X137560000Y-116040000D01*
X137560000Y-66040000D01*
M02*
