%TF.GenerationSoftware,KiCad,Pcbnew,7.0.1*%
%TF.CreationDate,2023-04-13T23:32:15-05:00*%
%TF.ProjectId,hw4.2,6877342e-322e-46b6-9963-61645f706362,rev?*%
%TF.SameCoordinates,Original*%
%TF.FileFunction,Copper,L2,Bot*%
%TF.FilePolarity,Positive*%
%FSLAX46Y46*%
G04 Gerber Fmt 4.6, Leading zero omitted, Abs format (unit mm)*
G04 Created by KiCad (PCBNEW 7.0.1) date 2023-04-13 23:32:15*
%MOMM*%
%LPD*%
G01*
G04 APERTURE LIST*
%TA.AperFunction,ComponentPad*%
%ADD10C,1.600000*%
%TD*%
%TA.AperFunction,ComponentPad*%
%ADD11O,1.600000X1.600000*%
%TD*%
%TA.AperFunction,ComponentPad*%
%ADD12R,1.700000X1.700000*%
%TD*%
%TA.AperFunction,ComponentPad*%
%ADD13O,1.700000X1.700000*%
%TD*%
%TA.AperFunction,ComponentPad*%
%ADD14C,1.700000*%
%TD*%
%TA.AperFunction,ComponentPad*%
%ADD15C,1.800000*%
%TD*%
%TA.AperFunction,ComponentPad*%
%ADD16R,1.800000X1.800000*%
%TD*%
%TA.AperFunction,ComponentPad*%
%ADD17R,1.050000X1.500000*%
%TD*%
%TA.AperFunction,ComponentPad*%
%ADD18O,1.050000X1.500000*%
%TD*%
%TA.AperFunction,ComponentPad*%
%ADD19R,1.600000X1.600000*%
%TD*%
%TA.AperFunction,ViaPad*%
%ADD20C,0.800000*%
%TD*%
%TA.AperFunction,Conductor*%
%ADD21C,0.250000*%
%TD*%
%TA.AperFunction,Profile*%
%ADD22C,0.100000*%
%TD*%
G04 APERTURE END LIST*
D10*
%TO.P,R4,1*%
%TO.N,+3.3V*%
X147320000Y-91440000D03*
D11*
%TO.P,R4,2*%
%TO.N,/MCLR*%
X154940000Y-91440000D03*
%TD*%
D12*
%TO.P,J1,1,Pin_1*%
%TO.N,Net-(J1-Pin_1)*%
X139700000Y-71120000D03*
D13*
%TO.P,J1,2,Pin_2*%
%TO.N,GND1*%
X142240000Y-71120000D03*
%TD*%
D11*
%TO.P,R5,2*%
%TO.N,/USER*%
X154940000Y-86360000D03*
D10*
%TO.P,R5,1*%
%TO.N,+3.3V*%
X147320000Y-86360000D03*
%TD*%
D12*
%TO.P,J2,1,Pin_1*%
%TO.N,unconnected-(J2-Pin_1-Pad1)*%
X149860000Y-71120000D03*
D13*
%TO.P,J2,2,Pin_2*%
%TO.N,/U1TX*%
X152400000Y-71120000D03*
%TO.P,J2,3,Pin_3*%
%TO.N,/U1RX*%
X154940000Y-71120000D03*
%TO.P,J2,4,Pin_4*%
%TO.N,+5V*%
X157480000Y-71120000D03*
%TO.P,J2,5,Pin_5*%
%TO.N,unconnected-(J2-Pin_5-Pad5)*%
X160020000Y-71120000D03*
%TO.P,J2,6,Pin_6*%
%TO.N,GND1*%
X162560000Y-71120000D03*
%TD*%
D14*
%TO.P,SW4,1,A*%
%TO.N,+5V*%
X170260000Y-71120000D03*
%TO.P,SW4,2,B*%
%TO.N,/Vin*%
X172760000Y-71120000D03*
%TO.P,SW4,3,C*%
%TO.N,Net-(J1-Pin_1)*%
X175260000Y-71120000D03*
%TD*%
D11*
%TO.P,R2,2*%
%TO.N,/GREEN*%
X154940000Y-101600000D03*
D10*
%TO.P,R2,1*%
%TO.N,Net-(D2-K)*%
X147320000Y-101600000D03*
%TD*%
D15*
%TO.P,D2,2,A*%
%TO.N,+3.3V*%
X177800000Y-101600000D03*
D16*
%TO.P,D2,1,K*%
%TO.N,Net-(D2-K)*%
X177800000Y-104140000D03*
%TD*%
D10*
%TO.P,C4,1*%
%TO.N,+3.3V*%
X180340000Y-76200000D03*
%TO.P,C4,2*%
%TO.N,GND1*%
X182840000Y-76200000D03*
%TD*%
%TO.P,C6,1*%
%TO.N,+3.3V*%
X154980000Y-106720000D03*
%TO.P,C6,2*%
%TO.N,GND1*%
X154980000Y-109220000D03*
%TD*%
D17*
%TO.P,U2,1,VO*%
%TO.N,+3.3V*%
X182920000Y-71120000D03*
D18*
%TO.P,U2,2,GND*%
%TO.N,GND1*%
X184190000Y-71120000D03*
%TO.P,U2,3,VI*%
%TO.N,/Vin*%
X185460000Y-71120000D03*
%TD*%
D10*
%TO.P,C5,1*%
%TO.N,Net-(U1-VCAP)*%
X175260000Y-96520000D03*
%TO.P,C5,2*%
%TO.N,GND1*%
X180260000Y-96520000D03*
%TD*%
%TO.P,C2,2*%
%TO.N,GND1*%
X154940000Y-81280000D03*
%TO.P,C2,1*%
%TO.N,+3.3V*%
X149940000Y-81280000D03*
%TD*%
D16*
%TO.P,D1,1,K*%
%TO.N,Net-(D1-K)*%
X175260000Y-81280000D03*
D15*
%TO.P,D1,2,A*%
%TO.N,+3.3V*%
X175260000Y-78740000D03*
%TD*%
D11*
%TO.P,R3,2*%
%TO.N,/YELLOW*%
X154940000Y-96520000D03*
D10*
%TO.P,R3,1*%
%TO.N,Net-(D3-K)*%
X147320000Y-96520000D03*
%TD*%
D12*
%TO.P,J4,1,Pin_1*%
%TO.N,/B15*%
X185420000Y-81280000D03*
D13*
%TO.P,J4,2,Pin_2*%
%TO.N,/B14*%
X185420000Y-83820000D03*
%TO.P,J4,3,Pin_3*%
%TO.N,/B13*%
X185420000Y-86360000D03*
%TO.P,J4,4,Pin_4*%
%TO.N,/B12*%
X185420000Y-88900000D03*
%TO.P,J4,5,Pin_5*%
%TO.N,/B11*%
X185420000Y-91440000D03*
%TO.P,J4,6,Pin_6*%
%TO.N,/B10*%
X185420000Y-93980000D03*
%TO.P,J4,7,Pin_7*%
%TO.N,/B9*%
X185420000Y-96520000D03*
%TO.P,J4,8,Pin_8*%
%TO.N,/B8*%
X185420000Y-99060000D03*
%TO.P,J4,9,Pin_9*%
%TO.N,/B7*%
X185420000Y-101600000D03*
%TO.P,J4,10,Pin_10*%
%TO.N,/Vin*%
X185420000Y-104140000D03*
%TO.P,J4,11,Pin_11*%
%TO.N,+3.3V*%
X185420000Y-106680000D03*
%TO.P,J4,12,Pin_12*%
%TO.N,GND1*%
X185420000Y-109220000D03*
%TD*%
D12*
%TO.P,J3,1,Pin_1*%
%TO.N,/A0*%
X139700000Y-76200000D03*
D13*
%TO.P,J3,2,Pin_2*%
%TO.N,/A1*%
X139700000Y-78740000D03*
%TO.P,J3,3,Pin_3*%
%TO.N,/B0*%
X139700000Y-81280000D03*
%TO.P,J3,4,Pin_4*%
%TO.N,/B1*%
X139700000Y-83820000D03*
%TO.P,J3,5,Pin_5*%
%TO.N,/B2*%
X139700000Y-86360000D03*
%TO.P,J3,6,Pin_6*%
%TO.N,/A3*%
X139700000Y-88900000D03*
%TO.P,J3,7,Pin_7*%
%TO.N,/GREEN*%
X139700000Y-91440000D03*
%TO.P,J3,8,Pin_8*%
%TO.N,/YELLOW*%
X139700000Y-93980000D03*
%TO.P,J3,9,Pin_9*%
%TO.N,/B6*%
X139700000Y-96520000D03*
%TO.P,J3,10,Pin_10*%
%TO.N,/Vin*%
X139700000Y-99060000D03*
%TO.P,J3,11,Pin_11*%
%TO.N,+3.3V*%
X139700000Y-101600000D03*
%TO.P,J3,12,Pin_12*%
%TO.N,GND1*%
X139700000Y-104140000D03*
%TD*%
D10*
%TO.P,R1,1*%
%TO.N,Net-(D1-K)*%
X180340000Y-85090000D03*
D11*
%TO.P,R1,2*%
%TO.N,GND1*%
X180340000Y-92710000D03*
%TD*%
D15*
%TO.P,D3,2,A*%
%TO.N,+3.3V*%
X177800000Y-106680000D03*
D16*
%TO.P,D3,1,K*%
%TO.N,Net-(D3-K)*%
X177800000Y-109220000D03*
%TD*%
D10*
%TO.P,C3,1*%
%TO.N,/Vin*%
X172800000Y-86440000D03*
%TO.P,C3,2*%
%TO.N,GND1*%
X172800000Y-91440000D03*
%TD*%
D12*
%TO.P,SW2,1,1*%
%TO.N,GND1*%
X144780000Y-106680000D03*
D13*
%TO.P,SW2,2,2*%
%TO.N,/USER*%
X144780000Y-111760000D03*
%TD*%
D12*
%TO.P,SW1,1,1*%
%TO.N,GND1*%
X149860000Y-106680000D03*
D13*
%TO.P,SW1,2,2*%
%TO.N,/MCLR*%
X149860000Y-111760000D03*
%TD*%
D10*
%TO.P,C1,2*%
%TO.N,GND1*%
X154940000Y-76200000D03*
%TO.P,C1,1*%
%TO.N,+3.3V*%
X149940000Y-76200000D03*
%TD*%
D19*
%TO.P,U1,1,~{MCLR}*%
%TO.N,/MCLR*%
X160020000Y-76200000D03*
D11*
%TO.P,U1,2,A0*%
%TO.N,/A0*%
X160020000Y-78740000D03*
%TO.P,U1,3,A1*%
%TO.N,/A1*%
X160020000Y-81280000D03*
%TO.P,U1,4,B0*%
%TO.N,/B0*%
X160020000Y-83820000D03*
%TO.P,U1,5,B1*%
%TO.N,/B1*%
X160020000Y-86360000D03*
%TO.P,U1,6,B2*%
%TO.N,/B2*%
X160020000Y-88900000D03*
%TO.P,U1,7,B3*%
%TO.N,/U1TX*%
X160020000Y-91440000D03*
%TO.P,U1,8,VSS*%
%TO.N,GND1*%
X160020000Y-93980000D03*
%TO.P,U1,9,A2*%
%TO.N,/U1RX*%
X160020000Y-96520000D03*
%TO.P,U1,10,A3*%
%TO.N,/A3*%
X160020000Y-99060000D03*
%TO.P,U1,11,B4*%
%TO.N,/GREEN*%
X160020000Y-101600000D03*
%TO.P,U1,12,A4*%
%TO.N,/USER*%
X160020000Y-104140000D03*
%TO.P,U1,13,VDD*%
%TO.N,+3.3V*%
X160020000Y-106680000D03*
%TO.P,U1,14,B5*%
%TO.N,/YELLOW*%
X160020000Y-109220000D03*
%TO.P,U1,15,B6*%
%TO.N,/B6*%
X167640000Y-109220000D03*
%TO.P,U1,16,B7*%
%TO.N,/B7*%
X167640000Y-106680000D03*
%TO.P,U1,17,B8*%
%TO.N,/B8*%
X167640000Y-104140000D03*
%TO.P,U1,18,B9*%
%TO.N,/B9*%
X167640000Y-101600000D03*
%TO.P,U1,19,VSS*%
%TO.N,GND1*%
X167640000Y-99060000D03*
%TO.P,U1,20,VCAP*%
%TO.N,Net-(U1-VCAP)*%
X167640000Y-96520000D03*
%TO.P,U1,21,B10*%
%TO.N,/B10*%
X167640000Y-93980000D03*
%TO.P,U1,22,B11*%
%TO.N,/B11*%
X167640000Y-91440000D03*
%TO.P,U1,23,B12*%
%TO.N,/B12*%
X167640000Y-88900000D03*
%TO.P,U1,24,B13*%
%TO.N,/B13*%
X167640000Y-86360000D03*
%TO.P,U1,25,B14*%
%TO.N,/B14*%
X167640000Y-83820000D03*
%TO.P,U1,26,B15*%
%TO.N,/B15*%
X167640000Y-81280000D03*
%TO.P,U1,27,AVSS*%
%TO.N,GND1*%
X167640000Y-78740000D03*
%TO.P,U1,28,AVDD*%
%TO.N,+3.3V*%
X167640000Y-76200000D03*
%TD*%
D20*
%TO.N,/Vin*%
X170180000Y-75475500D03*
%TO.N,+3.3V*%
X170180000Y-106680000D03*
X173232300Y-102112300D03*
X180340000Y-71120000D03*
X180340000Y-74384500D03*
%TO.N,/Vin*%
X172720000Y-104140000D03*
X170180000Y-86360000D03*
X175260000Y-86360000D03*
X182880000Y-104140000D03*
%TO.N,/GREEN*%
X141515500Y-99060000D03*
X142240000Y-93980000D03*
%TO.N,/U1TX*%
X152400000Y-73660000D03*
X158479503Y-91440000D03*
%TO.N,/U1RX*%
X154940000Y-73660000D03*
X157992299Y-96007701D03*
%TO.N,/USER*%
X145292300Y-104652300D03*
%TO.N,Net-(D2-K)*%
X175260000Y-104140000D03*
X141149503Y-104140000D03*
%TO.N,Net-(D3-K)*%
X146229500Y-96520000D03*
X172720000Y-109220000D03*
%TO.N,Net-(D1-K)*%
X177800000Y-81280000D03*
X177800000Y-84544500D03*
%TO.N,/USER*%
X147320000Y-87759503D03*
X147320000Y-111760000D03*
%TO.N,/MCLR*%
X152400000Y-111760000D03*
%TO.N,/B6*%
X141727700Y-97032300D03*
X142240000Y-112935000D03*
%TO.N,/YELLOW*%
X156967700Y-97032300D03*
X157480000Y-109220000D03*
%TO.N,+3.3V*%
X147320000Y-81280000D03*
X147320000Y-76200000D03*
X144780000Y-86360000D03*
X144780000Y-101600000D03*
X144780000Y-91440000D03*
%TO.N,/MCLR*%
X157480000Y-91440000D03*
X157480000Y-76200000D03*
%TD*%
D21*
%TO.N,/Vin*%
X170180000Y-75475500D02*
X170180000Y-86360000D01*
%TO.N,+3.3V*%
X172720000Y-106680000D02*
X170180000Y-106680000D01*
X173445000Y-105955000D02*
X172720000Y-106680000D01*
X173445000Y-102325000D02*
X173445000Y-105955000D01*
X173232300Y-102112300D02*
X173445000Y-102325000D01*
X180340000Y-74384500D02*
X180340000Y-71120000D01*
%TO.N,/Vin*%
X170180000Y-101600000D02*
X170180000Y-86360000D01*
X172720000Y-104140000D02*
X170180000Y-101600000D01*
X175260000Y-89220991D02*
X175260000Y-86360000D01*
X180019009Y-93980000D02*
X175260000Y-89220991D01*
X180340000Y-93980000D02*
X180019009Y-93980000D01*
X182880000Y-104140000D02*
X182880000Y-96520000D01*
X182880000Y-96520000D02*
X180340000Y-93980000D01*
%TO.N,/GREEN*%
X142240000Y-93980000D02*
X141002700Y-95217300D01*
X141002700Y-95217300D02*
X141002700Y-98547200D01*
X141002700Y-98547200D02*
X141515500Y-99060000D01*
%TO.N,/U1TX*%
X153125000Y-72935000D02*
X152400000Y-73660000D01*
X156755000Y-72935000D02*
X153125000Y-72935000D01*
X157480000Y-73660000D02*
X156755000Y-72935000D01*
X158479503Y-74659503D02*
X157480000Y-73660000D01*
X158479503Y-91440000D02*
X158479503Y-74659503D01*
%TO.N,/U1RX*%
X156692700Y-75412700D02*
X154940000Y-73660000D01*
X156692700Y-94708102D02*
X156692700Y-75412700D01*
X157992299Y-96007701D02*
X156692700Y-94708102D01*
%TO.N,/USER*%
X145292300Y-104652300D02*
X147320000Y-106680000D01*
X147320000Y-111760000D02*
X147320000Y-106680000D01*
X147320000Y-106680000D02*
X147320000Y-104140000D01*
%TO.N,Net-(D2-K)*%
X142240000Y-114300000D02*
X172720000Y-114300000D01*
X141149503Y-113209503D02*
X142240000Y-114300000D01*
X175260000Y-114300000D02*
X175260000Y-104140000D01*
X141149503Y-104140000D02*
X141149503Y-113209503D01*
X172720000Y-114300000D02*
X175260000Y-114300000D01*
%TO.N,Net-(D3-K)*%
X146229500Y-97610500D02*
X146229500Y-96520000D01*
X146195000Y-97645000D02*
X146229500Y-97610500D01*
X146195000Y-102378604D02*
X146195000Y-97645000D01*
X147638198Y-103821802D02*
X146195000Y-102378604D01*
X149351802Y-103821802D02*
X147638198Y-103821802D01*
X151675000Y-112060305D02*
X151675000Y-106145000D01*
X172720000Y-109220000D02*
X169455000Y-112485000D01*
X169455000Y-112485000D02*
X152099695Y-112485000D01*
X151675000Y-106145000D02*
X149351802Y-103821802D01*
X152099695Y-112485000D02*
X151675000Y-112060305D01*
%TO.N,Net-(D1-K)*%
X177800000Y-84544500D02*
X177800000Y-81280000D01*
%TO.N,/USER*%
X145505000Y-89574503D02*
X147320000Y-87759503D01*
X145505000Y-102325000D02*
X145505000Y-89574503D01*
X147320000Y-104140000D02*
X145505000Y-102325000D01*
%TO.N,/MCLR*%
X152400000Y-111760000D02*
X152400000Y-106680000D01*
X156242700Y-102837300D02*
X156242700Y-92742700D01*
X156242700Y-92742700D02*
X154940000Y-91440000D01*
X152400000Y-106680000D02*
X156242700Y-102837300D01*
%TO.N,/B6*%
X142240000Y-97544600D02*
X142240000Y-112935000D01*
X141727700Y-97032300D02*
X142240000Y-97544600D01*
%TO.N,/YELLOW*%
X157480000Y-97544600D02*
X157480000Y-109220000D01*
X156967700Y-97032300D02*
X157480000Y-97544600D01*
%TO.N,+3.3V*%
X147320000Y-81280000D02*
X144780000Y-81280000D01*
X144780000Y-81280000D02*
X144780000Y-86360000D01*
X144780000Y-78740000D02*
X144780000Y-81280000D01*
X147320000Y-76200000D02*
X144780000Y-78740000D01*
X144780000Y-86360000D02*
X144780000Y-91440000D01*
X144780000Y-91440000D02*
X144780000Y-101600000D01*
%TO.N,/MCLR*%
X157480000Y-76200000D02*
X157480000Y-91440000D01*
%TD*%
%TA.AperFunction,Conductor*%
%TO.N,GND1*%
G36*
X187497500Y-66057113D02*
G01*
X187542887Y-66102500D01*
X187559500Y-66164500D01*
X187559500Y-115915500D01*
X187542887Y-115977500D01*
X187497500Y-116022887D01*
X187435500Y-116039500D01*
X137684500Y-116039500D01*
X137622500Y-116022887D01*
X137577113Y-115977500D01*
X137560500Y-115915500D01*
X137560500Y-104390000D01*
X138369364Y-104390000D01*
X138426569Y-104603492D01*
X138526399Y-104817576D01*
X138661893Y-105011081D01*
X138828918Y-105178106D01*
X139022423Y-105313600D01*
X139236507Y-105413430D01*
X139449999Y-105470635D01*
X139450000Y-105470636D01*
X139450000Y-104390000D01*
X138369364Y-104390000D01*
X137560500Y-104390000D01*
X137560500Y-101600000D01*
X138344340Y-101600000D01*
X138364936Y-101835407D01*
X138405399Y-101986416D01*
X138426097Y-102063663D01*
X138525965Y-102277830D01*
X138661505Y-102471401D01*
X138828599Y-102638495D01*
X139014597Y-102768732D01*
X139053460Y-102813048D01*
X139067471Y-102870305D01*
X139053461Y-102927561D01*
X139014595Y-102971880D01*
X138828919Y-103101892D01*
X138661890Y-103268921D01*
X138526400Y-103462421D01*
X138426569Y-103676507D01*
X138369364Y-103889999D01*
X138369364Y-103890000D01*
X139826000Y-103890000D01*
X139888000Y-103906613D01*
X139933387Y-103952000D01*
X139950000Y-104014000D01*
X139950000Y-105470635D01*
X140163492Y-105413430D01*
X140347598Y-105327580D01*
X140408113Y-105316227D01*
X140466628Y-105335381D01*
X140508717Y-105380319D01*
X140524003Y-105439962D01*
X140524003Y-113126759D01*
X140521738Y-113147265D01*
X140523942Y-113217376D01*
X140524003Y-113221271D01*
X140524003Y-113248852D01*
X140524506Y-113252837D01*
X140525421Y-113264470D01*
X140526793Y-113308129D01*
X140532382Y-113327363D01*
X140536328Y-113346419D01*
X140538838Y-113366295D01*
X140554917Y-113406907D01*
X140558700Y-113417954D01*
X140570885Y-113459894D01*
X140581083Y-113477138D01*
X140589639Y-113494603D01*
X140597017Y-113513235D01*
X140597018Y-113513236D01*
X140622683Y-113548562D01*
X140629096Y-113558325D01*
X140651329Y-113595919D01*
X140651332Y-113595922D01*
X140651333Y-113595923D01*
X140665498Y-113610088D01*
X140678130Y-113624878D01*
X140689909Y-113641090D01*
X140723561Y-113668929D01*
X140732202Y-113676792D01*
X141739197Y-114683787D01*
X141752098Y-114699889D01*
X141754212Y-114701874D01*
X141754214Y-114701877D01*
X141801561Y-114746339D01*
X141803240Y-114747916D01*
X141806036Y-114750626D01*
X141825530Y-114770120D01*
X141828704Y-114772582D01*
X141837568Y-114780153D01*
X141869418Y-114810062D01*
X141879315Y-114815503D01*
X141886974Y-114819714D01*
X141903231Y-114830392D01*
X141919064Y-114842674D01*
X141935185Y-114849649D01*
X141959156Y-114860023D01*
X141969643Y-114865160D01*
X142007908Y-114886197D01*
X142027316Y-114891180D01*
X142045710Y-114897478D01*
X142064105Y-114905438D01*
X142107254Y-114912271D01*
X142118680Y-114914638D01*
X142127029Y-114916782D01*
X142160980Y-114925500D01*
X142160981Y-114925500D01*
X142181016Y-114925500D01*
X142200413Y-114927026D01*
X142220196Y-114930160D01*
X142263674Y-114926050D01*
X142275344Y-114925500D01*
X172640981Y-114925500D01*
X172759350Y-114925500D01*
X175189151Y-114925500D01*
X175212385Y-114927696D01*
X175220412Y-114929227D01*
X175275759Y-114925745D01*
X175283545Y-114925500D01*
X175299351Y-114925500D01*
X175303582Y-114924965D01*
X175315036Y-114923517D01*
X175322738Y-114922788D01*
X175378138Y-114919304D01*
X175385902Y-114916781D01*
X175408676Y-114911689D01*
X175416792Y-114910664D01*
X175468396Y-114890231D01*
X175475671Y-114887612D01*
X175528441Y-114870467D01*
X175535337Y-114866090D01*
X175556132Y-114855494D01*
X175563732Y-114852486D01*
X175608624Y-114819869D01*
X175615026Y-114815517D01*
X175661877Y-114785786D01*
X175667461Y-114779838D01*
X175684979Y-114764394D01*
X175691587Y-114759594D01*
X175691588Y-114759591D01*
X175691590Y-114759591D01*
X175726938Y-114716861D01*
X175732080Y-114711027D01*
X175770062Y-114670582D01*
X175773999Y-114663418D01*
X175787119Y-114644114D01*
X175792324Y-114637823D01*
X175815942Y-114587630D01*
X175819467Y-114580711D01*
X175846197Y-114532092D01*
X175848228Y-114524177D01*
X175856132Y-114502223D01*
X175859614Y-114494826D01*
X175870010Y-114440325D01*
X175871698Y-114432768D01*
X175885500Y-114379019D01*
X175885500Y-114370849D01*
X175887696Y-114347615D01*
X175889227Y-114339587D01*
X175885745Y-114284241D01*
X175885500Y-114276455D01*
X175885500Y-104838687D01*
X175893736Y-104794249D01*
X175917347Y-104755717D01*
X175992533Y-104672216D01*
X176004032Y-104652300D01*
X176087179Y-104508284D01*
X176087179Y-104508283D01*
X176145674Y-104328256D01*
X176152180Y-104266348D01*
X176173925Y-104208191D01*
X176221141Y-104167864D01*
X176281989Y-104155484D01*
X176341210Y-104174156D01*
X176383953Y-104219197D01*
X176399500Y-104279314D01*
X176399500Y-105087869D01*
X176405909Y-105147484D01*
X176417474Y-105178491D01*
X176456204Y-105282331D01*
X176542454Y-105397546D01*
X176657669Y-105483796D01*
X176737905Y-105513722D01*
X176787441Y-105547737D01*
X176815168Y-105601047D01*
X176814575Y-105661134D01*
X176785802Y-105713887D01*
X176691020Y-105816848D01*
X176564076Y-106011150D01*
X176470844Y-106223696D01*
X176470842Y-106223700D01*
X176470843Y-106223700D01*
X176414394Y-106446613D01*
X176413865Y-106448700D01*
X176394699Y-106680000D01*
X176413865Y-106911299D01*
X176413865Y-106911301D01*
X176413866Y-106911305D01*
X176468361Y-107126497D01*
X176470844Y-107136303D01*
X176557007Y-107332734D01*
X176564076Y-107348849D01*
X176691021Y-107543153D01*
X176785803Y-107646114D01*
X176814575Y-107698865D01*
X176815168Y-107758951D01*
X176787441Y-107812261D01*
X176737906Y-107846276D01*
X176657671Y-107876202D01*
X176542454Y-107962454D01*
X176456204Y-108077668D01*
X176405909Y-108212516D01*
X176399500Y-108272130D01*
X176399500Y-110167869D01*
X176405909Y-110227484D01*
X176431056Y-110294907D01*
X176456204Y-110362331D01*
X176542454Y-110477546D01*
X176657669Y-110563796D01*
X176792517Y-110614091D01*
X176852127Y-110620500D01*
X178747872Y-110620499D01*
X178807483Y-110614091D01*
X178942331Y-110563796D01*
X179057546Y-110477546D01*
X179143796Y-110362331D01*
X179194091Y-110227483D01*
X179200500Y-110167873D01*
X179200500Y-109470000D01*
X184089364Y-109470000D01*
X184146569Y-109683492D01*
X184246399Y-109897576D01*
X184381893Y-110091081D01*
X184548918Y-110258106D01*
X184742423Y-110393600D01*
X184956507Y-110493430D01*
X185169999Y-110550635D01*
X185170000Y-110550636D01*
X185170000Y-109470000D01*
X185670000Y-109470000D01*
X185670000Y-110550635D01*
X185883492Y-110493430D01*
X186097576Y-110393600D01*
X186291081Y-110258106D01*
X186458106Y-110091081D01*
X186593600Y-109897576D01*
X186693430Y-109683492D01*
X186750636Y-109470000D01*
X185670000Y-109470000D01*
X185170000Y-109470000D01*
X184089364Y-109470000D01*
X179200500Y-109470000D01*
X179200499Y-108272128D01*
X179194091Y-108212517D01*
X179143796Y-108077669D01*
X179057546Y-107962454D01*
X178942331Y-107876204D01*
X178882893Y-107854035D01*
X178862093Y-107846277D01*
X178812558Y-107812261D01*
X178784831Y-107758951D01*
X178785424Y-107698864D01*
X178814196Y-107646114D01*
X178908979Y-107543153D01*
X179035924Y-107348849D01*
X179129157Y-107136300D01*
X179186134Y-106911305D01*
X179205300Y-106680000D01*
X179205300Y-106679999D01*
X184064340Y-106679999D01*
X184084936Y-106915407D01*
X184129709Y-107082502D01*
X184146097Y-107143663D01*
X184245965Y-107357830D01*
X184381505Y-107551401D01*
X184548599Y-107718495D01*
X184734597Y-107848732D01*
X184773460Y-107893048D01*
X184787471Y-107950305D01*
X184773461Y-108007561D01*
X184734595Y-108051880D01*
X184548919Y-108181892D01*
X184381890Y-108348921D01*
X184246400Y-108542421D01*
X184146569Y-108756507D01*
X184089364Y-108969999D01*
X184089364Y-108970000D01*
X186750636Y-108970000D01*
X186750635Y-108969999D01*
X186693430Y-108756507D01*
X186593599Y-108542421D01*
X186458109Y-108348921D01*
X186291081Y-108181893D01*
X186105404Y-108051880D01*
X186066539Y-108007562D01*
X186052528Y-107950305D01*
X186066539Y-107893048D01*
X186105402Y-107848732D01*
X186291401Y-107718495D01*
X186458495Y-107551401D01*
X186594035Y-107357830D01*
X186693903Y-107143663D01*
X186755063Y-106915408D01*
X186775659Y-106680000D01*
X186755063Y-106444592D01*
X186693903Y-106216337D01*
X186594035Y-106002171D01*
X186458495Y-105808599D01*
X186291401Y-105641505D01*
X186105839Y-105511573D01*
X186066975Y-105467257D01*
X186052964Y-105410000D01*
X186066975Y-105352743D01*
X186105839Y-105308426D01*
X186291401Y-105178495D01*
X186458495Y-105011401D01*
X186594035Y-104817830D01*
X186693903Y-104603663D01*
X186755063Y-104375408D01*
X186775659Y-104140000D01*
X186755063Y-103904592D01*
X186693903Y-103676337D01*
X186594035Y-103462171D01*
X186458495Y-103268599D01*
X186291401Y-103101505D01*
X186105839Y-102971573D01*
X186066974Y-102927255D01*
X186052964Y-102869999D01*
X186066975Y-102812742D01*
X186105837Y-102768428D01*
X186291401Y-102638495D01*
X186458495Y-102471401D01*
X186594035Y-102277830D01*
X186693903Y-102063663D01*
X186755063Y-101835408D01*
X186775659Y-101600000D01*
X186755063Y-101364592D01*
X186693903Y-101136337D01*
X186594035Y-100922171D01*
X186458495Y-100728599D01*
X186291401Y-100561505D01*
X186105839Y-100431573D01*
X186066974Y-100387255D01*
X186052964Y-100329999D01*
X186066975Y-100272742D01*
X186105837Y-100228428D01*
X186291401Y-100098495D01*
X186458495Y-99931401D01*
X186594035Y-99737830D01*
X186693903Y-99523663D01*
X186755063Y-99295408D01*
X186775659Y-99060000D01*
X186755063Y-98824592D01*
X186693903Y-98596337D01*
X186594035Y-98382171D01*
X186458495Y-98188599D01*
X186291401Y-98021505D01*
X186105839Y-97891573D01*
X186066976Y-97847257D01*
X186052965Y-97790000D01*
X186066976Y-97732743D01*
X186105839Y-97688426D01*
X186291401Y-97558495D01*
X186458495Y-97391401D01*
X186594035Y-97197830D01*
X186693903Y-96983663D01*
X186755063Y-96755408D01*
X186775659Y-96520000D01*
X186773916Y-96500083D01*
X186755063Y-96284592D01*
X186716309Y-96139960D01*
X186693903Y-96056337D01*
X186594035Y-95842171D01*
X186458495Y-95648599D01*
X186291401Y-95481505D01*
X186105839Y-95351573D01*
X186066975Y-95307257D01*
X186052964Y-95250000D01*
X186066975Y-95192743D01*
X186105839Y-95148426D01*
X186291401Y-95018495D01*
X186458495Y-94851401D01*
X186594035Y-94657830D01*
X186693903Y-94443663D01*
X186755063Y-94215408D01*
X186775659Y-93980000D01*
X186755063Y-93744592D01*
X186693903Y-93516337D01*
X186594035Y-93302171D01*
X186458495Y-93108599D01*
X186291401Y-92941505D01*
X186105839Y-92811573D01*
X186066974Y-92767255D01*
X186052964Y-92709999D01*
X186066975Y-92652742D01*
X186105837Y-92608428D01*
X186291401Y-92478495D01*
X186458495Y-92311401D01*
X186594035Y-92117830D01*
X186693903Y-91903663D01*
X186755063Y-91675408D01*
X186775659Y-91440000D01*
X186755063Y-91204592D01*
X186693903Y-90976337D01*
X186594035Y-90762171D01*
X186458495Y-90568599D01*
X186291401Y-90401505D01*
X186105839Y-90271573D01*
X186066975Y-90227257D01*
X186052964Y-90170000D01*
X186066975Y-90112743D01*
X186105839Y-90068426D01*
X186291401Y-89938495D01*
X186458495Y-89771401D01*
X186594035Y-89577830D01*
X186693903Y-89363663D01*
X186755063Y-89135408D01*
X186775659Y-88900000D01*
X186755063Y-88664592D01*
X186693903Y-88436337D01*
X186594035Y-88222171D01*
X186458495Y-88028599D01*
X186291401Y-87861505D01*
X186105839Y-87731573D01*
X186066975Y-87687257D01*
X186052964Y-87630000D01*
X186066975Y-87572743D01*
X186105839Y-87528426D01*
X186291401Y-87398495D01*
X186458495Y-87231401D01*
X186594035Y-87037830D01*
X186693903Y-86823663D01*
X186755063Y-86595408D01*
X186775659Y-86360000D01*
X186755063Y-86124592D01*
X186693903Y-85896337D01*
X186594035Y-85682171D01*
X186458495Y-85488599D01*
X186291401Y-85321505D01*
X186105839Y-85191573D01*
X186066975Y-85147257D01*
X186052964Y-85090000D01*
X186066975Y-85032743D01*
X186105839Y-84988426D01*
X186291401Y-84858495D01*
X186458495Y-84691401D01*
X186594035Y-84497830D01*
X186693903Y-84283663D01*
X186755063Y-84055408D01*
X186775659Y-83820000D01*
X186755063Y-83584592D01*
X186693903Y-83356337D01*
X186594035Y-83142171D01*
X186458495Y-82948599D01*
X186336569Y-82826672D01*
X186305273Y-82773927D01*
X186303084Y-82712634D01*
X186330537Y-82657789D01*
X186380916Y-82622810D01*
X186512331Y-82573796D01*
X186627546Y-82487546D01*
X186713796Y-82372331D01*
X186764091Y-82237483D01*
X186770500Y-82177873D01*
X186770499Y-80382128D01*
X186764091Y-80322517D01*
X186713796Y-80187669D01*
X186627546Y-80072454D01*
X186512331Y-79986204D01*
X186377483Y-79935909D01*
X186317873Y-79929500D01*
X186317869Y-79929500D01*
X184522130Y-79929500D01*
X184462515Y-79935909D01*
X184327669Y-79986204D01*
X184212454Y-80072454D01*
X184126204Y-80187668D01*
X184075909Y-80322515D01*
X184075909Y-80322517D01*
X184069783Y-80379500D01*
X184069500Y-80382130D01*
X184069500Y-82177869D01*
X184074876Y-82227872D01*
X184075909Y-82237483D01*
X184126204Y-82372331D01*
X184212454Y-82487546D01*
X184327669Y-82573796D01*
X184417383Y-82607257D01*
X184459082Y-82622810D01*
X184509462Y-82657789D01*
X184536915Y-82712634D01*
X184534726Y-82773926D01*
X184503431Y-82826673D01*
X184381503Y-82948601D01*
X184245965Y-83142170D01*
X184146097Y-83356336D01*
X184084936Y-83584592D01*
X184064340Y-83820000D01*
X184084936Y-84055407D01*
X184094193Y-84089953D01*
X184146097Y-84283663D01*
X184245965Y-84497830D01*
X184381505Y-84691401D01*
X184548599Y-84858495D01*
X184734160Y-84988426D01*
X184773024Y-85032743D01*
X184787035Y-85090000D01*
X184773024Y-85147257D01*
X184734158Y-85191575D01*
X184612955Y-85276443D01*
X184548595Y-85321508D01*
X184381505Y-85488598D01*
X184245965Y-85682170D01*
X184146097Y-85896336D01*
X184084936Y-86124592D01*
X184064340Y-86360000D01*
X184084936Y-86595407D01*
X184129709Y-86762501D01*
X184146097Y-86823663D01*
X184245965Y-87037830D01*
X184381505Y-87231401D01*
X184548599Y-87398495D01*
X184734160Y-87528426D01*
X184773024Y-87572743D01*
X184787035Y-87630000D01*
X184773024Y-87687257D01*
X184734158Y-87731575D01*
X184612955Y-87816443D01*
X184548595Y-87861508D01*
X184381505Y-88028598D01*
X184245965Y-88222170D01*
X184146097Y-88436336D01*
X184084936Y-88664592D01*
X184064340Y-88899999D01*
X184084936Y-89135407D01*
X184118412Y-89260340D01*
X184146097Y-89363663D01*
X184245965Y-89577830D01*
X184381505Y-89771401D01*
X184548599Y-89938495D01*
X184734160Y-90068426D01*
X184773024Y-90112743D01*
X184787035Y-90170000D01*
X184773024Y-90227257D01*
X184734158Y-90271575D01*
X184606487Y-90360972D01*
X184548595Y-90401508D01*
X184381505Y-90568598D01*
X184245965Y-90762170D01*
X184146097Y-90976336D01*
X184084936Y-91204592D01*
X184064340Y-91439999D01*
X184084936Y-91675407D01*
X184129709Y-91842502D01*
X184146097Y-91903663D01*
X184245965Y-92117830D01*
X184381505Y-92311401D01*
X184548599Y-92478495D01*
X184734160Y-92608426D01*
X184773024Y-92652743D01*
X184787035Y-92710000D01*
X184773024Y-92767257D01*
X184734159Y-92811575D01*
X184548595Y-92941508D01*
X184381505Y-93108598D01*
X184245965Y-93302170D01*
X184146097Y-93516336D01*
X184084936Y-93744592D01*
X184064340Y-93980000D01*
X184084936Y-94215407D01*
X184127289Y-94373469D01*
X184146097Y-94443663D01*
X184245965Y-94657830D01*
X184381505Y-94851401D01*
X184548599Y-95018495D01*
X184734160Y-95148426D01*
X184773024Y-95192743D01*
X184787035Y-95250000D01*
X184773024Y-95307257D01*
X184734158Y-95351575D01*
X184550322Y-95480299D01*
X184548595Y-95481508D01*
X184381505Y-95648598D01*
X184245965Y-95842170D01*
X184146097Y-96056336D01*
X184084936Y-96284592D01*
X184064340Y-96519999D01*
X184084936Y-96755407D01*
X184125877Y-96908201D01*
X184146097Y-96983663D01*
X184245965Y-97197830D01*
X184381505Y-97391401D01*
X184548599Y-97558495D01*
X184734160Y-97688426D01*
X184773024Y-97732743D01*
X184787035Y-97790000D01*
X184773024Y-97847257D01*
X184734159Y-97891575D01*
X184548595Y-98021508D01*
X184381505Y-98188598D01*
X184245965Y-98382170D01*
X184146097Y-98596336D01*
X184084936Y-98824592D01*
X184064340Y-99060000D01*
X184084936Y-99295407D01*
X184129709Y-99462502D01*
X184146097Y-99523663D01*
X184245965Y-99737830D01*
X184381505Y-99931401D01*
X184548599Y-100098495D01*
X184734160Y-100228426D01*
X184773024Y-100272743D01*
X184787035Y-100330000D01*
X184773024Y-100387257D01*
X184734159Y-100431575D01*
X184548595Y-100561508D01*
X184381505Y-100728598D01*
X184245965Y-100922170D01*
X184146097Y-101136336D01*
X184084936Y-101364592D01*
X184064340Y-101600000D01*
X184084936Y-101835407D01*
X184125399Y-101986416D01*
X184146097Y-102063663D01*
X184245965Y-102277830D01*
X184381505Y-102471401D01*
X184548599Y-102638495D01*
X184734160Y-102768426D01*
X184773024Y-102812743D01*
X184787035Y-102870000D01*
X184773024Y-102927257D01*
X184734159Y-102971575D01*
X184725700Y-102977498D01*
X184594462Y-103069392D01*
X184548595Y-103101508D01*
X184381505Y-103268598D01*
X184245965Y-103462170D01*
X184146097Y-103676336D01*
X184084936Y-103904592D01*
X184064340Y-104140000D01*
X184084936Y-104375407D01*
X184120813Y-104509302D01*
X184146097Y-104603663D01*
X184245965Y-104817830D01*
X184381505Y-105011401D01*
X184548599Y-105178495D01*
X184734160Y-105308426D01*
X184773024Y-105352743D01*
X184787035Y-105410000D01*
X184773024Y-105467257D01*
X184734159Y-105511575D01*
X184548595Y-105641508D01*
X184381505Y-105808598D01*
X184245965Y-106002170D01*
X184146097Y-106216336D01*
X184084936Y-106444592D01*
X184064340Y-106679999D01*
X179205300Y-106679999D01*
X179186134Y-106448695D01*
X179129157Y-106223700D01*
X179035924Y-106011151D01*
X178959784Y-105894610D01*
X178908980Y-105816848D01*
X178901385Y-105808598D01*
X178814195Y-105713884D01*
X178785424Y-105661134D01*
X178784831Y-105601047D01*
X178812558Y-105547737D01*
X178862092Y-105513722D01*
X178942331Y-105483796D01*
X179057546Y-105397546D01*
X179143796Y-105282331D01*
X179194091Y-105147483D01*
X179200500Y-105087873D01*
X179200499Y-103192128D01*
X179194091Y-103132517D01*
X179143796Y-102997669D01*
X179057546Y-102882454D01*
X178942331Y-102796204D01*
X178882893Y-102774035D01*
X178862093Y-102766277D01*
X178812558Y-102732261D01*
X178784831Y-102678951D01*
X178785424Y-102618864D01*
X178814196Y-102566114D01*
X178908979Y-102463153D01*
X179035924Y-102268849D01*
X179129157Y-102056300D01*
X179186134Y-101831305D01*
X179205300Y-101600000D01*
X179186134Y-101368695D01*
X179129157Y-101143700D01*
X179035924Y-100931151D01*
X178908979Y-100736847D01*
X178751784Y-100566087D01*
X178568626Y-100423530D01*
X178364503Y-100313064D01*
X178364499Y-100313062D01*
X178364498Y-100313062D01*
X178144984Y-100237702D01*
X177973282Y-100209050D01*
X177916049Y-100199500D01*
X177683951Y-100199500D01*
X177638164Y-100207140D01*
X177455015Y-100237702D01*
X177235501Y-100313062D01*
X177235497Y-100313063D01*
X177235497Y-100313064D01*
X177204714Y-100329723D01*
X177031372Y-100423531D01*
X176848215Y-100566087D01*
X176691020Y-100736848D01*
X176564076Y-100931150D01*
X176470844Y-101143696D01*
X176470842Y-101143700D01*
X176470843Y-101143700D01*
X176420903Y-101340909D01*
X176413865Y-101368700D01*
X176394699Y-101600000D01*
X176413865Y-101831299D01*
X176413865Y-101831301D01*
X176413866Y-101831305D01*
X176468361Y-102046497D01*
X176470844Y-102056303D01*
X176475663Y-102067289D01*
X176564076Y-102268849D01*
X176691021Y-102463153D01*
X176785803Y-102566114D01*
X176814575Y-102618865D01*
X176815168Y-102678951D01*
X176787441Y-102732261D01*
X176737906Y-102766276D01*
X176657671Y-102796202D01*
X176542454Y-102882454D01*
X176456204Y-102997668D01*
X176405909Y-103132516D01*
X176404757Y-103143228D01*
X176399553Y-103191642D01*
X176399500Y-103192131D01*
X176399500Y-104000684D01*
X176383953Y-104060800D01*
X176341210Y-104105842D01*
X176281989Y-104124514D01*
X176221142Y-104112134D01*
X176173925Y-104071807D01*
X176152180Y-104013648D01*
X176145674Y-103951744D01*
X176115332Y-103858363D01*
X176087179Y-103771715D01*
X175992533Y-103607783D01*
X175865870Y-103467110D01*
X175712730Y-103355848D01*
X175539802Y-103278855D01*
X175354648Y-103239500D01*
X175354646Y-103239500D01*
X175165354Y-103239500D01*
X175165352Y-103239500D01*
X174980197Y-103278855D01*
X174807269Y-103355848D01*
X174654129Y-103467110D01*
X174527466Y-103607783D01*
X174432820Y-103771715D01*
X174374326Y-103951742D01*
X174354540Y-104140000D01*
X174374326Y-104328257D01*
X174432820Y-104508284D01*
X174527464Y-104672213D01*
X174545548Y-104692297D01*
X174602652Y-104755717D01*
X174626264Y-104794249D01*
X174634500Y-104838687D01*
X174634500Y-113550500D01*
X174617887Y-113612500D01*
X174572500Y-113657887D01*
X174510500Y-113674500D01*
X172799019Y-113674500D01*
X143064403Y-113674500D01*
X143009269Y-113661568D01*
X142965634Y-113625471D01*
X142942600Y-113573737D01*
X142944970Y-113517156D01*
X142966170Y-113478591D01*
X142966017Y-113478503D01*
X142970235Y-113471196D01*
X142972251Y-113467530D01*
X142972533Y-113467216D01*
X143067179Y-113303284D01*
X143067178Y-113303284D01*
X143125674Y-113123256D01*
X143145460Y-112935000D01*
X143125674Y-112746744D01*
X143067179Y-112566716D01*
X143067179Y-112566715D01*
X142972535Y-112402786D01*
X142937645Y-112364037D01*
X142897347Y-112319282D01*
X142873736Y-112280751D01*
X142865500Y-112236313D01*
X142865500Y-111759999D01*
X143424340Y-111759999D01*
X143444936Y-111995407D01*
X143489709Y-112162501D01*
X143506097Y-112223663D01*
X143605965Y-112437830D01*
X143741505Y-112631401D01*
X143908599Y-112798495D01*
X144102170Y-112934035D01*
X144316337Y-113033903D01*
X144544592Y-113095063D01*
X144780000Y-113115659D01*
X145015408Y-113095063D01*
X145243663Y-113033903D01*
X145457830Y-112934035D01*
X145651401Y-112798495D01*
X145818495Y-112631401D01*
X145954035Y-112437830D01*
X146053903Y-112223663D01*
X146115063Y-111995408D01*
X146135659Y-111760000D01*
X146115063Y-111524592D01*
X146053903Y-111296337D01*
X145954035Y-111082171D01*
X145818495Y-110888599D01*
X145651401Y-110721505D01*
X145457830Y-110585965D01*
X145243663Y-110486097D01*
X145182502Y-110469709D01*
X145015407Y-110424936D01*
X144780000Y-110404340D01*
X144544592Y-110424936D01*
X144316336Y-110486097D01*
X144102170Y-110585965D01*
X143908598Y-110721505D01*
X143741505Y-110888598D01*
X143605965Y-111082170D01*
X143506097Y-111296336D01*
X143444936Y-111524592D01*
X143424340Y-111759999D01*
X142865500Y-111759999D01*
X142865500Y-106930000D01*
X143430000Y-106930000D01*
X143430000Y-107577824D01*
X143436402Y-107637375D01*
X143486647Y-107772089D01*
X143572811Y-107887188D01*
X143687910Y-107973352D01*
X143822624Y-108023597D01*
X143882176Y-108030000D01*
X144530000Y-108030000D01*
X144530000Y-106930000D01*
X145030000Y-106930000D01*
X145030000Y-108030000D01*
X145677824Y-108030000D01*
X145737375Y-108023597D01*
X145872089Y-107973352D01*
X145987188Y-107887188D01*
X146073352Y-107772089D01*
X146123597Y-107637375D01*
X146130000Y-107577824D01*
X146130000Y-106930000D01*
X145030000Y-106930000D01*
X144530000Y-106930000D01*
X143430000Y-106930000D01*
X142865500Y-106930000D01*
X142865500Y-106430000D01*
X143430000Y-106430000D01*
X146134047Y-106430000D01*
X146181500Y-106439439D01*
X146221728Y-106466319D01*
X146658181Y-106902772D01*
X146685061Y-106943000D01*
X146694500Y-106990453D01*
X146694500Y-111061313D01*
X146686264Y-111105751D01*
X146662652Y-111144282D01*
X146629545Y-111181051D01*
X146587464Y-111227786D01*
X146492820Y-111391715D01*
X146434326Y-111571742D01*
X146414540Y-111760000D01*
X146434326Y-111948257D01*
X146492820Y-112128284D01*
X146587466Y-112292216D01*
X146714129Y-112432889D01*
X146867269Y-112544151D01*
X147040197Y-112621144D01*
X147225352Y-112660500D01*
X147225354Y-112660500D01*
X147414646Y-112660500D01*
X147414648Y-112660500D01*
X147551547Y-112631401D01*
X147599803Y-112621144D01*
X147772730Y-112544151D01*
X147844659Y-112491892D01*
X147925870Y-112432889D01*
X148052533Y-112292216D01*
X148147179Y-112128284D01*
X148190353Y-111995408D01*
X148205674Y-111948256D01*
X148225460Y-111760000D01*
X148205674Y-111571744D01*
X148147179Y-111391716D01*
X148147179Y-111391715D01*
X148052535Y-111227786D01*
X148039427Y-111213229D01*
X147977347Y-111144282D01*
X147953736Y-111105751D01*
X147945500Y-111061313D01*
X147945500Y-106930000D01*
X148510000Y-106930000D01*
X148510000Y-107577824D01*
X148516402Y-107637375D01*
X148566647Y-107772089D01*
X148652811Y-107887188D01*
X148767910Y-107973352D01*
X148902624Y-108023597D01*
X148962176Y-108030000D01*
X149610000Y-108030000D01*
X149610000Y-106930000D01*
X148510000Y-106930000D01*
X147945500Y-106930000D01*
X147945500Y-106762744D01*
X147947764Y-106742237D01*
X147945561Y-106672127D01*
X147945500Y-106668232D01*
X147945500Y-104571302D01*
X147962113Y-104509302D01*
X148007500Y-104463915D01*
X148069500Y-104447302D01*
X149041350Y-104447302D01*
X149088803Y-104456741D01*
X149129031Y-104483621D01*
X149763729Y-105118319D01*
X149793979Y-105167682D01*
X149798521Y-105225398D01*
X149776366Y-105278885D01*
X149732343Y-105316485D01*
X149676048Y-105330000D01*
X148962176Y-105330000D01*
X148902624Y-105336402D01*
X148767910Y-105386647D01*
X148652811Y-105472811D01*
X148566647Y-105587910D01*
X148516402Y-105722624D01*
X148510000Y-105782176D01*
X148510000Y-106430000D01*
X149986000Y-106430000D01*
X150048000Y-106446613D01*
X150093387Y-106492000D01*
X150110000Y-106554000D01*
X150110000Y-108030000D01*
X150757824Y-108030000D01*
X150817375Y-108023597D01*
X150882166Y-107999432D01*
X150940953Y-107992581D01*
X150996220Y-108013758D01*
X151035376Y-108058139D01*
X151049500Y-108115614D01*
X151049500Y-110740242D01*
X151035985Y-110796537D01*
X150998385Y-110840560D01*
X150944898Y-110862715D01*
X150887182Y-110858173D01*
X150837819Y-110827923D01*
X150731404Y-110721508D01*
X150731401Y-110721505D01*
X150537830Y-110585965D01*
X150323663Y-110486097D01*
X150262502Y-110469709D01*
X150095407Y-110424936D01*
X149860000Y-110404340D01*
X149624592Y-110424936D01*
X149396336Y-110486097D01*
X149182170Y-110585965D01*
X148988598Y-110721505D01*
X148821505Y-110888598D01*
X148685965Y-111082170D01*
X148586097Y-111296336D01*
X148524936Y-111524592D01*
X148504340Y-111760000D01*
X148524936Y-111995407D01*
X148569709Y-112162501D01*
X148586097Y-112223663D01*
X148685965Y-112437830D01*
X148821505Y-112631401D01*
X148988599Y-112798495D01*
X149182170Y-112934035D01*
X149396337Y-113033903D01*
X149624592Y-113095063D01*
X149860000Y-113115659D01*
X150095408Y-113095063D01*
X150323663Y-113033903D01*
X150537830Y-112934035D01*
X150731401Y-112798495D01*
X150898495Y-112631401D01*
X151004059Y-112480640D01*
X151047897Y-112442026D01*
X151104550Y-112427769D01*
X151161445Y-112441034D01*
X151205950Y-112478877D01*
X151215406Y-112491892D01*
X151249058Y-112519731D01*
X151257699Y-112527594D01*
X151598889Y-112868784D01*
X151611789Y-112884886D01*
X151662918Y-112932900D01*
X151665714Y-112935610D01*
X151685224Y-112955120D01*
X151688406Y-112957588D01*
X151697266Y-112965155D01*
X151729113Y-112995062D01*
X151746665Y-113004711D01*
X151762933Y-113015397D01*
X151778759Y-113027673D01*
X151818841Y-113045017D01*
X151829328Y-113050155D01*
X151867602Y-113071197D01*
X151876105Y-113073379D01*
X151887003Y-113076178D01*
X151905408Y-113082478D01*
X151923799Y-113090437D01*
X151966945Y-113097270D01*
X151978363Y-113099635D01*
X152020676Y-113110500D01*
X152040711Y-113110500D01*
X152060110Y-113112027D01*
X152079891Y-113115160D01*
X152123369Y-113111050D01*
X152135039Y-113110500D01*
X169372256Y-113110500D01*
X169392762Y-113112764D01*
X169395665Y-113112672D01*
X169395667Y-113112673D01*
X169462872Y-113110561D01*
X169466768Y-113110500D01*
X169494349Y-113110500D01*
X169494350Y-113110500D01*
X169498319Y-113109998D01*
X169509965Y-113109080D01*
X169553627Y-113107709D01*
X169572859Y-113102120D01*
X169591918Y-113098174D01*
X169599099Y-113097267D01*
X169611792Y-113095664D01*
X169652407Y-113079582D01*
X169663444Y-113075803D01*
X169705390Y-113063618D01*
X169722629Y-113053422D01*
X169740102Y-113044862D01*
X169758732Y-113037486D01*
X169794064Y-113011814D01*
X169803830Y-113005400D01*
X169841418Y-112983171D01*
X169841417Y-112983171D01*
X169841420Y-112983170D01*
X169855585Y-112969004D01*
X169870373Y-112956373D01*
X169886587Y-112944594D01*
X169914438Y-112910926D01*
X169922279Y-112902309D01*
X172667771Y-110156819D01*
X172708000Y-110129939D01*
X172755453Y-110120500D01*
X172814648Y-110120500D01*
X172938084Y-110094262D01*
X172999803Y-110081144D01*
X173172730Y-110004151D01*
X173253495Y-109945472D01*
X173325870Y-109892889D01*
X173452533Y-109752216D01*
X173547179Y-109588284D01*
X173593186Y-109446689D01*
X173605674Y-109408256D01*
X173625460Y-109220000D01*
X173605674Y-109031744D01*
X173547179Y-108851716D01*
X173547179Y-108851715D01*
X173452533Y-108687783D01*
X173325870Y-108547110D01*
X173172730Y-108435848D01*
X172999802Y-108358855D01*
X172814648Y-108319500D01*
X172814646Y-108319500D01*
X172625354Y-108319500D01*
X172625352Y-108319500D01*
X172440197Y-108358855D01*
X172267269Y-108435848D01*
X172114129Y-108547110D01*
X171987466Y-108687783D01*
X171892820Y-108851715D01*
X171834326Y-109031742D01*
X171816679Y-109199649D01*
X171805279Y-109240070D01*
X171781039Y-109274368D01*
X169232228Y-111823181D01*
X169192000Y-111850061D01*
X169144547Y-111859500D01*
X153427568Y-111859500D01*
X153369354Y-111844985D01*
X153324767Y-111804840D01*
X153304247Y-111748461D01*
X153285674Y-111571744D01*
X153227179Y-111391716D01*
X153227179Y-111391715D01*
X153132535Y-111227786D01*
X153119427Y-111213229D01*
X153057347Y-111144282D01*
X153033736Y-111105751D01*
X153025500Y-111061313D01*
X153025500Y-110299026D01*
X154254526Y-110299026D01*
X154327515Y-110350133D01*
X154533673Y-110446266D01*
X154753397Y-110505141D01*
X154980000Y-110524966D01*
X155206602Y-110505141D01*
X155426326Y-110446266D01*
X155632480Y-110350134D01*
X155705472Y-110299025D01*
X154980001Y-109573553D01*
X154980000Y-109573553D01*
X154254526Y-110299025D01*
X154254526Y-110299026D01*
X153025500Y-110299026D01*
X153025500Y-109220000D01*
X153675033Y-109220000D01*
X153694858Y-109446602D01*
X153753733Y-109666326D01*
X153849866Y-109872484D01*
X153900972Y-109945471D01*
X153900974Y-109945472D01*
X154626446Y-109220001D01*
X155333553Y-109220001D01*
X156059025Y-109945472D01*
X156110134Y-109872480D01*
X156206266Y-109666326D01*
X156265141Y-109446602D01*
X156284966Y-109220000D01*
X156265141Y-108993397D01*
X156206266Y-108773673D01*
X156110133Y-108567515D01*
X156059025Y-108494526D01*
X155333553Y-109220000D01*
X155333553Y-109220001D01*
X154626446Y-109220001D01*
X154626446Y-109220000D01*
X153900973Y-108494526D01*
X153900973Y-108494527D01*
X153849865Y-108567516D01*
X153753733Y-108773672D01*
X153694858Y-108993397D01*
X153675033Y-109220000D01*
X153025500Y-109220000D01*
X153025500Y-106990452D01*
X153034939Y-106942999D01*
X153061819Y-106902771D01*
X153244591Y-106719999D01*
X153474853Y-106489736D01*
X153526278Y-106458837D01*
X153586192Y-106455697D01*
X153640568Y-106481053D01*
X153676675Y-106528968D01*
X153686060Y-106588226D01*
X153674531Y-106719999D01*
X153694364Y-106946689D01*
X153753261Y-107166497D01*
X153849432Y-107372735D01*
X153979953Y-107559140D01*
X154140859Y-107720046D01*
X154327264Y-107850567D01*
X154327265Y-107850567D01*
X154327266Y-107850568D01*
X154342975Y-107857893D01*
X154395150Y-107903649D01*
X154414570Y-107970274D01*
X154395151Y-108036899D01*
X154342977Y-108082656D01*
X154327517Y-108089865D01*
X154254527Y-108140973D01*
X154254526Y-108140973D01*
X154980000Y-108866446D01*
X154980001Y-108866446D01*
X155705472Y-108140974D01*
X155705471Y-108140972D01*
X155632483Y-108089866D01*
X155617023Y-108082657D01*
X155564847Y-108036899D01*
X155545428Y-107970273D01*
X155564849Y-107903647D01*
X155617023Y-107857893D01*
X155632734Y-107850568D01*
X155819139Y-107720047D01*
X155980047Y-107559139D01*
X156110568Y-107372734D01*
X156206739Y-107166496D01*
X156265635Y-106946692D01*
X156285468Y-106720000D01*
X156265635Y-106493308D01*
X156206739Y-106273504D01*
X156110568Y-106067266D01*
X156101629Y-106054500D01*
X155980046Y-105880859D01*
X155819140Y-105719953D01*
X155632735Y-105589432D01*
X155426497Y-105493261D01*
X155206689Y-105434364D01*
X154979999Y-105414531D01*
X154848226Y-105426060D01*
X154788968Y-105416675D01*
X154741053Y-105380568D01*
X154715697Y-105326192D01*
X154718837Y-105266278D01*
X154749736Y-105214853D01*
X156626489Y-103338100D01*
X156647735Y-103321081D01*
X156657813Y-103314687D01*
X156658534Y-103315823D01*
X156689231Y-103295798D01*
X156747586Y-103289912D01*
X156802119Y-103311503D01*
X156840629Y-103355741D01*
X156854500Y-103412729D01*
X156854500Y-108521313D01*
X156846264Y-108565751D01*
X156822652Y-108604282D01*
X156789545Y-108641051D01*
X156747464Y-108687786D01*
X156652820Y-108851715D01*
X156594326Y-109031742D01*
X156574540Y-109219999D01*
X156594326Y-109408257D01*
X156652820Y-109588284D01*
X156747466Y-109752216D01*
X156874129Y-109892889D01*
X157027269Y-110004151D01*
X157200197Y-110081144D01*
X157385352Y-110120500D01*
X157385354Y-110120500D01*
X157574646Y-110120500D01*
X157574648Y-110120500D01*
X157698084Y-110094262D01*
X157759803Y-110081144D01*
X157932730Y-110004151D01*
X158013495Y-109945472D01*
X158085870Y-109892889D01*
X158212533Y-109752216D01*
X158307179Y-109588284D01*
X158353186Y-109446689D01*
X158365674Y-109408256D01*
X158385460Y-109220000D01*
X158365674Y-109031744D01*
X158307179Y-108851716D01*
X158307179Y-108851715D01*
X158212535Y-108687786D01*
X158199427Y-108673229D01*
X158137347Y-108604282D01*
X158113736Y-108565751D01*
X158105500Y-108521313D01*
X158105500Y-97627344D01*
X158107764Y-97606836D01*
X158105561Y-97536713D01*
X158105500Y-97532819D01*
X158105500Y-97505254D01*
X158105500Y-97505250D01*
X158104997Y-97501270D01*
X158104081Y-97489628D01*
X158102710Y-97445973D01*
X158097118Y-97426726D01*
X158093174Y-97407685D01*
X158090664Y-97387808D01*
X158074579Y-97347183D01*
X158070808Y-97336168D01*
X158058618Y-97294210D01*
X158048414Y-97276955D01*
X158039861Y-97259495D01*
X158032486Y-97240869D01*
X158032486Y-97240868D01*
X158006808Y-97205525D01*
X158000401Y-97195771D01*
X157978170Y-97158180D01*
X157964006Y-97144016D01*
X157951371Y-97129223D01*
X157939594Y-97113013D01*
X157933833Y-97105083D01*
X157910536Y-97041926D01*
X157923670Y-96975904D01*
X157969365Y-96926473D01*
X158034154Y-96908201D01*
X158086947Y-96908201D01*
X158249952Y-96873553D01*
X158272102Y-96868845D01*
X158358331Y-96830453D01*
X158445026Y-96791854D01*
X158445029Y-96791852D01*
X158551382Y-96714581D01*
X158606472Y-96692184D01*
X158665658Y-96698013D01*
X158715322Y-96730729D01*
X158744041Y-96782807D01*
X158793261Y-96966497D01*
X158889432Y-97172735D01*
X159019953Y-97359140D01*
X159180859Y-97520046D01*
X159314547Y-97613654D01*
X159367266Y-97650568D01*
X159425275Y-97677618D01*
X159477450Y-97723375D01*
X159496869Y-97790000D01*
X159477450Y-97856625D01*
X159425275Y-97902382D01*
X159367263Y-97929433D01*
X159180859Y-98059953D01*
X159019953Y-98220859D01*
X158889432Y-98407264D01*
X158793261Y-98613502D01*
X158734364Y-98833310D01*
X158714531Y-99060000D01*
X158734364Y-99286689D01*
X158793261Y-99506497D01*
X158889432Y-99712735D01*
X159019953Y-99899140D01*
X159180859Y-100060046D01*
X159235765Y-100098491D01*
X159367266Y-100190568D01*
X159425273Y-100217617D01*
X159477449Y-100263373D01*
X159496869Y-100329997D01*
X159477451Y-100396622D01*
X159425276Y-100442380D01*
X159367266Y-100469431D01*
X159180859Y-100599953D01*
X159019953Y-100760859D01*
X158889432Y-100947264D01*
X158793261Y-101153502D01*
X158734364Y-101373310D01*
X158714531Y-101600000D01*
X158734364Y-101826689D01*
X158793261Y-102046497D01*
X158889432Y-102252735D01*
X159019953Y-102439140D01*
X159180859Y-102600046D01*
X159360141Y-102725579D01*
X159367266Y-102730568D01*
X159400165Y-102745909D01*
X159425275Y-102757618D01*
X159477450Y-102803375D01*
X159496869Y-102870000D01*
X159477450Y-102936625D01*
X159425275Y-102982382D01*
X159367263Y-103009433D01*
X159180859Y-103139953D01*
X159019953Y-103300859D01*
X158889432Y-103487264D01*
X158793261Y-103693502D01*
X158734364Y-103913310D01*
X158714531Y-104140000D01*
X158734364Y-104366689D01*
X158793261Y-104586497D01*
X158889432Y-104792735D01*
X159019953Y-104979140D01*
X159180859Y-105140046D01*
X159287693Y-105214851D01*
X159367266Y-105270568D01*
X159425275Y-105297618D01*
X159477450Y-105343375D01*
X159496869Y-105410000D01*
X159477450Y-105476625D01*
X159425275Y-105522382D01*
X159367263Y-105549433D01*
X159180859Y-105679953D01*
X159019953Y-105840859D01*
X158889432Y-106027264D01*
X158793261Y-106233502D01*
X158734364Y-106453310D01*
X158714531Y-106680000D01*
X158734364Y-106906689D01*
X158793261Y-107126497D01*
X158889432Y-107332735D01*
X159019953Y-107519140D01*
X159180859Y-107680046D01*
X159312312Y-107772089D01*
X159367266Y-107810568D01*
X159425275Y-107837618D01*
X159477450Y-107883375D01*
X159496869Y-107950000D01*
X159477450Y-108016625D01*
X159425275Y-108062382D01*
X159367263Y-108089433D01*
X159180859Y-108219953D01*
X159019953Y-108380859D01*
X158889432Y-108567264D01*
X158793261Y-108773502D01*
X158734364Y-108993310D01*
X158714531Y-109220000D01*
X158734364Y-109446689D01*
X158793261Y-109666497D01*
X158889432Y-109872735D01*
X159019953Y-110059140D01*
X159180859Y-110220046D01*
X159367264Y-110350567D01*
X159367265Y-110350567D01*
X159367266Y-110350568D01*
X159573504Y-110446739D01*
X159793308Y-110505635D01*
X160020000Y-110525468D01*
X160246692Y-110505635D01*
X160466496Y-110446739D01*
X160672734Y-110350568D01*
X160859139Y-110220047D01*
X161020047Y-110059139D01*
X161150568Y-109872734D01*
X161246739Y-109666496D01*
X161305635Y-109446692D01*
X161325468Y-109220000D01*
X166334531Y-109220000D01*
X166354364Y-109446689D01*
X166413261Y-109666497D01*
X166509432Y-109872735D01*
X166639953Y-110059140D01*
X166800859Y-110220046D01*
X166987264Y-110350567D01*
X166987265Y-110350567D01*
X166987266Y-110350568D01*
X167193504Y-110446739D01*
X167413308Y-110505635D01*
X167640000Y-110525468D01*
X167866692Y-110505635D01*
X168086496Y-110446739D01*
X168292734Y-110350568D01*
X168479139Y-110220047D01*
X168640047Y-110059139D01*
X168770568Y-109872734D01*
X168866739Y-109666496D01*
X168925635Y-109446692D01*
X168945468Y-109220000D01*
X168925635Y-108993308D01*
X168866739Y-108773504D01*
X168770568Y-108567266D01*
X168769507Y-108565751D01*
X168640046Y-108380859D01*
X168479140Y-108219953D01*
X168292732Y-108089430D01*
X168234724Y-108062380D01*
X168182549Y-108016623D01*
X168163130Y-107949997D01*
X168182550Y-107883373D01*
X168234721Y-107837619D01*
X168292734Y-107810568D01*
X168479139Y-107680047D01*
X168640047Y-107519139D01*
X168770568Y-107332734D01*
X168866739Y-107126496D01*
X168925635Y-106906692D01*
X168945468Y-106680000D01*
X169274540Y-106680000D01*
X169294326Y-106868257D01*
X169352820Y-107048284D01*
X169447466Y-107212216D01*
X169574129Y-107352889D01*
X169727269Y-107464151D01*
X169900197Y-107541144D01*
X170085352Y-107580500D01*
X170085354Y-107580500D01*
X170274646Y-107580500D01*
X170274648Y-107580500D01*
X170411547Y-107551401D01*
X170459803Y-107541144D01*
X170632730Y-107464151D01*
X170785871Y-107352888D01*
X170791598Y-107346526D01*
X170833312Y-107316220D01*
X170883747Y-107305500D01*
X172637256Y-107305500D01*
X172657762Y-107307764D01*
X172660665Y-107307672D01*
X172660667Y-107307673D01*
X172727872Y-107305561D01*
X172731768Y-107305500D01*
X172759349Y-107305500D01*
X172759350Y-107305500D01*
X172763319Y-107304998D01*
X172774965Y-107304080D01*
X172818627Y-107302709D01*
X172837859Y-107297120D01*
X172856918Y-107293174D01*
X172863196Y-107292381D01*
X172876792Y-107290664D01*
X172917407Y-107274582D01*
X172928444Y-107270803D01*
X172970390Y-107258618D01*
X172987629Y-107248422D01*
X173005102Y-107239862D01*
X173023732Y-107232486D01*
X173059064Y-107206814D01*
X173068830Y-107200400D01*
X173106418Y-107178171D01*
X173106417Y-107178171D01*
X173106420Y-107178170D01*
X173120585Y-107164004D01*
X173135373Y-107151373D01*
X173151587Y-107139594D01*
X173179438Y-107105926D01*
X173187279Y-107097309D01*
X173828788Y-106455801D01*
X173844885Y-106442906D01*
X173846873Y-106440787D01*
X173846877Y-106440786D01*
X173892948Y-106391723D01*
X173895566Y-106389023D01*
X173915120Y-106369471D01*
X173917581Y-106366298D01*
X173925156Y-106357427D01*
X173955062Y-106325582D01*
X173964712Y-106308027D01*
X173975400Y-106291757D01*
X173987671Y-106275938D01*
X173987673Y-106275936D01*
X174005026Y-106235832D01*
X174010157Y-106225362D01*
X174011073Y-106223696D01*
X174031197Y-106187092D01*
X174036175Y-106167699D01*
X174042481Y-106149282D01*
X174044018Y-106145728D01*
X174050438Y-106130896D01*
X174057272Y-106087745D01*
X174059635Y-106076331D01*
X174070500Y-106034019D01*
X174070500Y-106013984D01*
X174072027Y-105994585D01*
X174075160Y-105974804D01*
X174071050Y-105931325D01*
X174070500Y-105919656D01*
X174070500Y-102466305D01*
X174076569Y-102427987D01*
X174090812Y-102384151D01*
X174117974Y-102300556D01*
X174137760Y-102112300D01*
X174117974Y-101924044D01*
X174059479Y-101744016D01*
X174059479Y-101744015D01*
X173964833Y-101580083D01*
X173838170Y-101439410D01*
X173685030Y-101328148D01*
X173512102Y-101251155D01*
X173326948Y-101211800D01*
X173326946Y-101211800D01*
X173137654Y-101211800D01*
X173137652Y-101211800D01*
X172952497Y-101251155D01*
X172779569Y-101328148D01*
X172626429Y-101439410D01*
X172499766Y-101580083D01*
X172405120Y-101744015D01*
X172346626Y-101924042D01*
X172326840Y-102112300D01*
X172346626Y-102300557D01*
X172405120Y-102480584D01*
X172499766Y-102644516D01*
X172626429Y-102785189D01*
X172768385Y-102888325D01*
X172805985Y-102932348D01*
X172819500Y-102988643D01*
X172819500Y-103055547D01*
X172805985Y-103111842D01*
X172768385Y-103155865D01*
X172714898Y-103178020D01*
X172657182Y-103173478D01*
X172607819Y-103143228D01*
X170841819Y-101377228D01*
X170814939Y-101337000D01*
X170805500Y-101289547D01*
X170805500Y-96520000D01*
X173954531Y-96520000D01*
X173974364Y-96746689D01*
X174033261Y-96966497D01*
X174129432Y-97172735D01*
X174259953Y-97359140D01*
X174420859Y-97520046D01*
X174607264Y-97650567D01*
X174607265Y-97650567D01*
X174607266Y-97650568D01*
X174813504Y-97746739D01*
X175033308Y-97805635D01*
X175260000Y-97825468D01*
X175486692Y-97805635D01*
X175706496Y-97746739D01*
X175912734Y-97650568D01*
X175986344Y-97599026D01*
X179534526Y-97599026D01*
X179607515Y-97650133D01*
X179813673Y-97746266D01*
X180033397Y-97805141D01*
X180260000Y-97824966D01*
X180486602Y-97805141D01*
X180706326Y-97746266D01*
X180912480Y-97650134D01*
X180985472Y-97599025D01*
X180260001Y-96873553D01*
X180260000Y-96873553D01*
X179534526Y-97599025D01*
X179534526Y-97599026D01*
X175986344Y-97599026D01*
X176099139Y-97520047D01*
X176260047Y-97359139D01*
X176390568Y-97172734D01*
X176486739Y-96966496D01*
X176545635Y-96746692D01*
X176565468Y-96520000D01*
X176565468Y-96519999D01*
X178955033Y-96519999D01*
X178974858Y-96746602D01*
X179033733Y-96966326D01*
X179129866Y-97172484D01*
X179180972Y-97245471D01*
X179180973Y-97245472D01*
X179906446Y-96520000D01*
X179906446Y-96519998D01*
X179180973Y-95794527D01*
X179129865Y-95867516D01*
X179033733Y-96073672D01*
X178974858Y-96293397D01*
X178955033Y-96519999D01*
X176565468Y-96519999D01*
X176545635Y-96293308D01*
X176486739Y-96073504D01*
X176390568Y-95867266D01*
X176372996Y-95842171D01*
X176260046Y-95680859D01*
X176099140Y-95519953D01*
X175912735Y-95389432D01*
X175706497Y-95293261D01*
X175486689Y-95234364D01*
X175260000Y-95214531D01*
X175033310Y-95234364D01*
X174813502Y-95293261D01*
X174607264Y-95389432D01*
X174420859Y-95519953D01*
X174259953Y-95680859D01*
X174129432Y-95867264D01*
X174033261Y-96073502D01*
X173974364Y-96293310D01*
X173954531Y-96520000D01*
X170805500Y-96520000D01*
X170805500Y-92519026D01*
X172074526Y-92519026D01*
X172147515Y-92570133D01*
X172353673Y-92666266D01*
X172573397Y-92725141D01*
X172800000Y-92744966D01*
X173026602Y-92725141D01*
X173246326Y-92666266D01*
X173452480Y-92570134D01*
X173525472Y-92519025D01*
X172800001Y-91793553D01*
X172800000Y-91793553D01*
X172074526Y-92519025D01*
X172074526Y-92519026D01*
X170805500Y-92519026D01*
X170805500Y-91440000D01*
X171495033Y-91440000D01*
X171514858Y-91666602D01*
X171573733Y-91886326D01*
X171669866Y-92092484D01*
X171720972Y-92165471D01*
X171720974Y-92165472D01*
X172446446Y-91440001D01*
X173153553Y-91440001D01*
X173879025Y-92165472D01*
X173930134Y-92092480D01*
X174026266Y-91886326D01*
X174085141Y-91666602D01*
X174104966Y-91440000D01*
X174085141Y-91213397D01*
X174026266Y-90993673D01*
X173930133Y-90787515D01*
X173879025Y-90714526D01*
X173153553Y-91440000D01*
X173153553Y-91440001D01*
X172446446Y-91440001D01*
X172446446Y-91440000D01*
X171720973Y-90714526D01*
X171720973Y-90714527D01*
X171669865Y-90787516D01*
X171573733Y-90993672D01*
X171514858Y-91213397D01*
X171495033Y-91440000D01*
X170805500Y-91440000D01*
X170805500Y-90360973D01*
X172074526Y-90360973D01*
X172800000Y-91086446D01*
X172800001Y-91086446D01*
X173525472Y-90360974D01*
X173525471Y-90360972D01*
X173452484Y-90309866D01*
X173246326Y-90213733D01*
X173026602Y-90154858D01*
X172800000Y-90135033D01*
X172573397Y-90154858D01*
X172353672Y-90213733D01*
X172147516Y-90309865D01*
X172074527Y-90360973D01*
X172074526Y-90360973D01*
X170805500Y-90360973D01*
X170805500Y-87058687D01*
X170813736Y-87014249D01*
X170837347Y-86975717D01*
X170912533Y-86892216D01*
X170915836Y-86886496D01*
X171007179Y-86728284D01*
X171007179Y-86728283D01*
X171065674Y-86548256D01*
X171077052Y-86439999D01*
X171494531Y-86439999D01*
X171514364Y-86666689D01*
X171573261Y-86886497D01*
X171669432Y-87092735D01*
X171799953Y-87279140D01*
X171960859Y-87440046D01*
X172147264Y-87570567D01*
X172147265Y-87570567D01*
X172147266Y-87570568D01*
X172353504Y-87666739D01*
X172573308Y-87725635D01*
X172800000Y-87745468D01*
X173026692Y-87725635D01*
X173246496Y-87666739D01*
X173452734Y-87570568D01*
X173639139Y-87440047D01*
X173800047Y-87279139D01*
X173930568Y-87092734D01*
X174026739Y-86886496D01*
X174085635Y-86666692D01*
X174105468Y-86440000D01*
X174098469Y-86360000D01*
X174354540Y-86360000D01*
X174374326Y-86548257D01*
X174432820Y-86728284D01*
X174527464Y-86892213D01*
X174527467Y-86892216D01*
X174602652Y-86975717D01*
X174626264Y-87014249D01*
X174634500Y-87058687D01*
X174634500Y-89138247D01*
X174632235Y-89158753D01*
X174634439Y-89228864D01*
X174634500Y-89232759D01*
X174634500Y-89260340D01*
X174635003Y-89264325D01*
X174635918Y-89275958D01*
X174637290Y-89319617D01*
X174642879Y-89338851D01*
X174646825Y-89357907D01*
X174649335Y-89377783D01*
X174665414Y-89418395D01*
X174669197Y-89429442D01*
X174681382Y-89471382D01*
X174691580Y-89488626D01*
X174700136Y-89506091D01*
X174707514Y-89524723D01*
X174707515Y-89524724D01*
X174733180Y-89560050D01*
X174739593Y-89569813D01*
X174761826Y-89607407D01*
X174761829Y-89607410D01*
X174761830Y-89607411D01*
X174775995Y-89621576D01*
X174788627Y-89636366D01*
X174800406Y-89652578D01*
X174834058Y-89680417D01*
X174842699Y-89688280D01*
X179518205Y-94363787D01*
X179531105Y-94379888D01*
X179582232Y-94427900D01*
X179585028Y-94430610D01*
X179604538Y-94450120D01*
X179607720Y-94452588D01*
X179616580Y-94460155D01*
X179648427Y-94490062D01*
X179665981Y-94499712D01*
X179682245Y-94510396D01*
X179693981Y-94519499D01*
X179698073Y-94522673D01*
X179722918Y-94533424D01*
X179738161Y-94540021D01*
X179748640Y-94545154D01*
X179786917Y-94566197D01*
X179806315Y-94571177D01*
X179824717Y-94577477D01*
X179843113Y-94585438D01*
X179886270Y-94592273D01*
X179897673Y-94594634D01*
X179939990Y-94605500D01*
X179960025Y-94605500D01*
X179979422Y-94607026D01*
X179999205Y-94610160D01*
X180020021Y-94608192D01*
X180073693Y-94614973D01*
X180119371Y-94643961D01*
X180490810Y-95015400D01*
X180521711Y-95066827D01*
X180524851Y-95126741D01*
X180499495Y-95181116D01*
X180451580Y-95217223D01*
X180392323Y-95226609D01*
X180260000Y-95215033D01*
X180033397Y-95234858D01*
X179813672Y-95293733D01*
X179607516Y-95389865D01*
X179534526Y-95440973D01*
X181339025Y-97245472D01*
X181390134Y-97172480D01*
X181486266Y-96966326D01*
X181545141Y-96746602D01*
X181564966Y-96519999D01*
X181553390Y-96387677D01*
X181562775Y-96328419D01*
X181598882Y-96280504D01*
X181653258Y-96255148D01*
X181713172Y-96258288D01*
X181764597Y-96289187D01*
X181995407Y-96519998D01*
X182218181Y-96742772D01*
X182245061Y-96783000D01*
X182254500Y-96830453D01*
X182254500Y-103441313D01*
X182246264Y-103485751D01*
X182222652Y-103524282D01*
X182189545Y-103561051D01*
X182147464Y-103607786D01*
X182052820Y-103771715D01*
X181994326Y-103951742D01*
X181974540Y-104140000D01*
X181994326Y-104328257D01*
X182052820Y-104508284D01*
X182147466Y-104672216D01*
X182274129Y-104812889D01*
X182427269Y-104924151D01*
X182600197Y-105001144D01*
X182785352Y-105040500D01*
X182785354Y-105040500D01*
X182974646Y-105040500D01*
X182974648Y-105040500D01*
X183111547Y-105011401D01*
X183159803Y-105001144D01*
X183332730Y-104924151D01*
X183479073Y-104817827D01*
X183485870Y-104812889D01*
X183612533Y-104672216D01*
X183707179Y-104508284D01*
X183707179Y-104508283D01*
X183765674Y-104328256D01*
X183785460Y-104140000D01*
X183765674Y-103951744D01*
X183735332Y-103858363D01*
X183707179Y-103771715D01*
X183612535Y-103607786D01*
X183599427Y-103593229D01*
X183537347Y-103524282D01*
X183513736Y-103485751D01*
X183505500Y-103441313D01*
X183505500Y-96602740D01*
X183507763Y-96582236D01*
X183505561Y-96512144D01*
X183505500Y-96508250D01*
X183505500Y-96480657D01*
X183505500Y-96480650D01*
X183504995Y-96476653D01*
X183504080Y-96465023D01*
X183502709Y-96421372D01*
X183497119Y-96402134D01*
X183493174Y-96383082D01*
X183490664Y-96363208D01*
X183489160Y-96359410D01*
X183474578Y-96322581D01*
X183470805Y-96311560D01*
X183458617Y-96269610D01*
X183448421Y-96252369D01*
X183439863Y-96234902D01*
X183432486Y-96216268D01*
X183406798Y-96180912D01*
X183400409Y-96171184D01*
X183378170Y-96133579D01*
X183364006Y-96119415D01*
X183351369Y-96104620D01*
X183339595Y-96088414D01*
X183321775Y-96073672D01*
X183305935Y-96060568D01*
X183297305Y-96052714D01*
X181151230Y-93906639D01*
X181122389Y-93861368D01*
X181115383Y-93808149D01*
X181131525Y-93756956D01*
X181167790Y-93717382D01*
X181178816Y-93709661D01*
X181339658Y-93548819D01*
X181470134Y-93362480D01*
X181566266Y-93156326D01*
X181618872Y-92960000D01*
X180214000Y-92960000D01*
X180152000Y-92943387D01*
X180106613Y-92898000D01*
X180090000Y-92836000D01*
X180090000Y-91431128D01*
X180590000Y-91431128D01*
X180590000Y-92460000D01*
X181618872Y-92460000D01*
X181618871Y-92459999D01*
X181566266Y-92263673D01*
X181470134Y-92057519D01*
X181339658Y-91871180D01*
X181178819Y-91710341D01*
X180992480Y-91579865D01*
X180786326Y-91483733D01*
X180590000Y-91431128D01*
X180090000Y-91431128D01*
X180089999Y-91431128D01*
X179893673Y-91483733D01*
X179687519Y-91579865D01*
X179501180Y-91710341D01*
X179340341Y-91871180D01*
X179203644Y-92066404D01*
X179202095Y-92065319D01*
X179175050Y-92099004D01*
X179121099Y-92122735D01*
X179062285Y-92118876D01*
X179011898Y-92088298D01*
X175921819Y-88998219D01*
X175894939Y-88957991D01*
X175885500Y-88910538D01*
X175885500Y-87058687D01*
X175893736Y-87014249D01*
X175917347Y-86975717D01*
X175992533Y-86892216D01*
X175995836Y-86886496D01*
X176087179Y-86728284D01*
X176087179Y-86728283D01*
X176145674Y-86548256D01*
X176165460Y-86360000D01*
X176145674Y-86171744D01*
X176087760Y-85993504D01*
X176087179Y-85991715D01*
X175992533Y-85827783D01*
X175865870Y-85687110D01*
X175712730Y-85575848D01*
X175539802Y-85498855D01*
X175354648Y-85459500D01*
X175354646Y-85459500D01*
X175165354Y-85459500D01*
X175165352Y-85459500D01*
X174980197Y-85498855D01*
X174807269Y-85575848D01*
X174654129Y-85687110D01*
X174527466Y-85827783D01*
X174432820Y-85991715D01*
X174374326Y-86171742D01*
X174354540Y-86360000D01*
X174098469Y-86360000D01*
X174085635Y-86213308D01*
X174026739Y-85993504D01*
X173930568Y-85787266D01*
X173900473Y-85744286D01*
X173800046Y-85600859D01*
X173639140Y-85439953D01*
X173452735Y-85309432D01*
X173246497Y-85213261D01*
X173026689Y-85154364D01*
X172800000Y-85134531D01*
X172573310Y-85154364D01*
X172353502Y-85213261D01*
X172147264Y-85309432D01*
X171960859Y-85439953D01*
X171799953Y-85600859D01*
X171669432Y-85787264D01*
X171573261Y-85993502D01*
X171514364Y-86213310D01*
X171494531Y-86439999D01*
X171077052Y-86439999D01*
X171085460Y-86360000D01*
X171065674Y-86171744D01*
X171007760Y-85993504D01*
X171007179Y-85991715D01*
X170912535Y-85827786D01*
X170876050Y-85787266D01*
X170837347Y-85744282D01*
X170813736Y-85705751D01*
X170805500Y-85661313D01*
X170805500Y-78740000D01*
X173854699Y-78740000D01*
X173873865Y-78971299D01*
X173873865Y-78971301D01*
X173873866Y-78971305D01*
X173928361Y-79186497D01*
X173930844Y-79196303D01*
X174016896Y-79392480D01*
X174024076Y-79408849D01*
X174151021Y-79603153D01*
X174245803Y-79706114D01*
X174274575Y-79758865D01*
X174275168Y-79818951D01*
X174247441Y-79872261D01*
X174197906Y-79906276D01*
X174117671Y-79936202D01*
X174002454Y-80022454D01*
X173916204Y-80137668D01*
X173865909Y-80272516D01*
X173864306Y-80287419D01*
X173860534Y-80322516D01*
X173859500Y-80332130D01*
X173859500Y-82227869D01*
X173865909Y-82287483D01*
X173916204Y-82422331D01*
X174002454Y-82537546D01*
X174117669Y-82623796D01*
X174252517Y-82674091D01*
X174312127Y-82680500D01*
X176207872Y-82680499D01*
X176267483Y-82674091D01*
X176402331Y-82623796D01*
X176517546Y-82537546D01*
X176603796Y-82422331D01*
X176654091Y-82287483D01*
X176660500Y-82227873D01*
X176660499Y-81419312D01*
X176676046Y-81359199D01*
X176718789Y-81314157D01*
X176778009Y-81295485D01*
X176838857Y-81307864D01*
X176886073Y-81348191D01*
X176907820Y-81406353D01*
X176914326Y-81468257D01*
X176972820Y-81648284D01*
X177067464Y-81812213D01*
X177067467Y-81812216D01*
X177142652Y-81895717D01*
X177166264Y-81934249D01*
X177174500Y-81978687D01*
X177174500Y-83845813D01*
X177166264Y-83890251D01*
X177142652Y-83928782D01*
X177115055Y-83959432D01*
X177067464Y-84012286D01*
X176972820Y-84176215D01*
X176914326Y-84356242D01*
X176894540Y-84544500D01*
X176914326Y-84732757D01*
X176972820Y-84912784D01*
X177067466Y-85076716D01*
X177194129Y-85217389D01*
X177347269Y-85328651D01*
X177520197Y-85405644D01*
X177705352Y-85445000D01*
X177705354Y-85445000D01*
X177894646Y-85445000D01*
X177894648Y-85445000D01*
X178018084Y-85418762D01*
X178079803Y-85405644D01*
X178252730Y-85328651D01*
X178313008Y-85284857D01*
X178405870Y-85217389D01*
X178419383Y-85202382D01*
X178520572Y-85090000D01*
X179034531Y-85090000D01*
X179054364Y-85316689D01*
X179113261Y-85536497D01*
X179209432Y-85742735D01*
X179339953Y-85929140D01*
X179500859Y-86090046D01*
X179687264Y-86220567D01*
X179687265Y-86220567D01*
X179687266Y-86220568D01*
X179893504Y-86316739D01*
X180113308Y-86375635D01*
X180340000Y-86395468D01*
X180566692Y-86375635D01*
X180786496Y-86316739D01*
X180992734Y-86220568D01*
X181179139Y-86090047D01*
X181340047Y-85929139D01*
X181470568Y-85742734D01*
X181566739Y-85536496D01*
X181625635Y-85316692D01*
X181645468Y-85090000D01*
X181625635Y-84863308D01*
X181566739Y-84643504D01*
X181470568Y-84437266D01*
X181413836Y-84356244D01*
X181340046Y-84250859D01*
X181179140Y-84089953D01*
X180992735Y-83959432D01*
X180786497Y-83863261D01*
X180566689Y-83804364D01*
X180340000Y-83784531D01*
X180113310Y-83804364D01*
X179893502Y-83863261D01*
X179687264Y-83959432D01*
X179500859Y-84089953D01*
X179339953Y-84250859D01*
X179209432Y-84437264D01*
X179113261Y-84643502D01*
X179054364Y-84863310D01*
X179034531Y-85090000D01*
X178520572Y-85090000D01*
X178532533Y-85076716D01*
X178627179Y-84912784D01*
X178685674Y-84732756D01*
X178705460Y-84544500D01*
X178685674Y-84356244D01*
X178627179Y-84176216D01*
X178627179Y-84176215D01*
X178532535Y-84012286D01*
X178519427Y-83997729D01*
X178457347Y-83928782D01*
X178433736Y-83890251D01*
X178425500Y-83845813D01*
X178425500Y-81978687D01*
X178433736Y-81934249D01*
X178457347Y-81895717D01*
X178532533Y-81812216D01*
X178627179Y-81648284D01*
X178685674Y-81468256D01*
X178705460Y-81280000D01*
X178685674Y-81091744D01*
X178627179Y-80911716D01*
X178627179Y-80911715D01*
X178532533Y-80747783D01*
X178405870Y-80607110D01*
X178252730Y-80495848D01*
X178079802Y-80418855D01*
X177894648Y-80379500D01*
X177894646Y-80379500D01*
X177705354Y-80379500D01*
X177705352Y-80379500D01*
X177520197Y-80418855D01*
X177347269Y-80495848D01*
X177194129Y-80607110D01*
X177067466Y-80747783D01*
X176972820Y-80911715D01*
X176914326Y-81091742D01*
X176907820Y-81153647D01*
X176886073Y-81211809D01*
X176838857Y-81252136D01*
X176778009Y-81264515D01*
X176718789Y-81245843D01*
X176676046Y-81200801D01*
X176660499Y-81140685D01*
X176660499Y-80332130D01*
X176659466Y-80322517D01*
X176654091Y-80272517D01*
X176603796Y-80137669D01*
X176517546Y-80022454D01*
X176402331Y-79936204D01*
X176327852Y-79908425D01*
X176322093Y-79906277D01*
X176272558Y-79872261D01*
X176244831Y-79818951D01*
X176245424Y-79758864D01*
X176274196Y-79706114D01*
X176368979Y-79603153D01*
X176495924Y-79408849D01*
X176589157Y-79196300D01*
X176646134Y-78971305D01*
X176665300Y-78740000D01*
X176646134Y-78508695D01*
X176589157Y-78283700D01*
X176495924Y-78071151D01*
X176368979Y-77876847D01*
X176211784Y-77706087D01*
X176028626Y-77563530D01*
X175824503Y-77453064D01*
X175824499Y-77453062D01*
X175824498Y-77453062D01*
X175604984Y-77377702D01*
X175433282Y-77349050D01*
X175376049Y-77339500D01*
X175143951Y-77339500D01*
X175098164Y-77347140D01*
X174915015Y-77377702D01*
X174695501Y-77453062D01*
X174491372Y-77563531D01*
X174308215Y-77706087D01*
X174151020Y-77876848D01*
X174024076Y-78071150D01*
X173930844Y-78283696D01*
X173930842Y-78283700D01*
X173930843Y-78283700D01*
X173874066Y-78507908D01*
X173873865Y-78508700D01*
X173854699Y-78740000D01*
X170805500Y-78740000D01*
X170805500Y-76200000D01*
X179034531Y-76200000D01*
X179054364Y-76426689D01*
X179113261Y-76646497D01*
X179209432Y-76852735D01*
X179339953Y-77039140D01*
X179500859Y-77200046D01*
X179687264Y-77330567D01*
X179687265Y-77330567D01*
X179687266Y-77330568D01*
X179893504Y-77426739D01*
X180113308Y-77485635D01*
X180253052Y-77497861D01*
X180339999Y-77505468D01*
X180339999Y-77505467D01*
X180340000Y-77505468D01*
X180566692Y-77485635D01*
X180786496Y-77426739D01*
X180992734Y-77330568D01*
X181066344Y-77279026D01*
X182114526Y-77279026D01*
X182187515Y-77330133D01*
X182393673Y-77426266D01*
X182613397Y-77485141D01*
X182839999Y-77504966D01*
X183066602Y-77485141D01*
X183286326Y-77426266D01*
X183492480Y-77330134D01*
X183565472Y-77279025D01*
X182840001Y-76553553D01*
X182840000Y-76553553D01*
X182114526Y-77279025D01*
X182114526Y-77279026D01*
X181066344Y-77279026D01*
X181179139Y-77200047D01*
X181340047Y-77039139D01*
X181470568Y-76852734D01*
X181477893Y-76837023D01*
X181523647Y-76784849D01*
X181590273Y-76765428D01*
X181656899Y-76784847D01*
X181702657Y-76837023D01*
X181709866Y-76852483D01*
X181760972Y-76925471D01*
X181760973Y-76925472D01*
X182486446Y-76199999D01*
X183193553Y-76199999D01*
X183919025Y-76925472D01*
X183970134Y-76852480D01*
X184066266Y-76646326D01*
X184125141Y-76426602D01*
X184144966Y-76199999D01*
X184125141Y-75973397D01*
X184066266Y-75753673D01*
X183970133Y-75547515D01*
X183919025Y-75474526D01*
X183193553Y-76199999D01*
X182486446Y-76199999D01*
X182486446Y-76199998D01*
X181760973Y-75474527D01*
X181709865Y-75547517D01*
X181702656Y-75562977D01*
X181656899Y-75615151D01*
X181590274Y-75634570D01*
X181523649Y-75615150D01*
X181477893Y-75562975D01*
X181470567Y-75547264D01*
X181340046Y-75360859D01*
X181179139Y-75199952D01*
X181072151Y-75125039D01*
X181068878Y-75120973D01*
X182114526Y-75120973D01*
X182840000Y-75846446D01*
X182840001Y-75846446D01*
X183565472Y-75120974D01*
X183565471Y-75120972D01*
X183492484Y-75069866D01*
X183286326Y-74973733D01*
X183066602Y-74914858D01*
X182840000Y-74895033D01*
X182613397Y-74914858D01*
X182393672Y-74973733D01*
X182187516Y-75069865D01*
X182114527Y-75120973D01*
X182114526Y-75120973D01*
X181068878Y-75120973D01*
X181028851Y-75071249D01*
X181021035Y-75002640D01*
X181051124Y-74940492D01*
X181072533Y-74916716D01*
X181167179Y-74752784D01*
X181225674Y-74572756D01*
X181245460Y-74384500D01*
X181225674Y-74196244D01*
X181167179Y-74016216D01*
X181167179Y-74016215D01*
X181072535Y-73852286D01*
X181059427Y-73837729D01*
X180997347Y-73768782D01*
X180973736Y-73730251D01*
X180965500Y-73685813D01*
X180965500Y-71917869D01*
X181894500Y-71917869D01*
X181900909Y-71977484D01*
X181911274Y-72005273D01*
X181951204Y-72112331D01*
X182037454Y-72227546D01*
X182152669Y-72313796D01*
X182287517Y-72364091D01*
X182347127Y-72370500D01*
X183492872Y-72370499D01*
X183552483Y-72364091D01*
X183687331Y-72313796D01*
X183687332Y-72313795D01*
X183700926Y-72308725D01*
X183737601Y-72292857D01*
X183795071Y-72296322D01*
X183940000Y-72340286D01*
X183940000Y-71975672D01*
X183940711Y-71962416D01*
X183941122Y-71958588D01*
X183945500Y-71917873D01*
X183945500Y-71395380D01*
X184434500Y-71395380D01*
X184439403Y-71445161D01*
X184440000Y-71457315D01*
X184440000Y-72340285D01*
X184584149Y-72296558D01*
X184766016Y-72199348D01*
X184824470Y-72184706D01*
X184882923Y-72199348D01*
X184887504Y-72201797D01*
X184887506Y-72201798D01*
X185065659Y-72297023D01*
X185258967Y-72355662D01*
X185460000Y-72375462D01*
X185661033Y-72355662D01*
X185854341Y-72297023D01*
X186032494Y-72201798D01*
X186188647Y-72073647D01*
X186316798Y-71917494D01*
X186412023Y-71739341D01*
X186470662Y-71546033D01*
X186485500Y-71395380D01*
X186485500Y-70844620D01*
X186470662Y-70693967D01*
X186412023Y-70500659D01*
X186316798Y-70322506D01*
X186234420Y-70222128D01*
X186188647Y-70166352D01*
X186085257Y-70081503D01*
X186032494Y-70038202D01*
X185854341Y-69942977D01*
X185753720Y-69912454D01*
X185661031Y-69884337D01*
X185460000Y-69864538D01*
X185258968Y-69884337D01*
X185065656Y-69942978D01*
X184882923Y-70040651D01*
X184824470Y-70055293D01*
X184766017Y-70040651D01*
X184584152Y-69943442D01*
X184440000Y-69899715D01*
X184440000Y-70782685D01*
X184439403Y-70794839D01*
X184434500Y-70844620D01*
X184434500Y-71395380D01*
X183945500Y-71395380D01*
X183945499Y-70322128D01*
X183940709Y-70277577D01*
X183940000Y-70264325D01*
X183940000Y-69899713D01*
X183795069Y-69943677D01*
X183737603Y-69947143D01*
X183700933Y-69931278D01*
X183687332Y-69926205D01*
X183687331Y-69926204D01*
X183552483Y-69875909D01*
X183492873Y-69869500D01*
X183492869Y-69869500D01*
X182347130Y-69869500D01*
X182287515Y-69875909D01*
X182152669Y-69926204D01*
X182037454Y-70012454D01*
X181951204Y-70127668D01*
X181900909Y-70262516D01*
X181894500Y-70322130D01*
X181894500Y-71917869D01*
X180965500Y-71917869D01*
X180965500Y-71818687D01*
X180973736Y-71774249D01*
X180997347Y-71735717D01*
X181072533Y-71652216D01*
X181167179Y-71488284D01*
X181225674Y-71308256D01*
X181245460Y-71120000D01*
X181225674Y-70931744D01*
X181181191Y-70794839D01*
X181167179Y-70751715D01*
X181072533Y-70587783D01*
X180945870Y-70447110D01*
X180792730Y-70335848D01*
X180619802Y-70258855D01*
X180434648Y-70219500D01*
X180434646Y-70219500D01*
X180245354Y-70219500D01*
X180245352Y-70219500D01*
X180060197Y-70258855D01*
X179887269Y-70335848D01*
X179734129Y-70447110D01*
X179607466Y-70587783D01*
X179512820Y-70751715D01*
X179454326Y-70931742D01*
X179434540Y-71119999D01*
X179454326Y-71308257D01*
X179512820Y-71488284D01*
X179607464Y-71652213D01*
X179607467Y-71652216D01*
X179682652Y-71735717D01*
X179706264Y-71774249D01*
X179714500Y-71818687D01*
X179714500Y-73685813D01*
X179706264Y-73730251D01*
X179682652Y-73768782D01*
X179649545Y-73805551D01*
X179607464Y-73852286D01*
X179512820Y-74016215D01*
X179454326Y-74196242D01*
X179434540Y-74384499D01*
X179454326Y-74572757D01*
X179512820Y-74752784D01*
X179607466Y-74916715D01*
X179628874Y-74940491D01*
X179658964Y-75002642D01*
X179651148Y-75071249D01*
X179607849Y-75125039D01*
X179500857Y-75199955D01*
X179339953Y-75360859D01*
X179209432Y-75547264D01*
X179113261Y-75753502D01*
X179054364Y-75973310D01*
X179034531Y-76200000D01*
X170805500Y-76200000D01*
X170805500Y-76174187D01*
X170813736Y-76129749D01*
X170837347Y-76091217D01*
X170912533Y-76007716D01*
X170932399Y-75973308D01*
X171007179Y-75843784D01*
X171036513Y-75753504D01*
X171065674Y-75663756D01*
X171085460Y-75475500D01*
X171065674Y-75287244D01*
X171012970Y-75125039D01*
X171007179Y-75107215D01*
X170912533Y-74943283D01*
X170785870Y-74802610D01*
X170632730Y-74691348D01*
X170459802Y-74614355D01*
X170274648Y-74575000D01*
X170274646Y-74575000D01*
X170085354Y-74575000D01*
X170085352Y-74575000D01*
X169900197Y-74614355D01*
X169727269Y-74691348D01*
X169574129Y-74802610D01*
X169447466Y-74943283D01*
X169352820Y-75107215D01*
X169294326Y-75287242D01*
X169274540Y-75475500D01*
X169294326Y-75663757D01*
X169352820Y-75843784D01*
X169447464Y-76007713D01*
X169447467Y-76007716D01*
X169522652Y-76091217D01*
X169546264Y-76129749D01*
X169554500Y-76174187D01*
X169554500Y-85661313D01*
X169546264Y-85705751D01*
X169522652Y-85744282D01*
X169489545Y-85781051D01*
X169447464Y-85827786D01*
X169352820Y-85991715D01*
X169294326Y-86171742D01*
X169274540Y-86360000D01*
X169294326Y-86548257D01*
X169352820Y-86728284D01*
X169447464Y-86892213D01*
X169447467Y-86892216D01*
X169522652Y-86975717D01*
X169546264Y-87014249D01*
X169554500Y-87058687D01*
X169554500Y-101517256D01*
X169552235Y-101537762D01*
X169554439Y-101607873D01*
X169554500Y-101611768D01*
X169554500Y-101639349D01*
X169555003Y-101643334D01*
X169555918Y-101654967D01*
X169557290Y-101698626D01*
X169562879Y-101717860D01*
X169566825Y-101736916D01*
X169569335Y-101756792D01*
X169585414Y-101797404D01*
X169589197Y-101808451D01*
X169601382Y-101850391D01*
X169611580Y-101867635D01*
X169620136Y-101885100D01*
X169627514Y-101903732D01*
X169627515Y-101903733D01*
X169653180Y-101939059D01*
X169659593Y-101948822D01*
X169681826Y-101986416D01*
X169681829Y-101986419D01*
X169681830Y-101986420D01*
X169695995Y-102000585D01*
X169708627Y-102015375D01*
X169720406Y-102031587D01*
X169754058Y-102059426D01*
X169762699Y-102067289D01*
X171781038Y-104085629D01*
X171805277Y-104119926D01*
X171816678Y-104160348D01*
X171834326Y-104328257D01*
X171892820Y-104508284D01*
X171987466Y-104672216D01*
X172114129Y-104812889D01*
X172267269Y-104924151D01*
X172440197Y-105001144D01*
X172625352Y-105040500D01*
X172695500Y-105040500D01*
X172757500Y-105057113D01*
X172802887Y-105102500D01*
X172819500Y-105164500D01*
X172819500Y-105644548D01*
X172810061Y-105692001D01*
X172783181Y-105732229D01*
X172497228Y-106018181D01*
X172457000Y-106045061D01*
X172409547Y-106054500D01*
X170883747Y-106054500D01*
X170833312Y-106043780D01*
X170791598Y-106013473D01*
X170785871Y-106007112D01*
X170632730Y-105895849D01*
X170632729Y-105895848D01*
X170632727Y-105895847D01*
X170459802Y-105818855D01*
X170274648Y-105779500D01*
X170274646Y-105779500D01*
X170085354Y-105779500D01*
X170085352Y-105779500D01*
X169900197Y-105818855D01*
X169727269Y-105895848D01*
X169574129Y-106007110D01*
X169447466Y-106147783D01*
X169352820Y-106311715D01*
X169294326Y-106491742D01*
X169274540Y-106680000D01*
X168945468Y-106680000D01*
X168925635Y-106453308D01*
X168866739Y-106233504D01*
X168770568Y-106027266D01*
X168760909Y-106013472D01*
X168640046Y-105840859D01*
X168479140Y-105679953D01*
X168292733Y-105549431D01*
X168234725Y-105522382D01*
X168182549Y-105476625D01*
X168163129Y-105410000D01*
X168182549Y-105343375D01*
X168234725Y-105297618D01*
X168267510Y-105282330D01*
X168292734Y-105270568D01*
X168479139Y-105140047D01*
X168640047Y-104979139D01*
X168770568Y-104792734D01*
X168866739Y-104586496D01*
X168925635Y-104366692D01*
X168945468Y-104140000D01*
X168925635Y-103913308D01*
X168866739Y-103693504D01*
X168770568Y-103487266D01*
X168769507Y-103485751D01*
X168640046Y-103300859D01*
X168479140Y-103139953D01*
X168292733Y-103009431D01*
X168234725Y-102982382D01*
X168182549Y-102936625D01*
X168163129Y-102870000D01*
X168182549Y-102803375D01*
X168234725Y-102757618D01*
X168259835Y-102745909D01*
X168292734Y-102730568D01*
X168479139Y-102600047D01*
X168640047Y-102439139D01*
X168770568Y-102252734D01*
X168866739Y-102046496D01*
X168925635Y-101826692D01*
X168945468Y-101600000D01*
X168925635Y-101373308D01*
X168866739Y-101153504D01*
X168770568Y-100947266D01*
X168769507Y-100945751D01*
X168640046Y-100760859D01*
X168479140Y-100599953D01*
X168292736Y-100469433D01*
X168234721Y-100442380D01*
X168234132Y-100442105D01*
X168181958Y-100396348D01*
X168162539Y-100329723D01*
X168181959Y-100263098D01*
X168234135Y-100217342D01*
X168292479Y-100190135D01*
X168478819Y-100059658D01*
X168639658Y-99898819D01*
X168770134Y-99712480D01*
X168866266Y-99506326D01*
X168918872Y-99310000D01*
X166361128Y-99310000D01*
X166413733Y-99506326D01*
X166509865Y-99712480D01*
X166640341Y-99898819D01*
X166801180Y-100059658D01*
X166987519Y-100190134D01*
X167045865Y-100217342D01*
X167098040Y-100263099D01*
X167117460Y-100329723D01*
X167098041Y-100396348D01*
X167045866Y-100442105D01*
X166987267Y-100469430D01*
X166800859Y-100599953D01*
X166639953Y-100760859D01*
X166509432Y-100947264D01*
X166413261Y-101153502D01*
X166354364Y-101373310D01*
X166334531Y-101600000D01*
X166354364Y-101826689D01*
X166413261Y-102046497D01*
X166509432Y-102252735D01*
X166639953Y-102439140D01*
X166800859Y-102600046D01*
X166980141Y-102725579D01*
X166987266Y-102730568D01*
X167020165Y-102745909D01*
X167045275Y-102757618D01*
X167097450Y-102803375D01*
X167116869Y-102870000D01*
X167097450Y-102936625D01*
X167045275Y-102982382D01*
X166987263Y-103009433D01*
X166800859Y-103139953D01*
X166639953Y-103300859D01*
X166509432Y-103487264D01*
X166413261Y-103693502D01*
X166354364Y-103913310D01*
X166334531Y-104140000D01*
X166354364Y-104366689D01*
X166413261Y-104586497D01*
X166509432Y-104792735D01*
X166639953Y-104979140D01*
X166800859Y-105140046D01*
X166907693Y-105214851D01*
X166987266Y-105270568D01*
X167045275Y-105297618D01*
X167097450Y-105343375D01*
X167116869Y-105410000D01*
X167097450Y-105476625D01*
X167045275Y-105522382D01*
X166987263Y-105549433D01*
X166800859Y-105679953D01*
X166639953Y-105840859D01*
X166509432Y-106027264D01*
X166413261Y-106233502D01*
X166354364Y-106453310D01*
X166334531Y-106680000D01*
X166354364Y-106906689D01*
X166413261Y-107126497D01*
X166509432Y-107332735D01*
X166639953Y-107519140D01*
X166800859Y-107680046D01*
X166932312Y-107772089D01*
X166987266Y-107810568D01*
X167045275Y-107837618D01*
X167097450Y-107883375D01*
X167116869Y-107950000D01*
X167097450Y-108016625D01*
X167045275Y-108062382D01*
X166987263Y-108089433D01*
X166800859Y-108219953D01*
X166639953Y-108380859D01*
X166509432Y-108567264D01*
X166413261Y-108773502D01*
X166354364Y-108993310D01*
X166334531Y-109220000D01*
X161325468Y-109220000D01*
X161305635Y-108993308D01*
X161246739Y-108773504D01*
X161150568Y-108567266D01*
X161149507Y-108565751D01*
X161020046Y-108380859D01*
X160859140Y-108219953D01*
X160672732Y-108089430D01*
X160614724Y-108062380D01*
X160562549Y-108016623D01*
X160543130Y-107949997D01*
X160562550Y-107883373D01*
X160614721Y-107837619D01*
X160672734Y-107810568D01*
X160859139Y-107680047D01*
X161020047Y-107519139D01*
X161150568Y-107332734D01*
X161246739Y-107126496D01*
X161305635Y-106906692D01*
X161325468Y-106680000D01*
X161305635Y-106453308D01*
X161246739Y-106233504D01*
X161150568Y-106027266D01*
X161140909Y-106013472D01*
X161020046Y-105840859D01*
X160859140Y-105679953D01*
X160672733Y-105549431D01*
X160614725Y-105522382D01*
X160562549Y-105476625D01*
X160543129Y-105410000D01*
X160562549Y-105343375D01*
X160614725Y-105297618D01*
X160647510Y-105282330D01*
X160672734Y-105270568D01*
X160859139Y-105140047D01*
X161020047Y-104979139D01*
X161150568Y-104792734D01*
X161246739Y-104586496D01*
X161305635Y-104366692D01*
X161325468Y-104140000D01*
X161305635Y-103913308D01*
X161246739Y-103693504D01*
X161150568Y-103487266D01*
X161149507Y-103485751D01*
X161020046Y-103300859D01*
X160859140Y-103139953D01*
X160672733Y-103009431D01*
X160614725Y-102982382D01*
X160562549Y-102936625D01*
X160543129Y-102870000D01*
X160562549Y-102803375D01*
X160614725Y-102757618D01*
X160639835Y-102745909D01*
X160672734Y-102730568D01*
X160859139Y-102600047D01*
X161020047Y-102439139D01*
X161150568Y-102252734D01*
X161246739Y-102046496D01*
X161305635Y-101826692D01*
X161325468Y-101600000D01*
X161305635Y-101373308D01*
X161246739Y-101153504D01*
X161150568Y-100947266D01*
X161149507Y-100945751D01*
X161020046Y-100760859D01*
X160859140Y-100599953D01*
X160672733Y-100469431D01*
X160614725Y-100442382D01*
X160562549Y-100396625D01*
X160543129Y-100330000D01*
X160562549Y-100263375D01*
X160614725Y-100217618D01*
X160672734Y-100190568D01*
X160859139Y-100060047D01*
X161020047Y-99899139D01*
X161150568Y-99712734D01*
X161246739Y-99506496D01*
X161305635Y-99286692D01*
X161325468Y-99060000D01*
X161305635Y-98833308D01*
X161246739Y-98613504D01*
X161150568Y-98407266D01*
X161132996Y-98382171D01*
X161020046Y-98220859D01*
X160859140Y-98059953D01*
X160672733Y-97929431D01*
X160614725Y-97902382D01*
X160562549Y-97856625D01*
X160543129Y-97790000D01*
X160562549Y-97723375D01*
X160614725Y-97677618D01*
X160672734Y-97650568D01*
X160859139Y-97520047D01*
X161020047Y-97359139D01*
X161150568Y-97172734D01*
X161246739Y-96966496D01*
X161305635Y-96746692D01*
X161325468Y-96520000D01*
X166334531Y-96520000D01*
X166354364Y-96746689D01*
X166413261Y-96966497D01*
X166509432Y-97172735D01*
X166639953Y-97359140D01*
X166800859Y-97520046D01*
X166987264Y-97650567D01*
X166987265Y-97650567D01*
X166987266Y-97650568D01*
X167045865Y-97677893D01*
X167098040Y-97723650D01*
X167117460Y-97790274D01*
X167098041Y-97856899D01*
X167045866Y-97902656D01*
X166987522Y-97929863D01*
X166801180Y-98060341D01*
X166640341Y-98221180D01*
X166509865Y-98407519D01*
X166413733Y-98613673D01*
X166361128Y-98809999D01*
X166361128Y-98810000D01*
X168918872Y-98810000D01*
X168918871Y-98809999D01*
X168866266Y-98613673D01*
X168770134Y-98407519D01*
X168639658Y-98221180D01*
X168478819Y-98060341D01*
X168292482Y-97929866D01*
X168234133Y-97902657D01*
X168181958Y-97856899D01*
X168162539Y-97790274D01*
X168181959Y-97723649D01*
X168234134Y-97677893D01*
X168292734Y-97650568D01*
X168479139Y-97520047D01*
X168640047Y-97359139D01*
X168770568Y-97172734D01*
X168866739Y-96966496D01*
X168925635Y-96746692D01*
X168945468Y-96520000D01*
X168925635Y-96293308D01*
X168866739Y-96073504D01*
X168770568Y-95867266D01*
X168752996Y-95842171D01*
X168640046Y-95680859D01*
X168479140Y-95519953D01*
X168292733Y-95389431D01*
X168234725Y-95362382D01*
X168182549Y-95316625D01*
X168163129Y-95250000D01*
X168182549Y-95183375D01*
X168234725Y-95137618D01*
X168235317Y-95137342D01*
X168292734Y-95110568D01*
X168479139Y-94980047D01*
X168640047Y-94819139D01*
X168770568Y-94632734D01*
X168866739Y-94426496D01*
X168925635Y-94206692D01*
X168945468Y-93980000D01*
X168925635Y-93753308D01*
X168866739Y-93533504D01*
X168770568Y-93327266D01*
X168756456Y-93307112D01*
X168640046Y-93140859D01*
X168479140Y-92979953D01*
X168292732Y-92849430D01*
X168234724Y-92822380D01*
X168182549Y-92776623D01*
X168163130Y-92709997D01*
X168182550Y-92643373D01*
X168234721Y-92597619D01*
X168292734Y-92570568D01*
X168479139Y-92440047D01*
X168640047Y-92279139D01*
X168770568Y-92092734D01*
X168866739Y-91886496D01*
X168925635Y-91666692D01*
X168945468Y-91440000D01*
X168925635Y-91213308D01*
X168866739Y-90993504D01*
X168770568Y-90787266D01*
X168769507Y-90785751D01*
X168640046Y-90600859D01*
X168479140Y-90439953D01*
X168292733Y-90309431D01*
X168234725Y-90282382D01*
X168182549Y-90236625D01*
X168163129Y-90170000D01*
X168182549Y-90103375D01*
X168234725Y-90057618D01*
X168292734Y-90030568D01*
X168479139Y-89900047D01*
X168640047Y-89739139D01*
X168770568Y-89552734D01*
X168866739Y-89346496D01*
X168925635Y-89126692D01*
X168945468Y-88900000D01*
X168925635Y-88673308D01*
X168866739Y-88453504D01*
X168770568Y-88247266D01*
X168752996Y-88222171D01*
X168640046Y-88060859D01*
X168479140Y-87899953D01*
X168292733Y-87769431D01*
X168234725Y-87742382D01*
X168182549Y-87696625D01*
X168163129Y-87630000D01*
X168182549Y-87563375D01*
X168234725Y-87517618D01*
X168292734Y-87490568D01*
X168479139Y-87360047D01*
X168640047Y-87199139D01*
X168770568Y-87012734D01*
X168866739Y-86806496D01*
X168925635Y-86586692D01*
X168945468Y-86360000D01*
X168925635Y-86133308D01*
X168866739Y-85913504D01*
X168770568Y-85707266D01*
X168769507Y-85705751D01*
X168640046Y-85520859D01*
X168479140Y-85359953D01*
X168292733Y-85229431D01*
X168234725Y-85202382D01*
X168182549Y-85156625D01*
X168163129Y-85090000D01*
X168182549Y-85023375D01*
X168234725Y-84977618D01*
X168292734Y-84950568D01*
X168479139Y-84820047D01*
X168640047Y-84659139D01*
X168770568Y-84472734D01*
X168866739Y-84266496D01*
X168925635Y-84046692D01*
X168945468Y-83820000D01*
X168925635Y-83593308D01*
X168866739Y-83373504D01*
X168770568Y-83167266D01*
X168752996Y-83142171D01*
X168640046Y-82980859D01*
X168479140Y-82819953D01*
X168292733Y-82689431D01*
X168234725Y-82662382D01*
X168182549Y-82616625D01*
X168163129Y-82550000D01*
X168182549Y-82483375D01*
X168234725Y-82437618D01*
X168267510Y-82422330D01*
X168292734Y-82410568D01*
X168479139Y-82280047D01*
X168640047Y-82119139D01*
X168770568Y-81932734D01*
X168866739Y-81726496D01*
X168925635Y-81506692D01*
X168945468Y-81280000D01*
X168925635Y-81053308D01*
X168866739Y-80833504D01*
X168770568Y-80627266D01*
X168760909Y-80613472D01*
X168640046Y-80440859D01*
X168479140Y-80279953D01*
X168292736Y-80149433D01*
X168234723Y-80122381D01*
X168234132Y-80122105D01*
X168181958Y-80076348D01*
X168162539Y-80009723D01*
X168181959Y-79943098D01*
X168234135Y-79897342D01*
X168292479Y-79870135D01*
X168478819Y-79739658D01*
X168639658Y-79578819D01*
X168770134Y-79392480D01*
X168866266Y-79186326D01*
X168918872Y-78990000D01*
X166361128Y-78990000D01*
X166413733Y-79186326D01*
X166509865Y-79392480D01*
X166640341Y-79578819D01*
X166801180Y-79739658D01*
X166987519Y-79870134D01*
X167045865Y-79897342D01*
X167098040Y-79943099D01*
X167117460Y-80009723D01*
X167098041Y-80076348D01*
X167045866Y-80122105D01*
X166987267Y-80149430D01*
X166800859Y-80279953D01*
X166639953Y-80440859D01*
X166509432Y-80627264D01*
X166413261Y-80833502D01*
X166354364Y-81053310D01*
X166334531Y-81280000D01*
X166354364Y-81506689D01*
X166413261Y-81726497D01*
X166509432Y-81932735D01*
X166639953Y-82119140D01*
X166800859Y-82280046D01*
X166932656Y-82372330D01*
X166987266Y-82410568D01*
X167045275Y-82437618D01*
X167097450Y-82483375D01*
X167116869Y-82550000D01*
X167097450Y-82616625D01*
X167045275Y-82662382D01*
X166987263Y-82689433D01*
X166800859Y-82819953D01*
X166639953Y-82980859D01*
X166509432Y-83167264D01*
X166413261Y-83373502D01*
X166354364Y-83593310D01*
X166334531Y-83820000D01*
X166354364Y-84046689D01*
X166413261Y-84266497D01*
X166509432Y-84472735D01*
X166639953Y-84659140D01*
X166800859Y-84820046D01*
X166933304Y-84912784D01*
X166987266Y-84950568D01*
X167045275Y-84977618D01*
X167097450Y-85023375D01*
X167116869Y-85090000D01*
X167097450Y-85156625D01*
X167045275Y-85202382D01*
X166987263Y-85229433D01*
X166800859Y-85359953D01*
X166639953Y-85520859D01*
X166509432Y-85707264D01*
X166413261Y-85913502D01*
X166354364Y-86133310D01*
X166334531Y-86360000D01*
X166354364Y-86586689D01*
X166413261Y-86806497D01*
X166509432Y-87012735D01*
X166639953Y-87199140D01*
X166800859Y-87360046D01*
X166973321Y-87480804D01*
X166987266Y-87490568D01*
X167045275Y-87517618D01*
X167097450Y-87563375D01*
X167116869Y-87630000D01*
X167097450Y-87696625D01*
X167045275Y-87742382D01*
X166987263Y-87769433D01*
X166800859Y-87899953D01*
X166639953Y-88060859D01*
X166509432Y-88247264D01*
X166413261Y-88453502D01*
X166354364Y-88673310D01*
X166334531Y-88900000D01*
X166354364Y-89126689D01*
X166413261Y-89346497D01*
X166509432Y-89552735D01*
X166639953Y-89739140D01*
X166800859Y-89900046D01*
X166973321Y-90020804D01*
X166987266Y-90030568D01*
X167045275Y-90057618D01*
X167097450Y-90103375D01*
X167116869Y-90170000D01*
X167097450Y-90236625D01*
X167045275Y-90282382D01*
X166987263Y-90309433D01*
X166800859Y-90439953D01*
X166639953Y-90600859D01*
X166509432Y-90787264D01*
X166413261Y-90993502D01*
X166354364Y-91213310D01*
X166334531Y-91440000D01*
X166354364Y-91666689D01*
X166413261Y-91886497D01*
X166509432Y-92092735D01*
X166639953Y-92279140D01*
X166800859Y-92440046D01*
X166855765Y-92478491D01*
X166987266Y-92570568D01*
X167045273Y-92597617D01*
X167097449Y-92643373D01*
X167116869Y-92709997D01*
X167097451Y-92776622D01*
X167045276Y-92822380D01*
X166987266Y-92849431D01*
X166800859Y-92979953D01*
X166639953Y-93140859D01*
X166509432Y-93327264D01*
X166413261Y-93533502D01*
X166354364Y-93753310D01*
X166334531Y-93980000D01*
X166354364Y-94206689D01*
X166413261Y-94426497D01*
X166509432Y-94632735D01*
X166639953Y-94819140D01*
X166800859Y-94980046D01*
X166987263Y-95110566D01*
X166987266Y-95110568D01*
X167044683Y-95137342D01*
X167045275Y-95137618D01*
X167097450Y-95183375D01*
X167116869Y-95250000D01*
X167097450Y-95316625D01*
X167045275Y-95362382D01*
X166987263Y-95389433D01*
X166800859Y-95519953D01*
X166639953Y-95680859D01*
X166509432Y-95867264D01*
X166413261Y-96073502D01*
X166354364Y-96293310D01*
X166334531Y-96520000D01*
X161325468Y-96520000D01*
X161305635Y-96293308D01*
X161246739Y-96073504D01*
X161150568Y-95867266D01*
X161132996Y-95842171D01*
X161020046Y-95680859D01*
X160859140Y-95519953D01*
X160672736Y-95389433D01*
X160614725Y-95362382D01*
X160614132Y-95362105D01*
X160561958Y-95316348D01*
X160542539Y-95249723D01*
X160561959Y-95183098D01*
X160614135Y-95137342D01*
X160672479Y-95110135D01*
X160858819Y-94979658D01*
X161019658Y-94818819D01*
X161150134Y-94632480D01*
X161246266Y-94426326D01*
X161298872Y-94230000D01*
X158741128Y-94230000D01*
X158793733Y-94426326D01*
X158889865Y-94632480D01*
X159020341Y-94818819D01*
X159181180Y-94979658D01*
X159367519Y-95110134D01*
X159425865Y-95137342D01*
X159478040Y-95183099D01*
X159497460Y-95249723D01*
X159478041Y-95316348D01*
X159425866Y-95362105D01*
X159367267Y-95389430D01*
X159180863Y-95519950D01*
X159021888Y-95678925D01*
X158967866Y-95710587D01*
X158905260Y-95711817D01*
X158850036Y-95682300D01*
X158828780Y-95649095D01*
X158825995Y-95650704D01*
X158724832Y-95475484D01*
X158598169Y-95334811D01*
X158445029Y-95223549D01*
X158272101Y-95146556D01*
X158086947Y-95107201D01*
X158086945Y-95107201D01*
X158027751Y-95107201D01*
X157980298Y-95097762D01*
X157940070Y-95070882D01*
X157354519Y-94485330D01*
X157327639Y-94445102D01*
X157318200Y-94397649D01*
X157318200Y-92464500D01*
X157334813Y-92402500D01*
X157380200Y-92357113D01*
X157442200Y-92340500D01*
X157574648Y-92340500D01*
X157759800Y-92301145D01*
X157759801Y-92301144D01*
X157759803Y-92301144D01*
X157929318Y-92225669D01*
X157979750Y-92214950D01*
X158030186Y-92225671D01*
X158199700Y-92301144D01*
X158384855Y-92340500D01*
X158384857Y-92340500D01*
X158574149Y-92340500D01*
X158574151Y-92340500D01*
X158711050Y-92311401D01*
X158759306Y-92301144D01*
X158877026Y-92248730D01*
X158925297Y-92238029D01*
X158973913Y-92247039D01*
X159015143Y-92274329D01*
X159180860Y-92440046D01*
X159367264Y-92570567D01*
X159367265Y-92570567D01*
X159367266Y-92570568D01*
X159425865Y-92597893D01*
X159478040Y-92643650D01*
X159497460Y-92710274D01*
X159478041Y-92776899D01*
X159425866Y-92822656D01*
X159367522Y-92849863D01*
X159181180Y-92980341D01*
X159020341Y-93141180D01*
X158889865Y-93327519D01*
X158793733Y-93533673D01*
X158741128Y-93729999D01*
X158741128Y-93730000D01*
X161298872Y-93730000D01*
X161298871Y-93729999D01*
X161246266Y-93533673D01*
X161150134Y-93327519D01*
X161019658Y-93141180D01*
X160858819Y-92980341D01*
X160672482Y-92849866D01*
X160614133Y-92822657D01*
X160561958Y-92776899D01*
X160542539Y-92710274D01*
X160561959Y-92643649D01*
X160614134Y-92597893D01*
X160672734Y-92570568D01*
X160859139Y-92440047D01*
X161020047Y-92279139D01*
X161150568Y-92092734D01*
X161246739Y-91886496D01*
X161305635Y-91666692D01*
X161325468Y-91440000D01*
X161305635Y-91213308D01*
X161246739Y-90993504D01*
X161150568Y-90787266D01*
X161149507Y-90785751D01*
X161020046Y-90600859D01*
X160859140Y-90439953D01*
X160672733Y-90309431D01*
X160614725Y-90282382D01*
X160562549Y-90236625D01*
X160543129Y-90170000D01*
X160562549Y-90103375D01*
X160614725Y-90057618D01*
X160672734Y-90030568D01*
X160859139Y-89900047D01*
X161020047Y-89739139D01*
X161150568Y-89552734D01*
X161246739Y-89346496D01*
X161305635Y-89126692D01*
X161325468Y-88900000D01*
X161305635Y-88673308D01*
X161246739Y-88453504D01*
X161150568Y-88247266D01*
X161132996Y-88222171D01*
X161020046Y-88060859D01*
X160859140Y-87899953D01*
X160672733Y-87769431D01*
X160614725Y-87742382D01*
X160562549Y-87696625D01*
X160543129Y-87630000D01*
X160562549Y-87563375D01*
X160614725Y-87517618D01*
X160672734Y-87490568D01*
X160859139Y-87360047D01*
X161020047Y-87199139D01*
X161150568Y-87012734D01*
X161246739Y-86806496D01*
X161305635Y-86586692D01*
X161325468Y-86360000D01*
X161305635Y-86133308D01*
X161246739Y-85913504D01*
X161150568Y-85707266D01*
X161149507Y-85705751D01*
X161020046Y-85520859D01*
X160859140Y-85359953D01*
X160672733Y-85229431D01*
X160614725Y-85202382D01*
X160562549Y-85156625D01*
X160543129Y-85090000D01*
X160562549Y-85023375D01*
X160614725Y-84977618D01*
X160672734Y-84950568D01*
X160859139Y-84820047D01*
X161020047Y-84659139D01*
X161150568Y-84472734D01*
X161246739Y-84266496D01*
X161305635Y-84046692D01*
X161325468Y-83820000D01*
X161305635Y-83593308D01*
X161246739Y-83373504D01*
X161150568Y-83167266D01*
X161132996Y-83142171D01*
X161020046Y-82980859D01*
X160859140Y-82819953D01*
X160672733Y-82689431D01*
X160614725Y-82662382D01*
X160562549Y-82616625D01*
X160543129Y-82550000D01*
X160562549Y-82483375D01*
X160614725Y-82437618D01*
X160647510Y-82422330D01*
X160672734Y-82410568D01*
X160859139Y-82280047D01*
X161020047Y-82119139D01*
X161150568Y-81932734D01*
X161246739Y-81726496D01*
X161305635Y-81506692D01*
X161325468Y-81280000D01*
X161305635Y-81053308D01*
X161246739Y-80833504D01*
X161150568Y-80627266D01*
X161140909Y-80613472D01*
X161020046Y-80440859D01*
X160859140Y-80279953D01*
X160672736Y-80149433D01*
X160614723Y-80122381D01*
X160562548Y-80076623D01*
X160543129Y-80009997D01*
X160562549Y-79943372D01*
X160614721Y-79897619D01*
X160672734Y-79870568D01*
X160859139Y-79740047D01*
X161020047Y-79579139D01*
X161150568Y-79392734D01*
X161246739Y-79186496D01*
X161305635Y-78966692D01*
X161325468Y-78740000D01*
X161305635Y-78513308D01*
X161246739Y-78293504D01*
X161150568Y-78087266D01*
X161139284Y-78071151D01*
X161020046Y-77900859D01*
X160859140Y-77739953D01*
X160834537Y-77722726D01*
X160795399Y-77677884D01*
X160781666Y-77619970D01*
X160796500Y-77562328D01*
X160836485Y-77518239D01*
X160892406Y-77497861D01*
X160927483Y-77494091D01*
X161062331Y-77443796D01*
X161177546Y-77357546D01*
X161263796Y-77242331D01*
X161314091Y-77107483D01*
X161320500Y-77047873D01*
X161320499Y-76200000D01*
X166334531Y-76200000D01*
X166354364Y-76426689D01*
X166413261Y-76646497D01*
X166509432Y-76852735D01*
X166639953Y-77039140D01*
X166800859Y-77200046D01*
X166987264Y-77330567D01*
X166987265Y-77330567D01*
X166987266Y-77330568D01*
X167045865Y-77357893D01*
X167098040Y-77403650D01*
X167117460Y-77470274D01*
X167098041Y-77536899D01*
X167045866Y-77582656D01*
X166987522Y-77609863D01*
X166801180Y-77740341D01*
X166640341Y-77901180D01*
X166509865Y-78087519D01*
X166413733Y-78293673D01*
X166361128Y-78489999D01*
X166361128Y-78490000D01*
X168918872Y-78490000D01*
X168918871Y-78489999D01*
X168866266Y-78293673D01*
X168770134Y-78087519D01*
X168639658Y-77901180D01*
X168478819Y-77740341D01*
X168292482Y-77609866D01*
X168234133Y-77582657D01*
X168181958Y-77536899D01*
X168162539Y-77470274D01*
X168181959Y-77403649D01*
X168234134Y-77357893D01*
X168292734Y-77330568D01*
X168479139Y-77200047D01*
X168640047Y-77039139D01*
X168770568Y-76852734D01*
X168866739Y-76646496D01*
X168925635Y-76426692D01*
X168945468Y-76200000D01*
X168925635Y-75973308D01*
X168866739Y-75753504D01*
X168770568Y-75547266D01*
X168756456Y-75527112D01*
X168640046Y-75360859D01*
X168479140Y-75199953D01*
X168292735Y-75069432D01*
X168086497Y-74973261D01*
X167866689Y-74914364D01*
X167640000Y-74894531D01*
X167413310Y-74914364D01*
X167193502Y-74973261D01*
X166987264Y-75069432D01*
X166800859Y-75199953D01*
X166639953Y-75360859D01*
X166509432Y-75547264D01*
X166413261Y-75753502D01*
X166354364Y-75973310D01*
X166334531Y-76200000D01*
X161320499Y-76200000D01*
X161320499Y-75352128D01*
X161314091Y-75292517D01*
X161263796Y-75157669D01*
X161177546Y-75042454D01*
X161062331Y-74956204D01*
X160927483Y-74905909D01*
X160867873Y-74899500D01*
X160867869Y-74899500D01*
X160867753Y-74899500D01*
X159229002Y-74899500D01*
X159167003Y-74882888D01*
X159121616Y-74837501D01*
X159105003Y-74775501D01*
X159105003Y-74742247D01*
X159107267Y-74721739D01*
X159105064Y-74651616D01*
X159105003Y-74647722D01*
X159105003Y-74620157D01*
X159105003Y-74620153D01*
X159104500Y-74616173D01*
X159103584Y-74604531D01*
X159103342Y-74596819D01*
X159102213Y-74560876D01*
X159096621Y-74541629D01*
X159092677Y-74522588D01*
X159090167Y-74502711D01*
X159074082Y-74462086D01*
X159070311Y-74451071D01*
X159058121Y-74409113D01*
X159047917Y-74391858D01*
X159039364Y-74374398D01*
X159031989Y-74355772D01*
X159031989Y-74355771D01*
X159006311Y-74320428D01*
X158999904Y-74310674D01*
X158977672Y-74273082D01*
X158963509Y-74258919D01*
X158950870Y-74244120D01*
X158939098Y-74227916D01*
X158905444Y-74200076D01*
X158896802Y-74192212D01*
X157894471Y-73189880D01*
X157392398Y-72687807D01*
X157359018Y-72626965D01*
X157363557Y-72557716D01*
X157404592Y-72501750D01*
X157469272Y-72476598D01*
X157683050Y-72457894D01*
X157715408Y-72455063D01*
X157943663Y-72393903D01*
X158157830Y-72294035D01*
X158351401Y-72158495D01*
X158518495Y-71991401D01*
X158648426Y-71805839D01*
X158692743Y-71766975D01*
X158750000Y-71752964D01*
X158807257Y-71766975D01*
X158851573Y-71805839D01*
X158981505Y-71991401D01*
X159148599Y-72158495D01*
X159342170Y-72294035D01*
X159556337Y-72393903D01*
X159784592Y-72455063D01*
X160020000Y-72475659D01*
X160255408Y-72455063D01*
X160483663Y-72393903D01*
X160697830Y-72294035D01*
X160891401Y-72158495D01*
X161058495Y-71991401D01*
X161188732Y-71805402D01*
X161233048Y-71766539D01*
X161290305Y-71752528D01*
X161347562Y-71766539D01*
X161391880Y-71805404D01*
X161521893Y-71991081D01*
X161688918Y-72158106D01*
X161882423Y-72293600D01*
X162096507Y-72393430D01*
X162309999Y-72450635D01*
X162310000Y-72450636D01*
X162310000Y-71370000D01*
X162810000Y-71370000D01*
X162810000Y-72450635D01*
X163023492Y-72393430D01*
X163237576Y-72293600D01*
X163431081Y-72158106D01*
X163598106Y-71991081D01*
X163733600Y-71797576D01*
X163833430Y-71583492D01*
X163890636Y-71370000D01*
X162810000Y-71370000D01*
X162310000Y-71370000D01*
X162310000Y-71120000D01*
X168904340Y-71120000D01*
X168924936Y-71355407D01*
X168969709Y-71522502D01*
X168986097Y-71583663D01*
X169085965Y-71797830D01*
X169221505Y-71991401D01*
X169388599Y-72158495D01*
X169582170Y-72294035D01*
X169796337Y-72393903D01*
X170024592Y-72455063D01*
X170260000Y-72475659D01*
X170495408Y-72455063D01*
X170723663Y-72393903D01*
X170937830Y-72294035D01*
X171131401Y-72158495D01*
X171298495Y-71991401D01*
X171408426Y-71834402D01*
X171452743Y-71795538D01*
X171510000Y-71781527D01*
X171567257Y-71795538D01*
X171611573Y-71834402D01*
X171721505Y-71991401D01*
X171888599Y-72158495D01*
X172082170Y-72294035D01*
X172296337Y-72393903D01*
X172524592Y-72455063D01*
X172760000Y-72475659D01*
X172995408Y-72455063D01*
X173223663Y-72393903D01*
X173437830Y-72294035D01*
X173631401Y-72158495D01*
X173798495Y-71991401D01*
X173908426Y-71834402D01*
X173952743Y-71795538D01*
X174010000Y-71781527D01*
X174067257Y-71795538D01*
X174111573Y-71834402D01*
X174221505Y-71991401D01*
X174388599Y-72158495D01*
X174582170Y-72294035D01*
X174796337Y-72393903D01*
X175024592Y-72455063D01*
X175260000Y-72475659D01*
X175495408Y-72455063D01*
X175723663Y-72393903D01*
X175937830Y-72294035D01*
X176131401Y-72158495D01*
X176298495Y-71991401D01*
X176434035Y-71797830D01*
X176533903Y-71583663D01*
X176595063Y-71355408D01*
X176615659Y-71120000D01*
X176595063Y-70884592D01*
X176533903Y-70656337D01*
X176434035Y-70442171D01*
X176298495Y-70248599D01*
X176131401Y-70081505D01*
X175937830Y-69945965D01*
X175723663Y-69846097D01*
X175662501Y-69829709D01*
X175495407Y-69784936D01*
X175260000Y-69764340D01*
X175024592Y-69784936D01*
X174796336Y-69846097D01*
X174582170Y-69945965D01*
X174388598Y-70081505D01*
X174221505Y-70248598D01*
X174111575Y-70405596D01*
X174067257Y-70444462D01*
X174010000Y-70458473D01*
X173952743Y-70444462D01*
X173908425Y-70405596D01*
X173849980Y-70322128D01*
X173798495Y-70248599D01*
X173631401Y-70081505D01*
X173437830Y-69945965D01*
X173223663Y-69846097D01*
X173162501Y-69829709D01*
X172995407Y-69784936D01*
X172760000Y-69764340D01*
X172524592Y-69784936D01*
X172296336Y-69846097D01*
X172082170Y-69945965D01*
X171888598Y-70081505D01*
X171721505Y-70248598D01*
X171611575Y-70405596D01*
X171567257Y-70444462D01*
X171510000Y-70458473D01*
X171452743Y-70444462D01*
X171408425Y-70405596D01*
X171349980Y-70322128D01*
X171298495Y-70248599D01*
X171131401Y-70081505D01*
X170937830Y-69945965D01*
X170723663Y-69846097D01*
X170662501Y-69829709D01*
X170495407Y-69784936D01*
X170260000Y-69764340D01*
X170024592Y-69784936D01*
X169796336Y-69846097D01*
X169582170Y-69945965D01*
X169388598Y-70081505D01*
X169221505Y-70248598D01*
X169085965Y-70442170D01*
X168986097Y-70656336D01*
X168924936Y-70884592D01*
X168904340Y-71120000D01*
X162310000Y-71120000D01*
X162310000Y-69789364D01*
X162810000Y-69789364D01*
X162810000Y-70870000D01*
X163890636Y-70870000D01*
X163890635Y-70869999D01*
X163833430Y-70656507D01*
X163733599Y-70442421D01*
X163598109Y-70248921D01*
X163431081Y-70081893D01*
X163237576Y-69946399D01*
X163023492Y-69846569D01*
X162810000Y-69789364D01*
X162310000Y-69789364D01*
X162309999Y-69789364D01*
X162096507Y-69846569D01*
X161882421Y-69946400D01*
X161688921Y-70081890D01*
X161521893Y-70248918D01*
X161391880Y-70434596D01*
X161347562Y-70473461D01*
X161290305Y-70487472D01*
X161233048Y-70473461D01*
X161188730Y-70434595D01*
X161119587Y-70335848D01*
X161058495Y-70248599D01*
X160891401Y-70081505D01*
X160697830Y-69945965D01*
X160483663Y-69846097D01*
X160422501Y-69829709D01*
X160255407Y-69784936D01*
X160020000Y-69764340D01*
X159784592Y-69784936D01*
X159556336Y-69846097D01*
X159342170Y-69945965D01*
X159148598Y-70081505D01*
X158981505Y-70248598D01*
X158851575Y-70434159D01*
X158807257Y-70473025D01*
X158750000Y-70487036D01*
X158692743Y-70473025D01*
X158648425Y-70434159D01*
X158569980Y-70322128D01*
X158518495Y-70248599D01*
X158351401Y-70081505D01*
X158157830Y-69945965D01*
X157943663Y-69846097D01*
X157882501Y-69829709D01*
X157715407Y-69784936D01*
X157480000Y-69764340D01*
X157244592Y-69784936D01*
X157016336Y-69846097D01*
X156802170Y-69945965D01*
X156608598Y-70081505D01*
X156441505Y-70248598D01*
X156311575Y-70434159D01*
X156267257Y-70473025D01*
X156210000Y-70487036D01*
X156152743Y-70473025D01*
X156108425Y-70434159D01*
X156029980Y-70322128D01*
X155978495Y-70248599D01*
X155811401Y-70081505D01*
X155617830Y-69945965D01*
X155403663Y-69846097D01*
X155342501Y-69829709D01*
X155175407Y-69784936D01*
X154940000Y-69764340D01*
X154704592Y-69784936D01*
X154476336Y-69846097D01*
X154262170Y-69945965D01*
X154068598Y-70081505D01*
X153901505Y-70248598D01*
X153771575Y-70434159D01*
X153727257Y-70473025D01*
X153670000Y-70487036D01*
X153612743Y-70473025D01*
X153568425Y-70434159D01*
X153489980Y-70322128D01*
X153438495Y-70248599D01*
X153271401Y-70081505D01*
X153077830Y-69945965D01*
X152863663Y-69846097D01*
X152802501Y-69829709D01*
X152635407Y-69784936D01*
X152400000Y-69764340D01*
X152164592Y-69784936D01*
X151936336Y-69846097D01*
X151722170Y-69945965D01*
X151528601Y-70081503D01*
X151406673Y-70203431D01*
X151353926Y-70234726D01*
X151292634Y-70236915D01*
X151237789Y-70209462D01*
X151202810Y-70159082D01*
X151195658Y-70139907D01*
X151153796Y-70027669D01*
X151067546Y-69912454D01*
X150952331Y-69826204D01*
X150817483Y-69775909D01*
X150757873Y-69769500D01*
X150757869Y-69769500D01*
X148962130Y-69769500D01*
X148902515Y-69775909D01*
X148767669Y-69826204D01*
X148652454Y-69912454D01*
X148566204Y-70027668D01*
X148515909Y-70162516D01*
X148514306Y-70177419D01*
X148509783Y-70219500D01*
X148509500Y-70222130D01*
X148509500Y-72017869D01*
X148515909Y-72077484D01*
X148523494Y-72097819D01*
X148566204Y-72212331D01*
X148652454Y-72327546D01*
X148767669Y-72413796D01*
X148902517Y-72464091D01*
X148962127Y-72470500D01*
X150757872Y-72470499D01*
X150817483Y-72464091D01*
X150952331Y-72413796D01*
X151067546Y-72327546D01*
X151153796Y-72212331D01*
X151202810Y-72080916D01*
X151237789Y-72030537D01*
X151292634Y-72003084D01*
X151353927Y-72005273D01*
X151406673Y-72036569D01*
X151528599Y-72158495D01*
X151722170Y-72294035D01*
X151936337Y-72393903D01*
X152148070Y-72450636D01*
X152164592Y-72455063D01*
X152410728Y-72476598D01*
X152475407Y-72501750D01*
X152516443Y-72557715D01*
X152520982Y-72626963D01*
X152487603Y-72687806D01*
X152452230Y-72723180D01*
X152412002Y-72750061D01*
X152364548Y-72759500D01*
X152305352Y-72759500D01*
X152120197Y-72798855D01*
X151947269Y-72875848D01*
X151794129Y-72987110D01*
X151667466Y-73127783D01*
X151572820Y-73291715D01*
X151514326Y-73471742D01*
X151494540Y-73660000D01*
X151514326Y-73848257D01*
X151572820Y-74028284D01*
X151667466Y-74192216D01*
X151794129Y-74332889D01*
X151947269Y-74444151D01*
X152120197Y-74521144D01*
X152305352Y-74560500D01*
X152305354Y-74560500D01*
X152494646Y-74560500D01*
X152494648Y-74560500D01*
X152627487Y-74532264D01*
X152679803Y-74521144D01*
X152852730Y-74444151D01*
X152852729Y-74444151D01*
X153005870Y-74332889D01*
X153132533Y-74192216D01*
X153227179Y-74028284D01*
X153231100Y-74016215D01*
X153285674Y-73848256D01*
X153303321Y-73680343D01*
X153314723Y-73639922D01*
X153338970Y-73605620D01*
X153347783Y-73596809D01*
X153388008Y-73569936D01*
X153435454Y-73560500D01*
X153912432Y-73560500D01*
X153970646Y-73575015D01*
X154015233Y-73615160D01*
X154035752Y-73671538D01*
X154042256Y-73733412D01*
X154054326Y-73848257D01*
X154112820Y-74028284D01*
X154207466Y-74192216D01*
X154334129Y-74332889D01*
X154487269Y-74444151D01*
X154660197Y-74521144D01*
X154845352Y-74560500D01*
X154845354Y-74560500D01*
X154904548Y-74560500D01*
X154952001Y-74569939D01*
X154992229Y-74596819D01*
X155083141Y-74687731D01*
X155114042Y-74739158D01*
X155117182Y-74799072D01*
X155091826Y-74853448D01*
X155043911Y-74889555D01*
X154984653Y-74898940D01*
X154940000Y-74895033D01*
X154713397Y-74914858D01*
X154493672Y-74973733D01*
X154287516Y-75069865D01*
X154214526Y-75120973D01*
X156030881Y-76937328D01*
X156057761Y-76977556D01*
X156067200Y-77025009D01*
X156067200Y-80454990D01*
X156057761Y-80502443D01*
X156030881Y-80542671D01*
X155293553Y-81279998D01*
X155293553Y-81279999D01*
X156030881Y-82017328D01*
X156057761Y-82057556D01*
X156067200Y-82105009D01*
X156067200Y-85348651D01*
X156053685Y-85404946D01*
X156016085Y-85448969D01*
X155962598Y-85471124D01*
X155904882Y-85466582D01*
X155855519Y-85436332D01*
X155779140Y-85359953D01*
X155592735Y-85229432D01*
X155386497Y-85133261D01*
X155166689Y-85074364D01*
X154939999Y-85054531D01*
X154713310Y-85074364D01*
X154493502Y-85133261D01*
X154287264Y-85229432D01*
X154100859Y-85359953D01*
X153939953Y-85520859D01*
X153809432Y-85707264D01*
X153713261Y-85913502D01*
X153654364Y-86133310D01*
X153634531Y-86360000D01*
X153654364Y-86586689D01*
X153713261Y-86806497D01*
X153809432Y-87012735D01*
X153939953Y-87199140D01*
X154100859Y-87360046D01*
X154287264Y-87490567D01*
X154287265Y-87490567D01*
X154287266Y-87490568D01*
X154493504Y-87586739D01*
X154713308Y-87645635D01*
X154940000Y-87665468D01*
X155166692Y-87645635D01*
X155386496Y-87586739D01*
X155592734Y-87490568D01*
X155779139Y-87360047D01*
X155816200Y-87322986D01*
X155855519Y-87283668D01*
X155904882Y-87253418D01*
X155962598Y-87248876D01*
X156016085Y-87271031D01*
X156053685Y-87315054D01*
X156067200Y-87371349D01*
X156067200Y-90428651D01*
X156053685Y-90484946D01*
X156016085Y-90528969D01*
X155962598Y-90551124D01*
X155904882Y-90546582D01*
X155855519Y-90516332D01*
X155779140Y-90439953D01*
X155592735Y-90309432D01*
X155386497Y-90213261D01*
X155166689Y-90154364D01*
X154940000Y-90134531D01*
X154713310Y-90154364D01*
X154493502Y-90213261D01*
X154287264Y-90309432D01*
X154100859Y-90439953D01*
X153939953Y-90600859D01*
X153809432Y-90787264D01*
X153713261Y-90993502D01*
X153654364Y-91213310D01*
X153634531Y-91440000D01*
X153654364Y-91666689D01*
X153713261Y-91886497D01*
X153809432Y-92092735D01*
X153939953Y-92279140D01*
X154100859Y-92440046D01*
X154287264Y-92570567D01*
X154287265Y-92570567D01*
X154287266Y-92570568D01*
X154493504Y-92666739D01*
X154713308Y-92725635D01*
X154940000Y-92745468D01*
X155166692Y-92725635D01*
X155235048Y-92707319D01*
X155299234Y-92707319D01*
X155354822Y-92739413D01*
X155580881Y-92965472D01*
X155607761Y-93005700D01*
X155617200Y-93053153D01*
X155617200Y-95206199D01*
X155601914Y-95265842D01*
X155559825Y-95310780D01*
X155501310Y-95329934D01*
X155440795Y-95318581D01*
X155386497Y-95293261D01*
X155166689Y-95234364D01*
X154940000Y-95214531D01*
X154713310Y-95234364D01*
X154493502Y-95293261D01*
X154287264Y-95389432D01*
X154100859Y-95519953D01*
X153939953Y-95680859D01*
X153809432Y-95867264D01*
X153713261Y-96073502D01*
X153654364Y-96293310D01*
X153634531Y-96520000D01*
X153654364Y-96746689D01*
X153713261Y-96966497D01*
X153809432Y-97172735D01*
X153939953Y-97359140D01*
X154100859Y-97520046D01*
X154287264Y-97650567D01*
X154287265Y-97650567D01*
X154287266Y-97650568D01*
X154493504Y-97746739D01*
X154713308Y-97805635D01*
X154940000Y-97825468D01*
X155166692Y-97805635D01*
X155386496Y-97746739D01*
X155436010Y-97723650D01*
X155440795Y-97721419D01*
X155501310Y-97710066D01*
X155559825Y-97729220D01*
X155601914Y-97774158D01*
X155617200Y-97833801D01*
X155617200Y-100286199D01*
X155601914Y-100345842D01*
X155559825Y-100390780D01*
X155501310Y-100409934D01*
X155440795Y-100398581D01*
X155386497Y-100373261D01*
X155166689Y-100314364D01*
X154940000Y-100294531D01*
X154713310Y-100314364D01*
X154493502Y-100373261D01*
X154287264Y-100469432D01*
X154100859Y-100599953D01*
X153939953Y-100760859D01*
X153809432Y-100947264D01*
X153713261Y-101153502D01*
X153654364Y-101373310D01*
X153634531Y-101600000D01*
X153654364Y-101826689D01*
X153713261Y-102046497D01*
X153809432Y-102252735D01*
X153939953Y-102439140D01*
X154100859Y-102600046D01*
X154287264Y-102730567D01*
X154287265Y-102730567D01*
X154287266Y-102730568D01*
X154493504Y-102826739D01*
X154713308Y-102885635D01*
X154864436Y-102898857D01*
X154939999Y-102905468D01*
X154939999Y-102905467D01*
X154940000Y-102905468D01*
X154955193Y-102904138D01*
X154984099Y-102901610D01*
X155043357Y-102910995D01*
X155091273Y-102947102D01*
X155116629Y-103001477D01*
X155113489Y-103061392D01*
X155082588Y-103112819D01*
X152384189Y-105811218D01*
X152336674Y-105840852D01*
X152280967Y-105846559D01*
X152228430Y-105827177D01*
X152189776Y-105786659D01*
X152185542Y-105779500D01*
X152173170Y-105758579D01*
X152159006Y-105744415D01*
X152146369Y-105729620D01*
X152134595Y-105713414D01*
X152113436Y-105695910D01*
X152100935Y-105685568D01*
X152092305Y-105677714D01*
X149852604Y-103438013D01*
X149839708Y-103421915D01*
X149788577Y-103373900D01*
X149785780Y-103371189D01*
X149766272Y-103351681D01*
X149763092Y-103349214D01*
X149754226Y-103341641D01*
X149722384Y-103311740D01*
X149704826Y-103302087D01*
X149688566Y-103291406D01*
X149672738Y-103279129D01*
X149632653Y-103261782D01*
X149622163Y-103256643D01*
X149583893Y-103235604D01*
X149564493Y-103230623D01*
X149546086Y-103224321D01*
X149527699Y-103216364D01*
X149484560Y-103209531D01*
X149473126Y-103207163D01*
X149430821Y-103196302D01*
X149410786Y-103196302D01*
X149391388Y-103194775D01*
X149374694Y-103192131D01*
X149371607Y-103191642D01*
X149371606Y-103191642D01*
X149338553Y-103194766D01*
X149328127Y-103195752D01*
X149316458Y-103196302D01*
X147948651Y-103196302D01*
X147901198Y-103186863D01*
X147860970Y-103159983D01*
X147728879Y-103027892D01*
X147698299Y-102977498D01*
X147694444Y-102918678D01*
X147718184Y-102864724D01*
X147764156Y-102827829D01*
X147766490Y-102826740D01*
X147766496Y-102826739D01*
X147972734Y-102730568D01*
X148159139Y-102600047D01*
X148320047Y-102439139D01*
X148450568Y-102252734D01*
X148546739Y-102046496D01*
X148605635Y-101826692D01*
X148625468Y-101600000D01*
X148605635Y-101373308D01*
X148546739Y-101153504D01*
X148450568Y-100947266D01*
X148449507Y-100945751D01*
X148320046Y-100760859D01*
X148159140Y-100599953D01*
X147972735Y-100469432D01*
X147766497Y-100373261D01*
X147546689Y-100314364D01*
X147320000Y-100294531D01*
X147093308Y-100314364D01*
X146976593Y-100345638D01*
X146920309Y-100347480D01*
X146869013Y-100324239D01*
X146833288Y-100280707D01*
X146820500Y-100225863D01*
X146820500Y-97894137D01*
X146833288Y-97839293D01*
X146869013Y-97795761D01*
X146920309Y-97772520D01*
X146976593Y-97774362D01*
X147091464Y-97805141D01*
X147093308Y-97805635D01*
X147320000Y-97825468D01*
X147546692Y-97805635D01*
X147766496Y-97746739D01*
X147972734Y-97650568D01*
X148159139Y-97520047D01*
X148320047Y-97359139D01*
X148450568Y-97172734D01*
X148546739Y-96966496D01*
X148605635Y-96746692D01*
X148625468Y-96520000D01*
X148605635Y-96293308D01*
X148546739Y-96073504D01*
X148450568Y-95867266D01*
X148432996Y-95842171D01*
X148320046Y-95680859D01*
X148159140Y-95519953D01*
X147972735Y-95389432D01*
X147766497Y-95293261D01*
X147546689Y-95234364D01*
X147320000Y-95214531D01*
X147093310Y-95234364D01*
X146873502Y-95293261D01*
X146667264Y-95389432D01*
X146480862Y-95519951D01*
X146417631Y-95583182D01*
X146377402Y-95610061D01*
X146329950Y-95619500D01*
X146254500Y-95619500D01*
X146192500Y-95602887D01*
X146147113Y-95557500D01*
X146130500Y-95495500D01*
X146130500Y-92389049D01*
X146144015Y-92332754D01*
X146181615Y-92288731D01*
X146235102Y-92266576D01*
X146292818Y-92271118D01*
X146342181Y-92301368D01*
X146480859Y-92440046D01*
X146667264Y-92570567D01*
X146667265Y-92570567D01*
X146667266Y-92570568D01*
X146873504Y-92666739D01*
X147093308Y-92725635D01*
X147320000Y-92745468D01*
X147546692Y-92725635D01*
X147766496Y-92666739D01*
X147972734Y-92570568D01*
X148159139Y-92440047D01*
X148320047Y-92279139D01*
X148450568Y-92092734D01*
X148546739Y-91886496D01*
X148605635Y-91666692D01*
X148625468Y-91440000D01*
X148605635Y-91213308D01*
X148546739Y-90993504D01*
X148450568Y-90787266D01*
X148449507Y-90785751D01*
X148320046Y-90600859D01*
X148159140Y-90439953D01*
X147972735Y-90309432D01*
X147766497Y-90213261D01*
X147546689Y-90154364D01*
X147320000Y-90134531D01*
X147093310Y-90154364D01*
X146873502Y-90213261D01*
X146667264Y-90309432D01*
X146480859Y-90439953D01*
X146342181Y-90578632D01*
X146292818Y-90608882D01*
X146235102Y-90613424D01*
X146181615Y-90591269D01*
X146144015Y-90547246D01*
X146130500Y-90490951D01*
X146130500Y-89884955D01*
X146139939Y-89837502D01*
X146166819Y-89797274D01*
X147267771Y-88696322D01*
X147307999Y-88669442D01*
X147355452Y-88660003D01*
X147414648Y-88660003D01*
X147538083Y-88633765D01*
X147599803Y-88620647D01*
X147772730Y-88543654D01*
X147846510Y-88490050D01*
X147925870Y-88432392D01*
X148052533Y-88291719D01*
X148147179Y-88127787D01*
X148147179Y-88127786D01*
X148205674Y-87947759D01*
X148225460Y-87759503D01*
X148205674Y-87571247D01*
X148165947Y-87448983D01*
X148163305Y-87381721D01*
X148196195Y-87322990D01*
X148320047Y-87199139D01*
X148450568Y-87012734D01*
X148546739Y-86806496D01*
X148605635Y-86586692D01*
X148625468Y-86360000D01*
X148605635Y-86133308D01*
X148546739Y-85913504D01*
X148450568Y-85707266D01*
X148449507Y-85705751D01*
X148320046Y-85520859D01*
X148159140Y-85359953D01*
X147972735Y-85229432D01*
X147766497Y-85133261D01*
X147546689Y-85074364D01*
X147319999Y-85054531D01*
X147093310Y-85074364D01*
X146873502Y-85133261D01*
X146667264Y-85229432D01*
X146480859Y-85359953D01*
X146319953Y-85520859D01*
X146189432Y-85707264D01*
X146093261Y-85913502D01*
X146034364Y-86133310D01*
X146014531Y-86360000D01*
X146034364Y-86586689D01*
X146093261Y-86806497D01*
X146189432Y-87012735D01*
X146319950Y-87199136D01*
X146319952Y-87199138D01*
X146319953Y-87199139D01*
X146443802Y-87322988D01*
X146476694Y-87381720D01*
X146474051Y-87448986D01*
X146434326Y-87571245D01*
X146416679Y-87739152D01*
X146405279Y-87779573D01*
X146381039Y-87813871D01*
X145617181Y-88577731D01*
X145567818Y-88607981D01*
X145510102Y-88612523D01*
X145456615Y-88590368D01*
X145419015Y-88546345D01*
X145405500Y-88490050D01*
X145405500Y-87058687D01*
X145413736Y-87014249D01*
X145437347Y-86975717D01*
X145512533Y-86892216D01*
X145515836Y-86886496D01*
X145607179Y-86728284D01*
X145607179Y-86728283D01*
X145665674Y-86548256D01*
X145685460Y-86360000D01*
X145665674Y-86171744D01*
X145607760Y-85993504D01*
X145607179Y-85991715D01*
X145512535Y-85827786D01*
X145476050Y-85787266D01*
X145437347Y-85744282D01*
X145413736Y-85705751D01*
X145405500Y-85661313D01*
X145405500Y-82029500D01*
X145422113Y-81967500D01*
X145467500Y-81922113D01*
X145529500Y-81905500D01*
X146616253Y-81905500D01*
X146666688Y-81916220D01*
X146708401Y-81946526D01*
X146714129Y-81952888D01*
X146867270Y-82064151D01*
X146867271Y-82064151D01*
X146867272Y-82064152D01*
X147040197Y-82141144D01*
X147225352Y-82180500D01*
X147225354Y-82180500D01*
X147414646Y-82180500D01*
X147414648Y-82180500D01*
X147551547Y-82151401D01*
X147599803Y-82141144D01*
X147772730Y-82064151D01*
X147853495Y-82005472D01*
X147925870Y-81952889D01*
X147931598Y-81946528D01*
X148052533Y-81812216D01*
X148147179Y-81648284D01*
X148205674Y-81468256D01*
X148225460Y-81280000D01*
X148634531Y-81280000D01*
X148654364Y-81506689D01*
X148713261Y-81726497D01*
X148809432Y-81932735D01*
X148939953Y-82119140D01*
X149100859Y-82280046D01*
X149287264Y-82410567D01*
X149287265Y-82410567D01*
X149287266Y-82410568D01*
X149493504Y-82506739D01*
X149713308Y-82565635D01*
X149940000Y-82585468D01*
X150166692Y-82565635D01*
X150386496Y-82506739D01*
X150592734Y-82410568D01*
X150666344Y-82359026D01*
X154214526Y-82359026D01*
X154287515Y-82410133D01*
X154493673Y-82506266D01*
X154713397Y-82565141D01*
X154939999Y-82584966D01*
X155166602Y-82565141D01*
X155386326Y-82506266D01*
X155592480Y-82410134D01*
X155665472Y-82359025D01*
X154940001Y-81633553D01*
X154940000Y-81633553D01*
X154214526Y-82359025D01*
X154214526Y-82359026D01*
X150666344Y-82359026D01*
X150779139Y-82280047D01*
X150940047Y-82119139D01*
X151070568Y-81932734D01*
X151166739Y-81726496D01*
X151225635Y-81506692D01*
X151245468Y-81280000D01*
X153635033Y-81280000D01*
X153654858Y-81506602D01*
X153713733Y-81726326D01*
X153809866Y-81932484D01*
X153860972Y-82005471D01*
X153860974Y-82005472D01*
X154586446Y-81280001D01*
X154586446Y-81280000D01*
X153860973Y-80554526D01*
X153860973Y-80554527D01*
X153809865Y-80627516D01*
X153713733Y-80833672D01*
X153654858Y-81053397D01*
X153635033Y-81280000D01*
X151245468Y-81280000D01*
X151225635Y-81053308D01*
X151166739Y-80833504D01*
X151070568Y-80627266D01*
X151060909Y-80613472D01*
X150940046Y-80440859D01*
X150779140Y-80279953D01*
X150666344Y-80200973D01*
X154214526Y-80200973D01*
X154940000Y-80926446D01*
X154940001Y-80926446D01*
X155665472Y-80200974D01*
X155665471Y-80200972D01*
X155592484Y-80149866D01*
X155386326Y-80053733D01*
X155166602Y-79994858D01*
X154940000Y-79975033D01*
X154713397Y-79994858D01*
X154493672Y-80053733D01*
X154287516Y-80149865D01*
X154214527Y-80200973D01*
X154214526Y-80200973D01*
X150666344Y-80200973D01*
X150592735Y-80149432D01*
X150386497Y-80053261D01*
X150166689Y-79994364D01*
X149940000Y-79974531D01*
X149713310Y-79994364D01*
X149493502Y-80053261D01*
X149287264Y-80149432D01*
X149100859Y-80279953D01*
X148939953Y-80440859D01*
X148809432Y-80627264D01*
X148713261Y-80833502D01*
X148654364Y-81053310D01*
X148634531Y-81280000D01*
X148225460Y-81280000D01*
X148205674Y-81091744D01*
X148147179Y-80911716D01*
X148147179Y-80911715D01*
X148052533Y-80747783D01*
X147925870Y-80607110D01*
X147772730Y-80495848D01*
X147599802Y-80418855D01*
X147414648Y-80379500D01*
X147414646Y-80379500D01*
X147225354Y-80379500D01*
X147225352Y-80379500D01*
X147040197Y-80418855D01*
X146867272Y-80495847D01*
X146802825Y-80542671D01*
X146714129Y-80607112D01*
X146708401Y-80613473D01*
X146666688Y-80643780D01*
X146616253Y-80654500D01*
X145529500Y-80654500D01*
X145467500Y-80637887D01*
X145422113Y-80592500D01*
X145405500Y-80530500D01*
X145405500Y-79050452D01*
X145414939Y-79002999D01*
X145441819Y-78962771D01*
X147267772Y-77136819D01*
X147308000Y-77109939D01*
X147355453Y-77100500D01*
X147414648Y-77100500D01*
X147538083Y-77074262D01*
X147599803Y-77061144D01*
X147772730Y-76984151D01*
X147853495Y-76925472D01*
X147925870Y-76872889D01*
X148052533Y-76732216D01*
X148147179Y-76568284D01*
X148193186Y-76426689D01*
X148205674Y-76388256D01*
X148225460Y-76200000D01*
X148634531Y-76200000D01*
X148654364Y-76426689D01*
X148713261Y-76646497D01*
X148809432Y-76852735D01*
X148939953Y-77039140D01*
X149100859Y-77200046D01*
X149287264Y-77330567D01*
X149287265Y-77330567D01*
X149287266Y-77330568D01*
X149493504Y-77426739D01*
X149713308Y-77485635D01*
X149853052Y-77497861D01*
X149939999Y-77505468D01*
X149939999Y-77505467D01*
X149940000Y-77505468D01*
X150166692Y-77485635D01*
X150386496Y-77426739D01*
X150592734Y-77330568D01*
X150666344Y-77279026D01*
X154214526Y-77279026D01*
X154287515Y-77330133D01*
X154493673Y-77426266D01*
X154713397Y-77485141D01*
X154939999Y-77504966D01*
X155166602Y-77485141D01*
X155386326Y-77426266D01*
X155592480Y-77330134D01*
X155665472Y-77279025D01*
X154940001Y-76553553D01*
X154940000Y-76553553D01*
X154214526Y-77279025D01*
X154214526Y-77279026D01*
X150666344Y-77279026D01*
X150779139Y-77200047D01*
X150940047Y-77039139D01*
X151070568Y-76852734D01*
X151166739Y-76646496D01*
X151225635Y-76426692D01*
X151245468Y-76200000D01*
X151245468Y-76199999D01*
X153635033Y-76199999D01*
X153654858Y-76426602D01*
X153713733Y-76646326D01*
X153809866Y-76852484D01*
X153860972Y-76925471D01*
X153860973Y-76925472D01*
X154586446Y-76200000D01*
X154586446Y-76199998D01*
X153860973Y-75474527D01*
X153809865Y-75547516D01*
X153713733Y-75753672D01*
X153654858Y-75973397D01*
X153635033Y-76199999D01*
X151245468Y-76199999D01*
X151225635Y-75973308D01*
X151166739Y-75753504D01*
X151070568Y-75547266D01*
X151056456Y-75527112D01*
X150940046Y-75360859D01*
X150779140Y-75199953D01*
X150592735Y-75069432D01*
X150386497Y-74973261D01*
X150166689Y-74914364D01*
X149940000Y-74894531D01*
X149713310Y-74914364D01*
X149493502Y-74973261D01*
X149287264Y-75069432D01*
X149100859Y-75199953D01*
X148939953Y-75360859D01*
X148809432Y-75547264D01*
X148713261Y-75753502D01*
X148654364Y-75973310D01*
X148634531Y-76200000D01*
X148225460Y-76200000D01*
X148205674Y-76011744D01*
X148147179Y-75831716D01*
X148147179Y-75831715D01*
X148052533Y-75667783D01*
X147925870Y-75527110D01*
X147772730Y-75415848D01*
X147599802Y-75338855D01*
X147414648Y-75299500D01*
X147414646Y-75299500D01*
X147225354Y-75299500D01*
X147225352Y-75299500D01*
X147040197Y-75338855D01*
X146867269Y-75415848D01*
X146714129Y-75527110D01*
X146587466Y-75667783D01*
X146492820Y-75831715D01*
X146434326Y-76011742D01*
X146416679Y-76179649D01*
X146405279Y-76220070D01*
X146381039Y-76254368D01*
X144396208Y-78239199D01*
X144380110Y-78252096D01*
X144332096Y-78303225D01*
X144329391Y-78306017D01*
X144309874Y-78325534D01*
X144307415Y-78328705D01*
X144299842Y-78337572D01*
X144269935Y-78369420D01*
X144260285Y-78386974D01*
X144249609Y-78403228D01*
X144237326Y-78419063D01*
X144219975Y-78459158D01*
X144214838Y-78469644D01*
X144193802Y-78507907D01*
X144188821Y-78527309D01*
X144182520Y-78545711D01*
X144174561Y-78564102D01*
X144167728Y-78607242D01*
X144165360Y-78618674D01*
X144154500Y-78660978D01*
X144154500Y-78681016D01*
X144152973Y-78700415D01*
X144149840Y-78720194D01*
X144153950Y-78763675D01*
X144154500Y-78775344D01*
X144154500Y-81209151D01*
X144152304Y-81232385D01*
X144150772Y-81240412D01*
X144154255Y-81295759D01*
X144154500Y-81303545D01*
X144154500Y-85661313D01*
X144146264Y-85705751D01*
X144122652Y-85744282D01*
X144089545Y-85781051D01*
X144047464Y-85827786D01*
X143952820Y-85991715D01*
X143894326Y-86171742D01*
X143874540Y-86360000D01*
X143894326Y-86548257D01*
X143952820Y-86728284D01*
X144047464Y-86892213D01*
X144047467Y-86892216D01*
X144122652Y-86975717D01*
X144146264Y-87014249D01*
X144154500Y-87058687D01*
X144154500Y-90741313D01*
X144146264Y-90785751D01*
X144122652Y-90824282D01*
X144089545Y-90861051D01*
X144047464Y-90907786D01*
X143952820Y-91071715D01*
X143894326Y-91251742D01*
X143874540Y-91439999D01*
X143894326Y-91628257D01*
X143952820Y-91808284D01*
X144047464Y-91972213D01*
X144047467Y-91972216D01*
X144122652Y-92055717D01*
X144146264Y-92094249D01*
X144154500Y-92138687D01*
X144154500Y-100901313D01*
X144146264Y-100945751D01*
X144122652Y-100984282D01*
X144089545Y-101021051D01*
X144047464Y-101067786D01*
X143952820Y-101231715D01*
X143894326Y-101411742D01*
X143881798Y-101530946D01*
X143874540Y-101600000D01*
X143879704Y-101649130D01*
X143894326Y-101788257D01*
X143952820Y-101968284D01*
X144047466Y-102132216D01*
X144174129Y-102272889D01*
X144327269Y-102384151D01*
X144500197Y-102461144D01*
X144685352Y-102500500D01*
X144811523Y-102500500D01*
X144863149Y-102511758D01*
X144905401Y-102543488D01*
X144916130Y-102563257D01*
X144918410Y-102561909D01*
X144936580Y-102592635D01*
X144945136Y-102610100D01*
X144952514Y-102628732D01*
X144959607Y-102638495D01*
X144978180Y-102664059D01*
X144984593Y-102673822D01*
X145006826Y-102711416D01*
X145006829Y-102711419D01*
X145006830Y-102711420D01*
X145020995Y-102725585D01*
X145033627Y-102740375D01*
X145045406Y-102756587D01*
X145079058Y-102784426D01*
X145087699Y-102792289D01*
X146658181Y-104362771D01*
X146685061Y-104402999D01*
X146694500Y-104450452D01*
X146694500Y-104870547D01*
X146680985Y-104926842D01*
X146643385Y-104970865D01*
X146589898Y-104993020D01*
X146532182Y-104988478D01*
X146482819Y-104958228D01*
X146231260Y-104706669D01*
X146207020Y-104672371D01*
X146195621Y-104631955D01*
X146177974Y-104464044D01*
X146119479Y-104284016D01*
X146119479Y-104284015D01*
X146024833Y-104120083D01*
X145898170Y-103979410D01*
X145745030Y-103868148D01*
X145572102Y-103791155D01*
X145386948Y-103751800D01*
X145386946Y-103751800D01*
X145197654Y-103751800D01*
X145197652Y-103751800D01*
X145012497Y-103791155D01*
X144839569Y-103868148D01*
X144686429Y-103979410D01*
X144559766Y-104120083D01*
X144465120Y-104284015D01*
X144406626Y-104464042D01*
X144406625Y-104464044D01*
X144406626Y-104464044D01*
X144386840Y-104652300D01*
X144392554Y-104706669D01*
X144406626Y-104840557D01*
X144465120Y-105020584D01*
X144536375Y-105144000D01*
X144552988Y-105206000D01*
X144536375Y-105268000D01*
X144490988Y-105313387D01*
X144428988Y-105330000D01*
X143882176Y-105330000D01*
X143822624Y-105336402D01*
X143687910Y-105386647D01*
X143572811Y-105472811D01*
X143486647Y-105587910D01*
X143436402Y-105722624D01*
X143430000Y-105782176D01*
X143430000Y-106430000D01*
X142865500Y-106430000D01*
X142865500Y-97627344D01*
X142867764Y-97606836D01*
X142865561Y-97536713D01*
X142865500Y-97532819D01*
X142865500Y-97505254D01*
X142865500Y-97505250D01*
X142864997Y-97501270D01*
X142864081Y-97489628D01*
X142862710Y-97445973D01*
X142857118Y-97426726D01*
X142853174Y-97407685D01*
X142850664Y-97387808D01*
X142834579Y-97347183D01*
X142830808Y-97336168D01*
X142818618Y-97294210D01*
X142808414Y-97276955D01*
X142799861Y-97259495D01*
X142792486Y-97240869D01*
X142792486Y-97240868D01*
X142766808Y-97205525D01*
X142760401Y-97195771D01*
X142738170Y-97158180D01*
X142724006Y-97144016D01*
X142711367Y-97129217D01*
X142699595Y-97113013D01*
X142675116Y-97092763D01*
X142644874Y-97055815D01*
X142630835Y-97010184D01*
X142613374Y-96844044D01*
X142580469Y-96742772D01*
X142554879Y-96664015D01*
X142460233Y-96500083D01*
X142333570Y-96359410D01*
X142180430Y-96248148D01*
X142007502Y-96171155D01*
X141822348Y-96131800D01*
X141822346Y-96131800D01*
X141752200Y-96131800D01*
X141690200Y-96115187D01*
X141644813Y-96069800D01*
X141628200Y-96007800D01*
X141628200Y-95527752D01*
X141637639Y-95480299D01*
X141664519Y-95440071D01*
X142187772Y-94916819D01*
X142228000Y-94889939D01*
X142275453Y-94880500D01*
X142334648Y-94880500D01*
X142471547Y-94851401D01*
X142519803Y-94841144D01*
X142692730Y-94764151D01*
X142845871Y-94652888D01*
X142972533Y-94512216D01*
X143067179Y-94348284D01*
X143125674Y-94168256D01*
X143145460Y-93980000D01*
X143125674Y-93791744D01*
X143067179Y-93611716D01*
X143067179Y-93611715D01*
X142972533Y-93447783D01*
X142845870Y-93307110D01*
X142692730Y-93195848D01*
X142519802Y-93118855D01*
X142334648Y-93079500D01*
X142334646Y-93079500D01*
X142145354Y-93079500D01*
X142145352Y-93079500D01*
X141960197Y-93118855D01*
X141787269Y-93195848D01*
X141634129Y-93307110D01*
X141507466Y-93447783D01*
X141412820Y-93611715D01*
X141354326Y-93791742D01*
X141336679Y-93959649D01*
X141325279Y-94000070D01*
X141301039Y-94034368D01*
X141267807Y-94067600D01*
X141206965Y-94100980D01*
X141137716Y-94096441D01*
X141081750Y-94055406D01*
X141056598Y-93990727D01*
X141035063Y-93744592D01*
X140999459Y-93611715D01*
X140973903Y-93516337D01*
X140874035Y-93302171D01*
X140738495Y-93108599D01*
X140571401Y-92941505D01*
X140385839Y-92811573D01*
X140346974Y-92767255D01*
X140332964Y-92709999D01*
X140346975Y-92652742D01*
X140385837Y-92608428D01*
X140571401Y-92478495D01*
X140738495Y-92311401D01*
X140874035Y-92117830D01*
X140973903Y-91903663D01*
X141035063Y-91675408D01*
X141055659Y-91440000D01*
X141035063Y-91204592D01*
X140973903Y-90976337D01*
X140874035Y-90762171D01*
X140738495Y-90568599D01*
X140571401Y-90401505D01*
X140385839Y-90271573D01*
X140346975Y-90227257D01*
X140332964Y-90170000D01*
X140346975Y-90112743D01*
X140385839Y-90068426D01*
X140571401Y-89938495D01*
X140738495Y-89771401D01*
X140874035Y-89577830D01*
X140973903Y-89363663D01*
X141035063Y-89135408D01*
X141055659Y-88900000D01*
X141035063Y-88664592D01*
X140973903Y-88436337D01*
X140874035Y-88222171D01*
X140738495Y-88028599D01*
X140571401Y-87861505D01*
X140385839Y-87731573D01*
X140346975Y-87687257D01*
X140332964Y-87630000D01*
X140346975Y-87572743D01*
X140385839Y-87528426D01*
X140571401Y-87398495D01*
X140738495Y-87231401D01*
X140874035Y-87037830D01*
X140973903Y-86823663D01*
X141035063Y-86595408D01*
X141055659Y-86360000D01*
X141035063Y-86124592D01*
X140973903Y-85896337D01*
X140874035Y-85682171D01*
X140738495Y-85488599D01*
X140571401Y-85321505D01*
X140385839Y-85191573D01*
X140346975Y-85147257D01*
X140332964Y-85090000D01*
X140346975Y-85032743D01*
X140385839Y-84988426D01*
X140571401Y-84858495D01*
X140738495Y-84691401D01*
X140874035Y-84497830D01*
X140973903Y-84283663D01*
X141035063Y-84055408D01*
X141055659Y-83820000D01*
X141035063Y-83584592D01*
X140973903Y-83356337D01*
X140874035Y-83142171D01*
X140738495Y-82948599D01*
X140571401Y-82781505D01*
X140385839Y-82651573D01*
X140346975Y-82607257D01*
X140332964Y-82550000D01*
X140346975Y-82492743D01*
X140385839Y-82448426D01*
X140571401Y-82318495D01*
X140738495Y-82151401D01*
X140874035Y-81957830D01*
X140973903Y-81743663D01*
X141035063Y-81515408D01*
X141055659Y-81280000D01*
X141035063Y-81044592D01*
X140973903Y-80816337D01*
X140874035Y-80602171D01*
X140738495Y-80408599D01*
X140571401Y-80241505D01*
X140385839Y-80111573D01*
X140346976Y-80067257D01*
X140332965Y-80010000D01*
X140346976Y-79952743D01*
X140385839Y-79908426D01*
X140571401Y-79778495D01*
X140738495Y-79611401D01*
X140874035Y-79417830D01*
X140973903Y-79203663D01*
X141035063Y-78975408D01*
X141055659Y-78740000D01*
X141035063Y-78504592D01*
X140973903Y-78276337D01*
X140874035Y-78062171D01*
X140738495Y-77868599D01*
X140616569Y-77746673D01*
X140585273Y-77693927D01*
X140583084Y-77632634D01*
X140610537Y-77577789D01*
X140660916Y-77542810D01*
X140792331Y-77493796D01*
X140907546Y-77407546D01*
X140993796Y-77292331D01*
X141044091Y-77157483D01*
X141050500Y-77097873D01*
X141050499Y-75302128D01*
X141044091Y-75242517D01*
X140993796Y-75107669D01*
X140907546Y-74992454D01*
X140792331Y-74906204D01*
X140657483Y-74855909D01*
X140597873Y-74849500D01*
X140597869Y-74849500D01*
X138802130Y-74849500D01*
X138742515Y-74855909D01*
X138607669Y-74906204D01*
X138492454Y-74992454D01*
X138406204Y-75107668D01*
X138355909Y-75242515D01*
X138355909Y-75242517D01*
X138349783Y-75299500D01*
X138349500Y-75302130D01*
X138349500Y-77097869D01*
X138355909Y-77157483D01*
X138406204Y-77292331D01*
X138492454Y-77407546D01*
X138607669Y-77493796D01*
X138719907Y-77535658D01*
X138739082Y-77542810D01*
X138789462Y-77577789D01*
X138816915Y-77632634D01*
X138814726Y-77693926D01*
X138783431Y-77746673D01*
X138661503Y-77868601D01*
X138525965Y-78062170D01*
X138426097Y-78276336D01*
X138364936Y-78504592D01*
X138344340Y-78739999D01*
X138364936Y-78975407D01*
X138409709Y-79142501D01*
X138426097Y-79203663D01*
X138525965Y-79417830D01*
X138661505Y-79611401D01*
X138828599Y-79778495D01*
X139014160Y-79908426D01*
X139053024Y-79952743D01*
X139067035Y-80010000D01*
X139053024Y-80067257D01*
X139014158Y-80111575D01*
X138886487Y-80200972D01*
X138828595Y-80241508D01*
X138661505Y-80408598D01*
X138525965Y-80602170D01*
X138426097Y-80816336D01*
X138364936Y-81044592D01*
X138344340Y-81280000D01*
X138364936Y-81515407D01*
X138409709Y-81682502D01*
X138426097Y-81743663D01*
X138525965Y-81957830D01*
X138661505Y-82151401D01*
X138828599Y-82318495D01*
X139014160Y-82448426D01*
X139053024Y-82492743D01*
X139067035Y-82550000D01*
X139053024Y-82607257D01*
X139014159Y-82651575D01*
X138998725Y-82662382D01*
X138892955Y-82736443D01*
X138828595Y-82781508D01*
X138661505Y-82948598D01*
X138525965Y-83142170D01*
X138426097Y-83356336D01*
X138364936Y-83584592D01*
X138344340Y-83820000D01*
X138364936Y-84055407D01*
X138374193Y-84089953D01*
X138426097Y-84283663D01*
X138525965Y-84497830D01*
X138661505Y-84691401D01*
X138828599Y-84858495D01*
X139014160Y-84988426D01*
X139053024Y-85032743D01*
X139067035Y-85090000D01*
X139053024Y-85147257D01*
X139014158Y-85191575D01*
X138892955Y-85276443D01*
X138828595Y-85321508D01*
X138661505Y-85488598D01*
X138525965Y-85682170D01*
X138426097Y-85896336D01*
X138364936Y-86124592D01*
X138344340Y-86360000D01*
X138364936Y-86595407D01*
X138409709Y-86762502D01*
X138426097Y-86823663D01*
X138525965Y-87037830D01*
X138661505Y-87231401D01*
X138828599Y-87398495D01*
X139014160Y-87528426D01*
X139053024Y-87572743D01*
X139067035Y-87630000D01*
X139053024Y-87687257D01*
X139014158Y-87731575D01*
X138892955Y-87816443D01*
X138828595Y-87861508D01*
X138661505Y-88028598D01*
X138525965Y-88222170D01*
X138426097Y-88436336D01*
X138364936Y-88664592D01*
X138344340Y-88899999D01*
X138364936Y-89135407D01*
X138398412Y-89260340D01*
X138426097Y-89363663D01*
X138525965Y-89577830D01*
X138661505Y-89771401D01*
X138828599Y-89938495D01*
X139014160Y-90068426D01*
X139053024Y-90112743D01*
X139067035Y-90170000D01*
X139053024Y-90227257D01*
X139014158Y-90271575D01*
X138886487Y-90360972D01*
X138828595Y-90401508D01*
X138661505Y-90568598D01*
X138525965Y-90762170D01*
X138426097Y-90976336D01*
X138364936Y-91204592D01*
X138344340Y-91440000D01*
X138364936Y-91675407D01*
X138409709Y-91842502D01*
X138426097Y-91903663D01*
X138525965Y-92117830D01*
X138661505Y-92311401D01*
X138828599Y-92478495D01*
X139014160Y-92608426D01*
X139053024Y-92652743D01*
X139067035Y-92710000D01*
X139053024Y-92767257D01*
X139014159Y-92811575D01*
X138828595Y-92941508D01*
X138661505Y-93108598D01*
X138525965Y-93302170D01*
X138426097Y-93516336D01*
X138364936Y-93744592D01*
X138344340Y-93979999D01*
X138364936Y-94215407D01*
X138407289Y-94373469D01*
X138426097Y-94443663D01*
X138525965Y-94657830D01*
X138661505Y-94851401D01*
X138828599Y-95018495D01*
X139014160Y-95148426D01*
X139053024Y-95192743D01*
X139067035Y-95250000D01*
X139053024Y-95307257D01*
X139014158Y-95351575D01*
X138830322Y-95480299D01*
X138828595Y-95481508D01*
X138661505Y-95648598D01*
X138525965Y-95842170D01*
X138426097Y-96056336D01*
X138364936Y-96284592D01*
X138344340Y-96519999D01*
X138364936Y-96755407D01*
X138405877Y-96908201D01*
X138426097Y-96983663D01*
X138525965Y-97197830D01*
X138661505Y-97391401D01*
X138828599Y-97558495D01*
X139014160Y-97688426D01*
X139053024Y-97732743D01*
X139067035Y-97790000D01*
X139053024Y-97847257D01*
X139014159Y-97891575D01*
X138828595Y-98021508D01*
X138661505Y-98188598D01*
X138525965Y-98382170D01*
X138426097Y-98596336D01*
X138364936Y-98824592D01*
X138344340Y-99060000D01*
X138364936Y-99295407D01*
X138409709Y-99462502D01*
X138426097Y-99523663D01*
X138525965Y-99737830D01*
X138661505Y-99931401D01*
X138828599Y-100098495D01*
X139014160Y-100228426D01*
X139053024Y-100272743D01*
X139067035Y-100330000D01*
X139053024Y-100387257D01*
X139014159Y-100431575D01*
X138828595Y-100561508D01*
X138661505Y-100728598D01*
X138525965Y-100922170D01*
X138426097Y-101136336D01*
X138364936Y-101364592D01*
X138344340Y-101600000D01*
X137560500Y-101600000D01*
X137560500Y-72017869D01*
X138349500Y-72017869D01*
X138355909Y-72077484D01*
X138363494Y-72097819D01*
X138406204Y-72212331D01*
X138492454Y-72327546D01*
X138607669Y-72413796D01*
X138742517Y-72464091D01*
X138802127Y-72470500D01*
X140597872Y-72470499D01*
X140657483Y-72464091D01*
X140792331Y-72413796D01*
X140907546Y-72327546D01*
X140993796Y-72212331D01*
X141043003Y-72080398D01*
X141077981Y-72030021D01*
X141132826Y-72002568D01*
X141194119Y-72004757D01*
X141246865Y-72036053D01*
X141368918Y-72158106D01*
X141562423Y-72293600D01*
X141776507Y-72393430D01*
X141989999Y-72450635D01*
X141990000Y-72450636D01*
X141990000Y-71370000D01*
X142490000Y-71370000D01*
X142490000Y-72450635D01*
X142703492Y-72393430D01*
X142917576Y-72293600D01*
X143111081Y-72158106D01*
X143278106Y-71991081D01*
X143413600Y-71797576D01*
X143513430Y-71583492D01*
X143570636Y-71370000D01*
X142490000Y-71370000D01*
X141990000Y-71370000D01*
X141990000Y-69789364D01*
X142490000Y-69789364D01*
X142490000Y-70870000D01*
X143570636Y-70870000D01*
X143570635Y-70869999D01*
X143513430Y-70656507D01*
X143413599Y-70442421D01*
X143278109Y-70248921D01*
X143111081Y-70081893D01*
X142917576Y-69946399D01*
X142703492Y-69846569D01*
X142490000Y-69789364D01*
X141990000Y-69789364D01*
X141989999Y-69789364D01*
X141776507Y-69846569D01*
X141562421Y-69946400D01*
X141368924Y-70081888D01*
X141246865Y-70203947D01*
X141194118Y-70235242D01*
X141132825Y-70237431D01*
X141077981Y-70209978D01*
X141043002Y-70159598D01*
X141042810Y-70159082D01*
X140993796Y-70027669D01*
X140907546Y-69912454D01*
X140792331Y-69826204D01*
X140657483Y-69775909D01*
X140597873Y-69769500D01*
X140597869Y-69769500D01*
X138802130Y-69769500D01*
X138742515Y-69775909D01*
X138607669Y-69826204D01*
X138492454Y-69912454D01*
X138406204Y-70027668D01*
X138355909Y-70162516D01*
X138354306Y-70177419D01*
X138349783Y-70219500D01*
X138349500Y-70222130D01*
X138349500Y-72017869D01*
X137560500Y-72017869D01*
X137560500Y-66164500D01*
X137577113Y-66102500D01*
X137622500Y-66057113D01*
X137684500Y-66040500D01*
X187435500Y-66040500D01*
X187497500Y-66057113D01*
G37*
%TD.AperFunction*%
%TD*%
D22*
X137560000Y-66040000D02*
X187560000Y-66040000D01*
X187560000Y-116040000D01*
X137560000Y-116040000D01*
X137560000Y-66040000D01*
M02*
